<?xml version="1.0" encoding="utf-8"?>
<!-- Generator: Adobe Illustrator 20.0.0, SVG Export Plug-In . SVG Version: 6.00 Build 0)  -->
<svg version="1.1" id="Layer_1" xmlns="http://www.w3.org/2000/svg" xmlns:xlink="http://www.w3.org/1999/xlink" x="0px" y="0px"
	 viewBox="0 0 2048 2048" style="enable-background:new 0 0 2048 2048;" xml:space="preserve">
<path d="M1565.1,482.8c-298.8-298.6-783.4-298.6-1082.2,0c-298.8,298.6-298.8,783.4,0,1082.2
	c298.8,298.8,783.6,298.6,1082.2,0C1863.9,1266.3,1863.9,781.4,1565.1,482.8z M1019.1,397.9c76.7,0,138.4,61.8,138.4,138.4
	c0,76.7-61.8,138.4-138.4,138.4c-74.5,0-138.4-61.8-138.4-138.4C880.7,459.6,944.6,397.9,1019.1,397.9z M1230.4,1571.8H817.6V1475
	h99.4V845.2h-99.4v-96.8h313.5V1475h99.4V1571.8z"/>
</svg>
