<svg xmlns="http://www.w3.org/2000/svg" viewBox="0 0 526.08 398.98"><defs><style>.a{fill:#dbdbdb;}.b{fill:#b3b3b3;}.c,.e,.h{fill:#fff;}.c{stroke:#dbdbdb;stroke-width:5px;}.c,.h{stroke-miterlimit:10;}.d{fill:#d1d1d1;}.f{fill:#ccc;}.g{fill:#9f9fa0;}.h{stroke:#bcbcbc;}.i{fill:#e6e6e6;}</style></defs><title>revised no data states</title><rect class="a" x="309.52" y="209.17" width="9.33" height="90.08" transform="translate(-68 122.79) rotate(-20)"/><rect class="a" x="199.61" y="209.17" width="9.33" height="90.08" transform="translate(309.29 562.96) rotate(-160)"/><rect class="b" x="255.23" y="209.23" width="8" height="62.36"/><rect class="c" x="142.71" y="85.03" width="232.74" height="156.9"/><rect class="d" x="199.96" y="242.25" width="118.56" height="11.96"/><rect class="a" x="250.11" y="71.9" width="18.25" height="13.14"/><path class="e" d="M233.65,307.65l-2.43-.52-8.11-4.23L216.39,292l-1.17-6.83s1.83-7.67,2.33-8a39,39,0,0,1,4.5-3.33c1.83-1,8.33-2.5,8.33-2.5l7.17-14.67,5.61-28,.68-3.13,1.09-2.85.95-2.8-4.16-7.52s-3.67-7.19-3.83-9.09-1-7.91-1-8.74.83-6,.83-6l1.8-3.78,3.37-2.6,18.67-1.78,9.83,3.25,3.27,2.43,3.73,2.32,2.5,6.5-3.83,13.83-3.5,6.17-2,2.17.21,5.65,1.92,6,3.54,22.53,5,13.83,4,6.17,5.5,1.5,3.83,1.67a41.55,41.55,0,0,1,3.83,3.17,14.87,14.87,0,0,1,1.67,3.83c0,.5-.67,3.67,0,5.17s-1.33,7-1.33,7l-3.46,4.39-2.21,3.61-4.6,4.3-3.4,1.88-4.67,1.65L267.17,317s-17.37-1.43-19-1.67-6.16-3-7.66-5.15S233.65,307.65,233.65,307.65Z"/><path class="f" d="M282.1,307.65c-2.9,3.56-12,6.17-22.81,6.17s-19.91-2.6-22.81-6.17c-20.18,1-34.3,3.41-34.3,6.17,0,3.72,25.56,6.73,57.08,6.73s57.08-3,57.08-6.73C316.35,311.06,302.26,308.69,282.1,307.65Z"/><path class="b" d="M259.33,181.73c6.74.34,12.49,2,15.32,4.25-.39-3.9-7.49-7.3-16.45-7.75-9.42-.47-17.33,2.51-17.66,6.65l2.1.1C245.5,182.73,252,181.36,259.33,181.73Z"/><path class="b" d="M285.83,185.08c-6.06-1.12-6.81,1.62-9.82.86l-2,10.24-2.83,9.17s1.6.89,3.35,1.75a6.2,6.2,0,0,1-1.91,6.34c-.51.45-3.81,7.8-4.46,8.17,4.75-3.68,7.78-8.39,8.7-8.7,1.72-.59,2.24-2.62,2.33-4.27a29.48,29.48,0,0,0,4.92-2.42l3.83-4.5,4.18-5.65,4.18-5.65A22.83,22.83,0,0,0,285.83,185.08Z"/><path class="b" d="M241.58,205.57c1.53-.77,2.81-1.48,2.81-1.48l-2.83-9.17-2-10.24c-3,.76-3.76-2-9.82-.86a22.83,22.83,0,0,0-10.44,5.32l4.18,5.65,4.18,5.65,3.83,4.5s4,2.42,5.37,2.5H237a6.52,6.52,0,0,0,2.38,4.39c1.5,1.21,6.42,9.12,8.84,9.74-.66-.42-4.06-8.59-4.58-9.09A7.48,7.48,0,0,1,241.58,205.57Z"/><path class="g" d="M271.76,222.62l-2.16,3.9c-2.48,2.81-6.93,3.81-11.25,3.77s-8.77-1-11.25-3.77l-2.16-3.9-1.09,2.85c2.78,6.43,8.07,8.68,14.51,9.11,6.44-.43,11.73-2.68,14.51-9.11Z"/><path class="b" d="M286.81,297.91c-.36-.6-1.2,3.48-2.19,4-.68.37-.05.18-1.64,1.22a61.48,61.48,0,0,1-7.44,4.24,27.52,27.52,0,0,1-6.94,2.24c-3.38.68-15.06,1-18.44.28a27.52,27.52,0,0,1-6.94-2.24,61.45,61.45,0,0,1-7.44-4.24c-1.59-1-1-.84-1.64-1.22-1-.54-1.83-4.62-2.19-4a5.67,5.67,0,0,0,.68,6c1.27,1.77,2.51,2.2,5.84,4.49,6,4.15,5,4.77,8.77,6.73a37.55,37.55,0,0,0,4,1.74c-.18,4.53-6.64,9.18-16,11a37.63,37.63,0,0,1-15.33,0,4.87,4.87,0,0,0,.4,1.72c2.27,5.13,13,7.53,23.89,5.36,7.12-1.42,20.33-13.42,24.17-18.55a8.57,8.57,0,0,1-2.16.55c.84-.26,1.65-.56,2.38-.85l-.22.3a2.06,2.06,0,0,0,.74-.51c1.3-.55,2.25-1,2.42-1.12,3.79-2,2.72-2.59,8.77-6.73,3.34-2.29,4.57-2.72,5.84-4.49A5.67,5.67,0,0,0,286.81,297.91Z"/><path class="b" d="M301.12,277.19a14.25,14.25,0,0,0-9.3-5.78c0-.1-3.08-.88-5-1.4-1.66-4.66-3.52-9.58-4.21-11.39-11.86-30.76-7.78-34.94-9.83-27.65-.89,1.08-.28,4,.73,7.56-2,2.47,1,4.36-2.38,11-3.44,6.81-5.21,10.25-7.78,11.91-2.21,1.43-3.59,1.11-5,1.2-1.38-.09-2.76.23-5-1.2-2.58-1.67-4.35-5.1-7.78-11.91-3.28-6.51-.51-8.45-2.28-10.86,1-3.65,1.66-6.59.76-7.68-2.06-7.29,2-3.11-9.83,27.65-.7,1.81-2.56,6.76-4.22,11.42-1.94.52-4.88,1.27-4.89,1.37a14.25,14.25,0,0,0-9.3,5.78,15.13,15.13,0,0,0-2.49,10.38,27,27,0,0,0,9.77,15.33,28.45,28.45,0,0,0,5.64,3.5,22,22,0,0,0,3.39.93A31.13,31.13,0,0,1,222,298.58l-2.5-4.08c-2.84-5.73-3.09-11.76-.06-16.08,2-2.87,5.62-4.66,9.49-5.22-1.62,4.69-2.66,8.13-1.42,6l6.24-7.64a29.42,29.42,0,0,0,3.38-6.18c.38.52,1,1.2,3.69,3.16,4,3,1.78,8.37,6,14.3.83,1.17,6.42,8.83,11.56,8.6,5.14.24,10.73-7.43,11.56-8.6,4.21-5.93,1.94-11.31,6-14.3,2.85-2.1,3.4-2.73,3.77-3.27a29.87,29.87,0,0,0,3.43,6.29l6.24,7.64c1.24,2.1.2-1.35-1.43-6,3.91.54,7.58,2.34,9.61,5.23,3,4.33,2.78,10.36-.06,16.08l-2.5,4.08a31.13,31.13,0,0,1-10.17,8.74,22,22,0,0,0,3.39-.93,28.45,28.45,0,0,0,5.64-3.5,27,27,0,0,0,9.77-15.33A15.13,15.13,0,0,0,301.12,277.19Z"/><ellipse class="f" cx="404.04" cy="310.59" rx="46.79" ry="7.42"/><path class="h" d="M427.27,297.91c-14.5-1.76-22.63-2.75-33.69-2.61-5,.06-15.68.2-23.14,2.31-4.26,1.21-9.73,3.69-5.79,5.49a25.22,25.22,0,0,0,8.4,1.58c3.84.13,5.13-.61,8.45-.35,3,.23,5.81,1.14,6.13,2,.18.47-.51.68-4,2.27-3.68,1.67-3.91,1.88-4,2.12-.41,1,1.81,2.29,5,3,1.3.28,5.67,1.09,25.9-.45,12.7-1,19-1.44,23.71-2.6,1.76-.43,12.36-3.05,10.33-6.85-.27-.51-1.41-2.45-7.2-4.08A66.6,66.6,0,0,0,427.27,297.91Z"/><ellipse class="a" cx="396.56" cy="308.63" rx="5.48" ry="1.96"/><ellipse class="a" cx="414.25" cy="308.63" rx="5.48" ry="1.96"/><ellipse class="a" cx="431.94" cy="305.45" rx="5.48" ry="1.96"/><ellipse class="a" cx="414.25" cy="301.59" rx="5.48" ry="1.96"/><ellipse class="a" cx="397.92" cy="299.64" rx="5.48" ry="1.96"/><ellipse class="a" cx="381.6" cy="299.64" rx="5.48" ry="1.96"/><path class="d" d="M102.26,257.77c-2.83-11.9-6.41-21.33-8-21s-.61,10.16,2.21,22.06c.43,1.81.88,3.56,1.33,5.23l-.09,0,12.78,46.88,2.62-.46-9.59-47C103.14,261.67,102.73,259.75,102.26,257.77Z"/><path class="d" d="M114.78,245.41c0-13-1.82-23.5-4.07-23.5s-4.07,10.52-4.07,23.5c0,2,0,3.89.12,5.72h-.12l2.23,51.42h3.68l2.09-50.92C114.73,249.65,114.78,247.57,114.78,245.41Z"/><path class="i" d="M114.8,215.3l-3.27-8.07-.93,1.82-.74-1.82-2.08,4.08s-3.68,6.49-1.46,10.68a4.93,4.93,0,0,0,5.09,2.44C114.35,225,117.47,222.76,114.8,215.3Z"/><path class="i" d="M90.31,230.66l.1-7.73.93,1.58,0-1.74,2.08,3.53s3.52,5.58,3.17,9.64c-.15,1.74-1.23,2.92-2.37,2.75C92.69,239.5,90.41,237.77,90.31,230.66Z"/><rect class="d" x="118.12" y="227.49" width="5.2" height="81.21" transform="translate(36.17 -13.51) rotate(7.53)"/><polygon class="i" points="128.61 228.18 123.46 227.5 127.52 215.87 128.61 228.18"/><polyline class="d" points="127.76 220.53 126.03 220.3 127.39 216.41"/><ellipse class="f" cx="110.71" cy="309.08" rx="23.76" ry="5.42"/><polygon class="i" points="126.04 308.65 94.65 308.65 91.71 262.92 127.71 262.92 126.04 308.65"/></svg>