<svg xmlns="http://www.w3.org/2000/svg" viewBox="0 0 118.9 118.9"><title>DNN Technology Editorial</title><path d="M20.62,59.45A38.83,38.83,0,1,1,59.45,98.28,38.83,38.83,0,0,1,20.62,59.45" fill="#e6e7e8"/><path d="M71.79,51V35.5a25.18,25.18,0,0,0-8.46-1.44H37.94V67.92H54.86V51Z" fill="#ef3e42"/><path d="M71.79,51H54.86V67.92h8.47a8.46,8.46,0,0,0,8.46-8.46Z" fill="#fff"/><path d="M71.79,35.5V51H87.28A25.46,25.46,0,0,0,71.79,35.5M37.94,84.85H54.87V67.92H37.94Z" fill="#472a2b"/><path d="M87.28,51H71.79v8.47a8.46,8.46,0,0,1-8.46,8.46H54.86V84.85h8.47A25.42,25.42,0,0,0,87.28,51" fill="#00a4e4"/><path d="M48.69,106.57l-.85-.19-.33,1.48.93.21c.65.14,1.09,0,1.2-.55s-.22-.79-1-1M72.61,9.93l-1.55,2.2,1.78.47ZM12.41,43.74a2.1,2.1,0,1,0,1.49-3.92,2.1,2.1,0,1,0-1.49,3.92M93.65,25.55c.43-.44.21-.93-.34-1.45l-.71-.69-1.17,1.22.72.68c.41.39,1,.75,1.5.24m-5.77-8.72L85.7,18.4l1.54,1Zm7.62,6.45c.34-.36.22-.79-.32-1.3l-.63-.6-1,1.09.69.66c.48.46,1,.52,1.31.15M16.66,31.81c-.6-.37-1,.09-1.36.63l-.41.66,1.48.91.39-.64c.34-.57.5-1.19-.1-1.56M59.45,0A59.45,59.45,0,1,0,118.9,59.45,59.45,59.45,0,0,0,59.45,0m47.67,35.7-1.31.74-1.58-2.82L103,34.3l1.5,2.66-1.24.69L101.78,35l-1.33.75,1.67,3-1.32.74L98.29,35l6.41-3.6Zm-5.6-8.8-4.6,3.54,1.73,2.25-1.22.94L94.61,30l5.82-4.48ZM96.4,21.2c.82.79,1.53,2,.5,3.09a1.61,1.61,0,0,1-2,.31v0a1.68,1.68,0,0,1-.1,2.27c-1.11,1.16-2.49.58-3.5-.39l-2.11-2,5.08-5.3Zm-8.12-6.47,1.43,1L88.16,23.5l-1.64-1.1.33-1.52L84.49,19.3l-1.25.9-1.61-1.07Zm-8.91-4.65,1.63.73L78.63,16.1l2.6,1.17-.63,1.41-4.23-1.89ZM72.31,7.82,74,8.26,75,16.15l-1.91-.51L73,14.1l-2.75-.72-.89,1.25-1.87-.49Zm-12.21,2a4,4,0,0,1,6.95-2.17L65.74,8.71a1.84,1.84,0,0,0-1.41-.8A2.11,2.11,0,0,0,62,10a2.07,2.07,0,0,0,1.88,2.43,1.89,1.89,0,0,0,1.61-.6l1.13,1.26a3.64,3.64,0,0,1-3,1A3.77,3.77,0,0,1,60.1,9.79m-5.4.92c-1-.23-1.94-.63-2.05-2-.13-1.62,1.29-2.42,2.65-2.53a3.68,3.68,0,0,1,2.47.7l-1,1.28a1.83,1.83,0,0,0-1.36-.52c-.46,0-1,.24-1,.82s.48.61,1.19.77c1,.23,2.34.55,2.46,2,.14,1.69-1.15,2.56-2.6,2.67a3.86,3.86,0,0,1-2.83-.83l1.06-1.27a2.2,2.2,0,0,0,1.65.65c.54,0,1-.3,1-.88s-.62-.69-1.61-.92M24.54,19.3l5.33,1.81,0,0L26.8,17.42l1.33-1.09L32.82,22l-1.55,1.28-5.35-1.81,0,0L29,25.15l-1.32,1.1L23,20.59Zm-4,3.79,1.15,1L19.6,26.52l1,.9,2-2.33,1.08.92-2,2.33,1.16,1,2.21-2.61,1.16,1L23,31.62l-5.6-4.77Zm-6.39,8.47c.84-1.37,2-2.14,3.43-1.26S18.83,32.68,18,34l-.46.75,2.36,1.45L19,37.71l-6.26-3.85ZM9.56,40.42a3.74,3.74,0,0,1,5-2.38,3.81,3.81,0,0,1,2.22,5.14,3.8,3.8,0,0,1-5.07,2.34,3.74,3.74,0,0,1-2.17-5.1m-2.62,33,7-2.2,1.48,4.72L14,76.36l-1-3.08-1.32.41.92,2.91L11.27,77l-.91-2.91-1.46.45,1,3.26-1.44.46ZM12.66,87.2l-1-2,1.6-2.6-3-.22L9.3,80.54l4.62.54,2-3.67,1,1.91-1.42,2.25,2.65.18.93,1.84-4.14-.51ZM16,92l-1-1.44,4.72-3.43-1.22-1.68,1.22-.89,3.49,4.8L22,90.26l-1.22-1.68Zm7.54,6.2-1.09,1.05-3.57-3.67,5.26-5.12L27.62,94l-1.08,1-2.25-2.31-1,1,2.13,2.19-1,1L22.28,94.7l-1.09,1.06Zm5,5.89L29,98.47h0l-2.8,3.9-1.39-1,4.33-5.94,1.64,1.19-.45,5.62,0,0,2.79-3.9,1.39,1-4.33,5.94Zm9,.06c.75.74,1.71,1.69,1,3-.75,1.52-2.31,1.59-3.61.94a3.86,3.86,0,0,1-2-2.18l1.56-.54a2.2,2.2,0,0,0,1.08,1.41c.48.24,1,.27,1.26-.26s-.17-.91-.89-1.62-1.34-1.54-.74-2.73c.73-1.45,2.35-1.4,3.57-.79a3.67,3.67,0,0,1,1.75,1.89l-1.54.56a1.77,1.77,0,0,0-.89-1.15c-.41-.21-1-.32-1.25.2s.1.77.63,1.27m4.33,6.64-1.68-.61,2.49-6.91,1.68.6Zm9.5-3.14a1.6,1.6,0,0,1-1.52,1.28v0a1.7,1.7,0,0,1,1.09,2c-.35,1.56-1.84,1.78-3.2,1.47l-2.86-.64,1.61-7.17,2.86.64c1.11.25,2.35.94,2,2.39M58,113.75l-4.61-.34.54-7.33,1.78.13L55.26,112l2.83.21ZM18.91,59.45A40.55,40.55,0,1,1,59.45,100,40.54,40.54,0,0,1,18.91,59.45m41.56,54.3L60,106.42l4.93-.3.09,1.5-3.22.2.08,1.37L65,109l.09,1.42-3.05.18.09,1.53,3.41-.21.09,1.51ZM91.3,103.61a3.85,3.85,0,0,1-2.85.76l.25-1.64a2.19,2.19,0,0,0,1.74-.3c.44-.32.7-.77.35-1.25s-.88-.26-1.85,0a2.19,2.19,0,0,1-2.76-.6c-1-1.32-.16-2.73.95-3.53a3.67,3.67,0,0,1,2.48-.69L89.4,98A1.79,1.79,0,0,0,88,98.3c-.37.27-.74.73-.4,1.2s.73.26,1.42,0c1-.33,2.29-.74,3.15.45,1,1.37.34,2.78-.84,3.63m4.55-3.85-5.17-5.23,3.52-3.48,1.06,1.08L93,94.39l1,1,2.17-2.15,1,1-2.17,2.15L96,97.48l2.44-2.4,1.06,1.07Zm8-8.75a3.87,3.87,0,1,1-3.72-6.18l.25,1.68a1.85,1.85,0,0,0-1.42.8,2.12,2.12,0,0,0,.56,3,2.07,2.07,0,0,0,3-.35,1.88,1.88,0,0,0,.32-1.7l1.67-.3a3.63,3.63,0,0,1-.71,3m4.51-7.56a2.87,2.87,0,0,1-4,1.5l-4.11-2,.78-1.58,4,2a1.39,1.39,0,1,0,1.21-2.48l-4-1.95.78-1.59,4.11,2a2.9,2.9,0,0,1,1.27,4.15m3.56-10-3.24.72-.17.57,2.8.82-.49,1.67-7.06-2.05.79-2.69c.39-1.36,1.3-2.55,2.91-2.08a2,2,0,0,1,1.48,2l3.56-1Zm-6.21-5.74.61-4.9,1.5.18-.4,3.21,1.37.17.37-3,1.41.17-.37,3,1.51.19.42-3.39,1.51.19L113,68.57ZM107,72.05c-.65-.19-1,.4-1.11.91l-.27.91,1.65.48.23-.81c.16-.55.22-1.28-.5-1.49m-58.8,37.3-1-.22-.36,1.64,1,.22c.55.13,1.25.12,1.4-.58s-.3-.89-1-1.06" fill="#d1d3d4"/><path d="M6.27,53.47l-.56-.57a.4.4,0,0,0-.56,0,.4.4,0,0,0,0,.57l.56.56a.4.4,0,0,0,.56,0,.39.39,0,0,0,0-.56" fill="#bcbec0"/><path d="M4.2,56.89H3.4a.4.4,0,1,0,0,.79h.8a.4.4,0,0,0,0-.79" fill="#bcbec0"/><path d="M15.34,57.68h-.8a.4.4,0,0,0,0,.8h.8a.4.4,0,0,0,0-.8" fill="#bcbec0"/><path d="M14.15,53.47a.39.39,0,0,0-.56,0L13,54a.39.39,0,0,0,0,.56.4.4,0,0,0,.56,0l.56-.56a.39.39,0,0,0,0-.56" fill="#bcbec0"/><path d="M9.77,52.91a.39.39,0,0,0,.28-.12.4.4,0,0,0,.12-.28v-.8a.4.4,0,0,0-.77-.15l0,.16v.79a.4.4,0,0,0,.4.4" fill="#bcbec0"/><path d="M9.37,54.5a3.18,3.18,0,0,0-1.6,5.93v1.23H11V60.43A3.18,3.18,0,0,0,9.37,54.5" fill="#bcbec0"/><rect x="7.77" y="62.35" width="3.18" height="0.8" fill="#bcbec0"/><path d="M7.77,64.54h.82l0,.1c0,.38.36.39.8.39s.79,0,.79-.39l0-.1H11v-.8H7.77Z" fill="#bcbec0"/><path d="M112,47.83v-1a3.35,3.35,0,0,0-6.7,0v1h-.75v6.71h8.2V47.83Zm-2.71,5.24h-1.48l.38-2a.74.74,0,1,1,1.1-.64.74.74,0,0,1-.37.64Zm1.22-5.24h-3.72v-1a1.86,1.86,0,0,1,3.72,0Z" fill="#bcbec0"/><path d="M80.66,108.62a1.39,1.39,0,0,1-2,2,1.33,1.33,0,0,1-.37-.7l-1.58,1.59-1.61-1.61a1.38,1.38,0,0,0,.63-2.31,1.37,1.37,0,0,0-2,0,1.35,1.35,0,0,0-.36.62l-1.6-1.6L73.38,105a1.55,1.55,0,0,1-.55-.33,1.39,1.39,0,1,1,2-2,1.55,1.55,0,0,1,.33.55l1.63-1.63,1.6,1.6A1.39,1.39,0,1,0,80,105l1.6,1.61L80,108.25a1.33,1.33,0,0,1,.7.37" fill="#bcbec0"/><path d="M40.39,13a1.12,1.12,0,1,0,1.12-1.12A1.12,1.12,0,0,0,40.39,13" fill="#bcbec0"/><path d="M42.49,9.62h1.3L41.51,7.34,39.23,9.62h1.29v1.85a1.77,1.77,0,0,1,1-.29,1.74,1.74,0,0,1,1,.29Zm-2,6.83H39.23l2.28,2.28,2.28-2.28h-1.3V14.61a1.81,1.81,0,0,1-1,.28,1.85,1.85,0,0,1-1-.28Z" fill="#bcbec0"/><path d="M43.36,13a1.82,1.82,0,0,0-.28-1h1.84V10.76L47.2,13l-2.28,2.27V14H43.08a1.81,1.81,0,0,0,.28-1" fill="#bcbec0"/><path d="M35.81,13l2.28-2.28v1.29h1.85a1.82,1.82,0,0,0,0,2H38.09v1.29Z" fill="#bcbec0"/></svg>