<?xml version="1.0" encoding="utf-8"?>
<!-- Generated by IcoMoon.io -->
<!DOCTYPE svg PUBLIC "-//W3C//DTD SVG 1.1//EN" "http://www.w3.org/Graphics/SVG/1.1/DTD/svg11.dtd">
<svg version="1.1" xmlns="http://www.w3.org/2000/svg" xmlns:xlink="http://www.w3.org/1999/xlink" width="24" height="24" viewBox="0 0 24 24">
<path fill="currentColor" d="M20.28 18.84l-3.36-3.36c0.84-1.32 1.32-2.88 1.32-4.56 0-4.68-3.84-8.52-8.52-8.52s-8.52 3.84-8.52 8.52 3.84 8.52 8.52 8.52c1.68 0 3.24-0.48 4.56-1.32l3.36 3.36c0.24 0.24 0.6 0.24 0.84 0l1.68-1.68c0.36-0.24 0.36-0.72 0.12-0.96zM9.72 17.040c-3.36 0-6.12-2.76-6.12-6.12s2.76-6.12 6.12-6.12 6.12 2.76 6.12 6.12-2.76 6.12-6.12 6.12z"></path>
</svg>
