<svg version="1.1" xmlns="http://www.w3.org/2000/svg" xmlns:xlink="http://www.w3.org/1999/xlink" x="0px" y="0px"
	 viewBox="0 0 2048 2048" style="enable-background:new 0 0 2048 2048;" xml:space="preserve">
	<circle class="back" cx="1024" cy="1024" r="1024"></circle>
	<path class="main" d="M1479.7,1016c0-37.7-5.2-74.1-14-109.1l151.9-87.6l-119.5-207.1l-150,86.7c-52.7-52.5-118.5-91.7-192-112.8
		V407.6H917.1v176.1c-79.9,21.2-150.9,63.6-206.7,121.2L550,612.3L430.5,819.3L596,914.9c-7.5,32.5-11.9,66.3-11.9,101.1
		c0,39.9,5.7,78.3,15.5,114.9l-169.2,97.7l119.5,207.1l170.5-98.4c54.1,52.5,121.5,91.2,196.7,111.1v192h239.1V1446
		c68.7-19.7,130.4-55.6,181.2-103.1l160.8,92.8l119.5-207.1l-155.3-89.7C1473.5,1099.9,1479.7,1058.8,1479.7,1016z M1032,1283.1
		c-143.1,0-259.1-116-259.1-259.1s116-259.1,259.1-259.1s259.1,116,259.1,259.1S1175.1,1283.1,1032,1283.1z"></path>
</svg>
