<svg version="1.1" xmlns="http://www.w3.org/2000/svg" xmlns:xlink="http://www.w3.org/1999/xlink" x="0px" y="0px"
	 viewBox="0 0 2048 2048" style="enable-background:new 0 0 2048 2048;" xml:space="preserve">
    <path d="M1592.2,1015.2c0-47-6.5-92.4-17.5-136l189.4-109.2l-149-258.2l-187,108.1c-65.7-65.5-147.8-114.3-239.4-140.7V256.6h-298
	    v219.6c-99.6,26.4-188.2,79.3-257.7,151.1l-200-115.5l-149,258.1l206.4,119.2c-9.4,40.5-14.8,82.7-14.8,126.1
	    c0,49.8,7.1,97.6,19.3,143.3l-211,121.8l149,258.2l212.6-122.7c67.5,65.5,151.5,113.7,245.3,138.5v239.4h298.1v-242.4
	    c85.7-24.6,162.6-69.3,225.9-128.6l200.5,115.7l149-258.2l-193.7-111.9C1584.4,1119.8,1592.2,1068.6,1592.2,1015.2z M1033.9,1348.3
	    c-178.4,0-323.1-144.6-323.1-323.1s144.6-323.1,323.1-323.1S1357,846.8,1357,1025.2S1212.4,1348.3,1033.9,1348.3z"/>
</svg>
