<svg version="1.1" xmlns="http://www.w3.org/2000/svg" xmlns:xlink="http://www.w3.org/1999/xlink" x="0px" y="0px"
	 viewBox="0 0 2048 2048" style="enable-background:new 0 0 2048 2048;" xml:space="preserve">
	<circle class="back" cx="1024" cy="1024" r="1024"></circle>
	<g>
		<path class="main" d="M1349.7,1251.9L787.5,689.5c24.4-62.1,11.6-135.6-38.7-185.9c-50.3-50.3-123.6-63.1-185.9-38.7l113.9,113.9
			l-6.7,91.2l-91.2,6.7L465.1,562.8c-24.4,62.1-11.6,135.6,38.7,185.9c50.3,50.3,123.6,63.1,185.9,38.7l562.3,562.3
			c-24.4,62.3-11.6,135.6,38.7,185.9c50.3,50.3,123.6,63.1,185.9,38.7l-113.9-113.9l6.7-91.2l91.2-6.7l113.9,113.9
			c24.4-62.1,11.6-135.6-38.7-185.9C1485.3,1240.3,1412,1227.5,1349.7,1251.9z"></path>
		<path class="main" d="M880.9,1077.9l-182.7,182.7c-62.1-24.4-135.6-11.6-185.9,38.7s-63.1,123.6-38.7,185.9l113.9-113.9l91.2,6.7
			l6.7,91.2l-113.9,113.9c62.1,24.4,135.6,11.6,185.9-38.7s63.1-123.6,38.7-185.9l182.7-182.7L880.9,1077.9z"></path>
		<path class="main" d="M1175.7,978.9l182.7-182.7c62.3,24.4,135.6,11.6,185.9-38.7c50.3-50.3,63.1-123.6,38.7-185.9l-113.9,113.9
			l-91.2-6.7l-6.7-91.2l113.9-113.9c-62.1-24.4-135.6-11.6-185.9,38.7c-50.3,50.3-63.1,123.6-38.7,185.9l-182.7,182.7L1175.7,978.9z"></path>
	</g>
</svg>
