<svg version="1.1" xmlns="http://www.w3.org/2000/svg" xmlns:xlink="http://www.w3.org/1999/xlink" x="0px" y="0px"
	 viewBox="0 0 2048 2048" style="enable-background:new 0 0 2048 2048;" xml:space="preserve">
    <g>
	    <path d="M1466.1,1341.5l-756-762.1c32.8-84.2,15.6-183.8-52-251.9s-166.2-85.5-250-52.4l153.2,154.3l-9,123.6L429.6,562l-153-154.3
		    c-32.8,84.2-15.6,183.8,52,251.9s166.2,85.5,250,52.4l756.1,762c-32.8,84.4-15.6,183.8,52,251.9c67.6,68.2,166.2,85.5,250,52.4
		    L1483.6,1624l9-123.6l122.6-9.1l153.2,154.3c32.8-84.2,15.6-183.8-52-251.9C1648.4,1325.8,1549.9,1308.4,1466.1,1341.5z"/>
	    <path d="M828.5,1093.8L581,1341.3c-84.1-33.1-183.7-15.7-251.9,52.4s-85.5,167.5-52.4,251.9L431,1491.4l123.6,9.1l9.1,123.6
		    l-154.3,154.3c84.1,33.1,183.7,15.7,251.9-52.4s85.5-167.5,52.4-251.9l247.5-247.6L828.5,1093.8z"/>
	    <path d="M1227.9,959.6L1475.4,712c84.4,33.1,183.7,15.7,251.9-52.4c68.1-68.2,85.5-167.5,52.4-251.9L1625.4,562l-123.6-9.1
		    l-9.1-123.6L1647.1,275c-84.1-33.1-183.7-15.7-251.9,52.4c-68.1,68.2-85.5,167.5-52.4,251.9l-247.5,247.6L1227.9,959.6z"/>
    </g>
</svg>
