<svg id="Layer_1" data-name="Layer 1" xmlns="http://www.w3.org/2000/svg" viewBox="0 0 550.08 300.98">
    <defs>
        <style>.cls-1{fill:#ccc;}.cls-2{fill:#9f9fa0;}.cls-3{fill:#b3b3b3;}.cls-4{fill:#9ca9ae;}</style>
    </defs>
    <ellipse class="cls-1" cx="176.57" cy="238.17" rx="60.51" ry="5.31"/>
    <path class="cls-2" d="M220.64,175.7c-3.36,6-11.23,7.3-18.51,2.79-6.48-4-10.47-11.39-10.23-18V157l-4-2.51c-2.87,9.55,2.62,21.94,12.65,28.15,9.72,6,20.25,4.1,24.5-4.09Z"/>
    <path class="cls-3" d="M447.71,71.6h-.51c-7.88-.2-14.18-4.93-14-10.55h0c.14-5.71,6.52-10,14.55-9.83,7.88.2,14.18,4.93,14,10.55S455.36,71.6,447.71,71.6ZM436.16,61.12c-.1,3.9,5,7.32,11.12,7.47s11.38-3,11.48-6.9-5-7.32-11.12-7.47-11.38,3-11.48,6.9Z"/>
    <path class="cls-4" d="M337.16,162.53l-4-.45c.23-2,.52-4.09.87-6.11l3.94.68C337.66,158.59,337.38,160.57,337.16,162.53Zm2-11.71-3.9-.91c.46-2,1-4,1.58-6l3.84,1.13C340.14,147,339.62,148.9,339.18,150.82Zm3.37-11.4-3.76-1.35c.69-1.92,1.45-3.86,2.26-5.75l3.68,1.57C343.94,135.7,343.21,137.56,342.54,139.41Zm4.66-10.94-3.58-1.78c.91-1.84,1.89-3.67,2.9-5.45l3.47,2C349,124.94,348.08,126.71,347.21,128.48Zm5.89-10.33L349.74,116c1.11-1.71,2.29-3.42,3.5-5.08l3.23,2.36C355.3,114.85,354.16,116.5,353.09,118.15Zm7-9.59L357,106c1.3-1.58,2.66-3.15,4.05-4.65l2.94,2.71C362.68,105.53,361.37,107,360.11,108.56Zm8.06-8.74-2.79-2.87c1.47-1.43,3-2.83,4.55-4.17l2.62,3C371.06,97.09,369.59,98.44,368.17,99.82Zm9-7.78-2.45-3.16c1.62-1.25,3.3-2.48,5-3.64l2.27,3.3C380.33,89.64,378.71,90.82,377.15,92Zm9.79-6.74-2.08-3.42c1.75-1.07,3.55-2.1,5.35-3.06l1.89,3.53C390.36,83.27,388.62,84.27,386.94,85.29Zm10.47-5.61-1.69-3.62c1.85-.86,3.76-1.69,5.66-2.45l1.49,3.71C401,78.05,399.2,78.85,397.41,79.68Zm11-4.41-1.28-3.79c1.94-.65,3.92-1.26,5.9-1.81l1.07,3.85C412.22,74.05,410.3,74.64,408.43,75.27Zm11.46-3.17L419,68.19l1.63-.34.79,3.92Z"/>
    <path class="cls-4" d="M334,162.28c-.7-1.82-1.46-3.68-2.27-5.51l3.66-1.62c.83,1.89,1.62,3.81,2.35,5.69Zm-4.81-10.91c-.88-1.76-1.82-3.54-2.79-5.28l3.49-1.95c1,1.79,2,3.62,2.88,5.44Zm-5.81-10.42c-1-1.67-2.12-3.36-3.25-5l3.31-2.24c1.15,1.7,2.27,3.44,3.34,5.16Zm-6.7-9.9c-1.17-1.59-2.4-3.19-3.65-4.74l3.12-2.5c1.28,1.6,2.54,3.23,3.74,4.87Zm-7.47-9.34c-1.29-1.49-2.64-3-4-4.45l2.93-2.73c1.39,1.5,2.77,3,4.1,4.56ZM301.08,113c-1.4-1.4-2.85-2.8-4.31-4.16l2.73-2.93c1.49,1.39,3,2.82,4.41,4.26Zm-8.76-8.17c-1.49-1.3-3-2.6-4.59-3.86l2.53-3.1c1.58,1.29,3.16,2.62,4.69,3.94ZM283,97.22c-1.58-1.2-3.2-2.4-4.83-3.55l2.32-3.26c1.66,1.18,3.32,2.4,4.93,3.63Zm-9.77-7c-1.66-1.1-3.35-2.19-5-3.25l2.11-3.4c1.73,1.07,3.46,2.19,5.15,3.31Zm-10.18-6.34c-1.71-1-3.47-2-5.23-2.94l1.91-3.52c1.79,1,3.59,2,5.33,3ZM252.52,78.2c-1.76-.89-3.58-1.77-5.4-2.63l1.7-3.62c1.85.87,3.7,1.77,5.5,2.68Zm-175.31-.5-2.15-3.37q1.33-.85,2.7-1.67l2.06,3.43Q78.5,76.88,77.21,77.71ZM85,73.14l-1.89-3.52c1.79-1,3.64-1.9,5.49-2.79l1.73,3.61C88.53,71.29,86.74,72.2,85,73.14Zm156.65,0c-1.82-.79-3.68-1.57-5.54-2.31l1.49-3.71c1.89.76,3.79,1.55,5.64,2.36Zm-11.14-4.47c-1.87-.69-3.77-1.36-5.66-2l1.28-3.79c1.92.65,3.87,1.33,5.77,2ZM95.76,68,94.2,64.29C96.06,63.5,98,62.73,99.9,62l1.41,3.74C99.44,66.45,97.58,67.2,95.76,68ZM219.13,64.8c-1.91-.59-3.85-1.15-5.77-1.68l1.06-3.86c1.95.54,3.93,1.11,5.88,1.71Zm-112.18-1L105.7,60c1.93-.63,3.9-1.24,5.87-1.8l1.1,3.85C110.75,62.56,108.82,63.15,106.95,63.77Zm100.6-2.16c-1.93-.47-3.9-.93-5.85-1.35l.85-3.91c2,.43,4,.89,6,1.38Zm-89.1-1.13-.95-3.89c2-.48,4-.93,6-1.34l.8,3.92C122.33,59.57,120.37,60,118.45,60.48Zm77.37-1.41c-2-.36-4-.71-5.92-1l.62-4c2,.31,4,.66,6,1Zm-65.64-1-.66-3.95c2-.34,4-.64,6.06-.9l.52,4C134.13,57.45,132.13,57.75,130.17,58.08Zm53.77-.85c-2-.25-4-.47-6-.66l.38-4c2,.19,4.06.42,6.09.67ZM142,56.52l-.38-4c2-.19,4.07-.36,6.11-.49l.25,4C146,56.17,144,56.32,142,56.52ZM172,56.08c-2-.13-4-.23-6-.29l.13-4c2,.07,4.09.17,6.12.3Zm-18-.32-.12-4c1.88-.06,3.8-.08,5.7-.08H160v4h-.42C157.73,55.68,155.85,55.71,154,55.76Z"/>
    <ellipse class="cls-1" cx="443.59" cy="233.55" rx="24.96" ry="5.31"/>
    <path class="cls-3" d="M117.54,166.19A13,13,0,0,0,124,189.82c-4.12-2.25-7-7.2-7-13s2.86-10.71,7-13l-.55.07c2-2.14,2.66-5.57,2.2-9.56-5.35,2-13.65-2.5-19.7-11.13a33.35,33.35,0,0,1-6-14.77,6.62,6.62,0,0,0-1.85,1c-5.11,4.13-3.74,15.35,3.06,25.05C106,161.62,112.44,165.91,117.54,166.19Z"/>
    <path class="cls-3" d="M214.89,187.77a9,9,0,0,0-3.17,1.56l5.15,1.41a7.26,7.26,0,0,1,2.74.75l.1,0v0a10.73,10.73,0,0,1,5.24,6.9c1.38,5.26-.91,10.42-5.13,11.53s-8.76-2.26-10.14-7.52a11.91,11.91,0,0,1-.36-4l-2-.55a16.48,16.48,0,0,0,.46,5.89c1.92,7.31,8.23,12,14.1,10.45s9.05-8.72,7.13-16S220.75,186.23,214.89,187.77Z"/>
    <path class="cls-3" d="M241.24,187.84a7.16,7.16,0,0,0-2,2h4a4.84,4.84,0,0,1,2.15,0h.08v0a8.31,8.31,0,0,1,5.19,4.53c2.06,4,1.41,8.84-1.44,10.71s-6.83.11-8.89-3.93a11.13,11.13,0,0,1-1.06-3.23h-1.59a15.43,15.43,0,0,0,1.51,4.77c2.86,5.62,8.39,8.07,12.35,5.47s4.86-9.27,2-14.89S245.21,185.24,241.24,187.84Z"/>
    <path class="cls-3" d="M113.47,199.33l-.15-.08,0,.16Z"/>
    <path class="cls-3" d="M127.09,189.57h0c-.43,0-.85,0-1.27,0,.46.1.92.22,1.34.35C127.13,189.83,127.11,189.7,127.09,189.57Z"/>
    <path class="cls-3" d="M175.66,198.13a46.22,46.22,0,0,1-11.45-3.36,18.57,18.57,0,0,0-2.15-13.94,23.81,23.81,0,0,1,.41,4.4,23.38,23.38,0,0,1-1.39,8l-2,4.07c-3.25,5.21-8.53,8.61-14.51,8.61-5.81,0-11-3.2-14.24-8.15a14.93,14.93,0,0,1-8.22,2.89A16.86,16.86,0,0,1,118.4,209c-3.69,4.8-8.52,7.28-10.78,5.54s-1.11-7,2.58-11.84a22.3,22.3,0,0,1,1.83-2.09,17.52,17.52,0,0,0-5.22,4.2c-4.53,5.29-5.35,12-1.84,15s10,1.14,14.55-4.15a15.65,15.65,0,0,0,4-9.47,22.35,22.35,0,0,0,3.55.29,20.84,20.84,0,0,0,7.26-1.26,18.77,18.77,0,0,0,27.57-5,32.44,32.44,0,0,0,14.16,5.85c14.59,2.33,28.05-5.07,31.22-16.73C201.38,196.54,189.05,200.26,175.66,198.13Z"/>
    <ellipse class="cls-3" cx="215.32" cy="127.89" rx="2.52" ry="6.13"/>
    <ellipse class="cls-3" cx="231.29" cy="127.89" rx="2.52" ry="6.13"/>
    <ellipse class="cls-3" cx="231.29" cy="148.05" rx="12.93" ry="6.16"/>
    <path class="cls-3" d="M238.92,169.46c.53-1.78-.37-3.77-2.21-5.49a20.77,20.77,0,0,1-6.9-1.13,10.48,10.48,0,0,1-2.19,1c0-.23-.06-.46-.11-.69a4.15,4.15,0,0,1-.3.82,22,22,0,0,1-6.29.86c-.84,0-1.66,0-2.45-.12a4.19,4.19,0,0,0,.06.43,17.57,17.57,0,0,1-7.09-5.76,12.2,12.2,0,0,0,3.61,6.43,12.67,12.67,0,0,0,6.2,3.47,16.09,16.09,0,0,0,5.76,3C232.62,174,238,172.7,238.92,169.46Z"/>
    <path class="cls-3" d="M239.65,114.37l4.58,9L246.63,134h4.25l3.22-7.87V117s-2.6-3.94-9.89-4.22S239.65,114.37,239.65,114.37Z"/>
    <path class="cls-3" d="M217.08,108.22c8.27,0,15.47,1.55,19.15,3.84-.85-4.28-9.87-7.64-20.87-7.64-11.57,0-20.95,3.72-20.95,8.31H197C200.26,110.08,208,108.22,217.08,108.22Z"/>
    <path class="cls-3" d="M247,139.8a7,7,0,0,1,2.39.88c4.52,2.73,5.08,10.08,1.25,16.41a17.85,17.85,0,0,1-3.86,4.51,14,14,0,0,0,8.12-5.18c4.14-5.28,4-12.14-.33-15.32A9.11,9.11,0,0,0,247,139.8Z"/>
    <path class="cls-3" d="M130.07,157.21c3.49.46,5.43-.64,8.85-1.13a22.54,22.54,0,0,1,4.15-.2,18.17,18.17,0,0,0,2.69.71,7.66,7.66,0,0,0,3.86,2.64,34.58,34.58,0,0,0,8.32,1.79,8.93,8.93,0,1,0,15-8.27l9.07-4.71v-4.28s-10,3-12.49,4.28c-1.55.8-8-.44-12.64-1.5a19,19,0,0,0-3.34-.8l-1.73-.44-.89.21-.86,0c-4.11,0-7.73,1-9.86,2.55l-.44.1-10.94,6.77c-.82.28-1.83.71-1.8,1.15C127.06,156.8,129.72,157.17,130.07,157.21Z"/>
    <path class="cls-3" d="M174.71,128.23l2.09,5.67s3.1,3.74,4.41,4.28,8.91-.62,8.91-.62l2.69-20.41c-3.31-.31-3-3.22-9.52-4.24a26,26,0,0,0-12.55,1.51l2,6.9Z"/>
</svg>