<?xml version="1.0" encoding="utf-8"?>
<!-- Generator: Adobe Illustrator 20.0.0, SVG Export Plug-In . SVG Version: 6.00 Build 0)  -->
<svg version="1.1" id="Layer_1" xmlns="http://www.w3.org/2000/svg" xmlns:xlink="http://www.w3.org/1999/xlink" x="0px" y="0px"
	 viewBox="0 0 2048 2048" style="enable-background:new 0 0 2048 2048;" xml:space="preserve">
<path d="M1024,258.7c-423.2,0-766.4,343.1-766.4,766.4s343.1,766.4,766.4,766.4s766.4-343.1,766.4-766.4S1447.2,258.7,1024,258.7z
	 M446.1,1025.1c0-320.6,259.9-580.5,580.5-580.5c129.8,0,249.2,43.1,345.9,115.1L561.2,1371C489.2,1274.3,446.1,1154.9,446.1,1025.1
	z M1026.5,1605.6c-122.4,0-235.9-38.1-329.5-102.9l807.2-807.2c64.7,93.6,102.8,207.1,102.8,329.5
	C1607,1345.7,1347.1,1605.6,1026.5,1605.6z"/>
</svg>
