<?xml version="1.0" encoding="utf-8"?>
<!-- Generator: Adobe Illustrator 20.0.0, SVG Export Plug-In . SVG Version: 6.00 Build 0)  -->
<svg version="1.1" id="Layer_1" xmlns="http://www.w3.org/2000/svg" xmlns:xlink="http://www.w3.org/1999/xlink" x="0px" y="0px"
	 viewBox="0 0 2048 2048" style="enable-background:new 0 0 2048 2048;" xml:space="preserve">
<style type="text/css">
	.st0{fill:#E72635;}
</style>
<path d="M1564.2,483.7c-298.4-298.2-782.1-298.2-1080.5,0c-298.4,298.2-298.4,782.1,0,1080.5
	c298.4,298.4,782.3,298.2,1080.5,0C1862.6,1266,1862.6,781.9,1564.2,483.7z M1160.2,507.3l-33.6,703.7H929.4l-33.6-703.7H1160.2z
	 M1028,1638.6c-82.9,0-150.1-67.2-150.1-150.1c0-82.9,67.2-150.1,150.1-150.1s150.1,67.2,150.1,150.1
	C1178,1571.4,1110.9,1638.6,1028,1638.6z"/>
</svg>
