<?xml version="1.0" encoding="utf-8"?>
<!-- Generator: Adobe Illustrator 20.0.0, SVG Export Plug-In . SVG Version: 6.00 Build 0)  -->
<svg version="1.1" id="Layer_1" xmlns="http://www.w3.org/2000/svg" xmlns:xlink="http://www.w3.org/1999/xlink" x="0px" y="0px"
	 viewBox="0 0 2048 2048" style="enable-background:new 0 0 2048 2048;" xml:space="preserve">
<path d="M1453.7,748.2h-243.9l-114.7,357.5c-56.9-20.2-109-52.9-152.9-96.8c-77.7-77.6-120.5-180.7-120.5-290.4v-48.1h381V515.6
	h-381V257.9H645v257.7H257.4v154.8H645v48.1c0,109.7-42.8,212.9-120.5,290.4c-70.5,70.4-162.1,112.1-260.6,119.2v170.4
	c67.8-3.4,133.6-18.5,196.1-44.9c69.3-29.3,131.4-71.1,184.8-124.4c34.3-34.3,63.9-72.1,88.4-113.2c24.5,41.1,54.1,78.9,88.4,113.2
	c53.4,53.3,115.6,95.2,184.8,124.4c12.1,5.1,24.2,9.8,36.5,14l-169,526.5h197.3l90.1-296.4h332.5l94.8,296.4H1794L1453.7,748.2z
	 M1192.7,1353.4l80.8-257.6c18.6-62.1,34.2-135,49.7-195.5h3.1c15.5,60.5,32.6,131.9,52.8,195.5l82.4,257.6H1192.7z"/>
</svg>
