<?xml version="1.0" encoding="utf-8"?>
<!-- Generator: Adobe Illustrator 20.0.0, SVG Export Plug-In . SVG Version: 6.00 Build 0)  -->
<svg version="1.1" id="Layer_1" xmlns="http://www.w3.org/2000/svg" xmlns:xlink="http://www.w3.org/1999/xlink" x="0px" y="0px"
	 viewBox="0 0 2048 2048" style="enable-background:new 0 0 2048 2048;" xml:space="preserve">
<g>
	<rect x="258.5" y="258.5" width="339.6" height="339.6"/>
	<path d="M823.8,768.8c-249.9,0-452.4,202.5-452.4,452.4c0,89.9,26.5,173.3,71.6,243.7l-178.1,178c-12.5,12.6-12.5,33.2,0.1,45.7
		l91.5,91.4c12.5,12.6,33.1,12.6,45.7,0l178-178.1c70.3,45.1,153.9,71.6,243.7,71.6c249.9,0,452.4-202.5,452.4-452.4
		C1276.2,971.3,1073.7,768.8,823.8,768.8z M823.8,1544.4c-178.2,0-323.2-145-323.2-323.2c0-178.2,145-323.2,323.2-323.2
		c178.2,0,323.2,145,323.2,323.2C1146.9,1399.4,1002,1544.4,823.8,1544.4z"/>
	<rect x="1452.8" y="258.5" width="339.6" height="339.6"/>
	<rect x="856.8" y="258.5" width="339.6" height="339.6"/>
	<rect x="1452.8" y="1449.9" width="339.6" height="339.6"/>
	<rect x="1452.8" y="860.3" width="339.6" height="339.6"/>
</g>
</svg>
