<svg xmlns="http://www.w3.org/2000/svg" viewBox="0 0 872.64 320.29"><defs><style>.a{fill:#fff;stroke:#e0e0e5;}.b{fill:none;stroke:#c6c6c6;stroke-miterlimit:10;}.c{fill:#d8d8d8;}.d{fill:#ddd;}.e{fill:#ededed;}</style></defs><title>AP-401-page-analyticsv-4</title><rect class="a" x="43.79" y="50.8" width="786.51" height="249.35"/><line class="b" x1="44.32" y1="86.29" x2="827.32" y2="86.29"/><line class="b" x1="44.32" y1="128.29" x2="833.32" y2="128.29"/><line class="b" x1="44.32" y1="172.29" x2="833.32" y2="172.29"/><line class="b" x1="44.32" y1="215.29" x2="833.32" y2="215.29"/><line class="b" x1="44.32" y1="258.29" x2="833.32" y2="258.29"/><rect class="c" x="363.88" y="64.31" width="111.62" height="9.58"/><rect class="c" x="69.23" y="64.31" width="111.62" height="9.58"/><rect class="d" x="74.54" y="102.5" width="84.6" height="9.75"/><rect class="d" x="198.94" y="102.5" width="95.8" height="9.75"/><rect class="d" x="369.44" y="102.5" width="76.75" height="9.58"/><rect class="d" x="496.26" y="102.5" width="76.75" height="9.58"/><rect class="d" x="617.35" y="102.5" width="71.79" height="9.58"/><rect class="d" x="730.47" y="102.5" width="68.66" height="9.58"/><rect class="e" x="74.54" y="145.5" width="65.73" height="9.58"/><rect class="e" x="198.94" y="145.5" width="72.58" height="9.58"/><rect class="e" x="369.44" y="145.5" width="39.38" height="9.58"/><rect class="e" x="496.26" y="145.5" width="66.84" height="9.58"/><rect class="e" x="617.35" y="145.5" width="32.32" height="9.58"/><rect class="e" x="730.47" y="145.5" width="54.58" height="9.58"/><rect class="e" x="74.54" y="189" width="76.75" height="9.58"/><rect class="e" x="198.94" y="189" width="76.75" height="9.58"/><rect class="e" x="369.44" y="189" width="51.09" height="9.58"/><rect class="e" x="496.26" y="189" width="58.67" height="9.58"/><rect class="e" x="617.35" y="189" width="35.89" height="9.58"/><rect class="e" x="730.47" y="189" width="60.66" height="9.58"/><rect class="e" x="74.54" y="232" width="63.24" height="9.58"/><rect class="e" x="198.94" y="232" width="61.42" height="9.58"/><rect class="e" x="369.44" y="232" width="37.32" height="9.58"/><rect class="e" x="496.26" y="232" width="66.84" height="9.58"/><rect class="e" x="617.35" y="232" width="29.37" height="9.58"/><rect class="e" x="730.47" y="232" width="45.92" height="9.58"/><rect class="c" x="198.94" y="275.6" width="72.58" height="9.58"/><rect class="c" x="369.44" y="275.6" width="67.43" height="9.58"/><rect class="c" x="496.26" y="275.6" width="72.28" height="9.58"/><rect class="c" x="617.35" y="275.6" width="47.57" height="9.58"/><rect class="c" x="730.47" y="275.6" width="70.71" height="9.58"/><line class="b" x1="334.32" y1="50.8" x2="334.32" y2="300.29"/><rect class="c" x="719.58" y="20" width="111.62" height="9.58"/></svg>