<?xml version="1.0" encoding="utf-8"?>
<!-- Generator: Adobe Illustrator 20.0.0, SVG Export Plug-In . SVG Version: 6.00 Build 0)  -->
<svg viewBox="0 0 2048 2048">
<g>
	<path d="M692.1,255.3c-0.2,0-0.4,0-0.7,0c-0.1,0-0.1,0-0.2,0c-3.3,0-6.6,0.1-9.8,0.4c-112.3,8.2-202.1,129.6-202.8,277.5
		c0,3.8,0,7.5,0.1,11.3l-0.2,0l1.4,27.4c0.1,13.3,0.8,29,2.5,47.6l1.6,31.2c0.3,8.9,26.5,166.5,45.9,283.6l313.4-7.8
		c17.7-155.2,59.5-384.1,59.5-384.1l0.2-1.3l-0.2,0c0.1-3.7,0.2-7.5,0.2-11.3C903.9,377.2,809.4,254.3,692.1,255.3z"/>
	<path d="M841.3,1151.6c0.3-1.8,0.5-3.7,0.4-5.6l-5.6-101.4c-0.3-4.2-0.3-9.7-0.3-15L547,1037c2.2,13.6,3.6,22.5,3.7,23.5l5.6,101.4
		c0.1,2.1,0.5,4.1,1.2,6.1c-0.3,4.3-0.4,8.6-0.1,13c3.7,66.5,70.6,116.8,149.5,112.5c78.9-4.3,139.9-61.7,136.2-128.2
		C842.7,1160.6,842.2,1156.1,841.3,1151.6z"/>
	<path d="M1390.3,786.3c-3.1-1.1-6.2-2-9.4-2.9c-0.1,0-0.1-0.1-0.1-0.1c-0.3-0.1-0.5-0.1-0.7-0.2c-113.3-30.2-235.5,65.1-273,213
		c-0.9,3.7-1.8,7.3-2.6,11l-0.2,0l-0.1,1.4c0,0-16.7,232.1-38.3,386.8l301.5,85.9c48.1-108.6,112.8-254.6,115.3-263.1l9.3-29.8
		c6.2-17.6,10.9-32.6,14.3-45.4l8.2-26.2l-0.2-0.1c1-3.6,2-7.2,3-10.9C1553.6,962.4,1497,822.3,1390.3,786.3z"/>
	<path d="M1043.4,1511.7l-30.7,96.8c-0.6,1.8-0.9,3.6-1,5.5c-1.9,4.1-3.6,8.3-5,12.7c-20.1,63.4,24.6,134.3,99.9,158.2
		c75.3,23.9,152.7-8.1,172.9-71.6c1.3-4.2,2.4-8.4,3.2-12.7c1.1-1.7,2-3.6,2.7-5.6l30.7-96.8c0.3-1,3.9-9.2,9.4-21.8l-277.9-79.2
		C1046,1502.3,1044.7,1507.7,1043.4,1511.7z"/>
</g>
</svg>
