<?xml version="1.0" standalone="no"?>
<!DOCTYPE svg PUBLIC "-//W3C//DTD SVG 1.1//EN" "http://www.w3.org/Graphics/SVG/1.1/DTD/svg11.dtd" >
<svg xmlns="http://www.w3.org/2000/svg">
<metadata>
This is a custom SVG webfont generated by Font Squirrel.
Copyright   : Generated in 2010 by FontLab Studio Copyright info pending
Designer    : Campivisivi
Foundry     : Campivisivi
</metadata>
<defs>
<font id="webfontPWC81Gzt" horiz-adv-x="1083" >
<font-face units-per-em="2048" ascent="1536" descent="-512" />
<missing-glyph horiz-adv-x="479" />
<glyph unicode=" "  horiz-adv-x="479" />
<glyph unicode="&#x09;" horiz-adv-x="479" />
<glyph unicode="&#xa0;" horiz-adv-x="479" />
<glyph unicode="!" d="M428 1434h256l-8 -920h-240zM430 0v305h252v-305h-252z" />
<glyph unicode="&#x22;" horiz-adv-x="694" d="M74 1417h227l-8 -491h-215zM408 1417h225l-8 -491h-213z" />
<glyph unicode="#" d="M6 348v197h207v266h-207v197h207v348h205v-348h248v348h204v-348h207v-197h-207v-266h207v-197h-207v-348h-204v348h-248v-348h-205v348h-207zM418 545h248v266h-248v-266z" />
<glyph unicode="$" d="M78 1026q0 199 129 299q131 102 356 102h21l26 207h138l-29 -217l264 -41l-18 -213q-55 6 -275 27l-49 -385q217 -66 293 -146q80 -82 80 -256q0 -215 -127 -317q-131 -106 -350 -109l-31 -239q-137 6 -137 14l28 234q-150 16 -291 45l25 213q160 -23 297 -31l51 397 q-223 59 -311 148q-90 90 -90 268zM313 1030q0 -74 41 -110q40 -37 154 -74l45 350q-240 -3 -240 -166zM565 209q111 6 160 49t49 139q0 68 -37 105q-41 41 -125 69z" />
<glyph unicode="%" d="M14 1145q0 291 248 291t248 -293q0 -139 -61.5 -217t-186.5 -78q-248 0 -248 297zM115 98l753 1327l121 -79l-751 -1328zM188 1145q0 -88 15 -119q16 -35 59 -35q41 0 57 35q16 37 16.5 117t-16.5 117q-14 33 -57 32q-45 0 -59 -32q-15 -31 -15 -115zM584 299 q0 293 247 293q250 0 250 -293q0 -295 -250 -295q-247 0 -247 295zM760 299q0 -86 14 -117q16 -35 57 -35t58 35q16 37 16 117q0 84 -14 115q-14 33 -60 32q-43 0 -57 -32q-14 -31 -14 -115z" />
<glyph unicode="&#x26;" horiz-adv-x="1431" d="M76 410q0 273 295 417q-61 78 -84 142q-20 55 -21 157q0 154 107 240q111 88 289 88q197 0 297 -88t100 -258q0 -137 -64 -225q-61 -86 -221 -189l205 -207q43 164 51 250l227 -4q-31 -213 -96 -393l240 -225l-141 -158l-222 199q-113 -102 -217 -150q-106 -47 -260 -47 q-225 0 -356 119q-129 117 -129 332zM317 412q0 -111 68 -172.5t184 -61.5q94 0 156 27q66 29 137 96l-348 365q-197 -92 -197 -254zM502 1094q0 -117 90 -213l39 -39q98 59 147 114q43 49 43 127q0 152 -159.5 152t-159.5 -141z" />
<glyph unicode="'" horiz-adv-x="202" d="M-20 1417h227l-10 -495h-213z" />
<glyph unicode="(" horiz-adv-x="530" d="M31 616q0 181 49 412q47 223 98 369l51 139h254q-39 -109 -55 -158q-29 -92 -86 -346q-53 -238 -53 -416q0 -341 178 -829l16 -43h-254l-55 139q-31 82 -88 320q-55 231 -55 413z" />
<glyph unicode=")" horiz-adv-x="530" d="M31 -256q51 139 55 152q23 68 84 333q55 238 55 408t-49 395q-51 238 -96 365l-49 139h254l55 -147q31 -84 88 -332q55 -240 55 -420q0 -181 -49 -405.5t-98 -356.5l-51 -131h-254z" />
<glyph unicode="*" d="M227 938l217 160l-211 153l84 115l207 -147l84 245l135 -45l-77 -254h256v-135h-258l79 -250l-133 -39l-84 250l-213 -162z" />
<glyph unicode="+" horiz-adv-x="1034" d="M6 473v213h406v404h213v-404h409v-213h-409v-407h-213v407h-406z" />
<glyph unicode="," horiz-adv-x="346" d="M10 -252l103 512h252l-121 -512h-234z" />
<glyph unicode="-" horiz-adv-x="899" d="M139 461v229h623v-229h-623z" />
<glyph unicode="." horiz-adv-x="505" d="M115 0v305h252v-305h-252z" />
<glyph unicode="/" d="M137 37l576 1429l223 -77l-576 -1428z" />
<glyph unicode="0" d="M25 664q0 379 131 546q129 166 385 166q258 0 387 -166t129 -546q0 -372 -129 -529q-129 -158 -387 -158q-256 0 -385 156q-131 160 -131 531zM283 664q0 -258 59 -359q59 -98 201 -98q139 0 198 96q57 94 58 361q0 274 -58 376q-57 104 -198.5 104.5t-200.5 -104.5 q-59 -106 -59 -376z" />
<glyph unicode="1" d="M82 1061l438 291h225v-1352h-241v1071l-309 -203z" />
<glyph unicode="2" d="M109 0v221l317 320q111 111 156 161q46 52 86 123q39 70 39 140q0 94 -57.5 133t-188.5 39q-137 0 -328 -35l-16 221q217 53 401 53q223 0 329.5 -94t106.5 -285q0 -151 -61 -258q-63 -111 -219 -266l-244 -242h551v-231h-872z" />
<glyph unicode="3" d="M96 25l25 217q224 -31 393 -31q240 0 240 184q0 174 -224 176h-274v220h272q76 0 136 57q61 57 61 127q0 168 -227 168q-84 0 -164 -8q-35 -4 -85 -10.5t-59 -6.5l-53 -6l-22 211q231 53 399 53q254 0 356 -88q104 -88 105 -278q0 -78 -31 -140q-33 -68 -61 -92 q-41 -37 -82 -63q102 -49 151 -113q49 -66 49 -201q0 -215 -108 -319q-106 -104 -346 -105q-215 1 -451 48z" />
<glyph unicode="4" d="M49 215v197l352 940h267l-344 -906h331v416h242v-416h139v-231h-139v-231h-242v231h-606z" />
<glyph unicode="5" d="M82 41l27 215q258 -49 432 -49q100 0 161 61q59 59 60 162q0 203 -221 203q-59 0 -121 -12q-72 -14 -92 -23l-33 -12l-186 39l43 729h813v-232h-596l-33 -313q139 49 229 49q219 0 332 -100.5t113 -315.5q0 -225 -119 -344q-121 -121 -340 -121q-86 0 -211 17 q-90 12 -186 33z" />
<glyph unicode="6" d="M53 674q0 378 142 540q141 162 409 162q66 0 174 -10q61 -6 160 -20l59 -11l-20 -221q-207 29 -373 29q-303 0 -303 -344l45 14q43 14 119 30.5t121 16.5q461 0 461 -432q0 -223 -127 -336q-131 -115 -361 -115q-506 1 -506 697zM299 590q4 -387 260 -387q240 0 240 225 q0 211 -234 211q-125 -6 -266 -49z" />
<glyph unicode="7" d="M104 1122v232h857v-285l-500 -1102l-223 64l475 1042v49h-609z" />
<glyph unicode="8" d="M39 344q0 92 24 160q23 61 64 106q39 43 104 90q-96 66 -133 133.5t-37 180.5q0 172 132 266q133 96 356 96q221 0 358 -96t137 -268q0 -121 -36 -183q-39 -66 -138 -129q100 -70 147.5 -139t47.5 -194q0 -203 -143 -297q-141 -92 -373 -93q-510 0 -510 367zM297 397 q0 -190 252 -190q258 0 258 194q0 125 -162 181h-190q-158 -54 -158 -185zM319 977q0 -115 136 -182h190q141 70 141 182q0 168 -233.5 168t-233.5 -168z" />
<glyph unicode="9" d="M43 924q0 215 131 333.5t356 118.5q508 0 508 -696q0 -383 -141 -543t-412 -160q-88 0 -176 9q-57 6 -157 20l-62 10l23 217q207 -29 372 -28q152 0 230 90q76 88 76 254l-48 -12q-57 -16 -118 -29q-66 -14 -123 -14q-219 0 -340 108q-119 107 -119 322zM293 924 q0 -211 229 -211q53 0 121 12q74 14 109 27l41 12q-4 180 -66 280q-65 104 -197 105q-109 0 -174 -59q-63 -57 -63 -166z" />
<glyph unicode=":" horiz-adv-x="432" d="M88 0v305h254v-305h-254zM88 614v306h254v-306h-254z" />
<glyph unicode=";" horiz-adv-x="462" d="M23 -236l116 529h254l-153 -529h-217zM123 614v306h252v-306h-252z" />
<glyph unicode="&#x3c;" d="M129 508v246l711 391v-246l-482 -264l482 -275v-245q-88 45 -359 196z" />
<glyph unicode="=" d="M51 262v213h961v-213h-961zM51 686v213h961v-213h-961z" />
<glyph unicode="&#x3e;" d="M129 115v245l481 275l-481 264v246l711 -391v-246l-353 -197q-270 -151 -358 -196z" />
<glyph unicode="?" horiz-adv-x="788" d="M12 1403q231 57 348 57q238 0 344.5 -88t106.5 -301q0 -94 -39 -182q-37 -84 -90 -131q-74 -66 -111 -92q-55 -41 -94 -82q-37 -39 -37 -84v-78h-252v84q0 76 37 137q35 59 94 105l107 79q55 43 90 95q39 57 39 120q0 92 -41 134q-39 39 -164 38q-98 0 -309 -40zM188 0 v305h252v-305h-252z" />
<glyph unicode="@" horiz-adv-x="2015" d="M90 535q0 481 250 718q248 236 692 236q895 0 895 -864v-35q0 -342 -94 -475q-95 -135 -289 -135q-184 0 -256 96q-186 -94 -325 -94q-180 0 -278.5 116.5t-98.5 397.5q0 268 88 409q86 137 311 137q31 0 82 -12q70 -16 88 -22l37 -13v29h233v-410q0 -203 11 -274 q12 -84 34 -111q22 -25 74 -24q82 0 115 74q33 72 33 311v37q0 340 -156 489q-152 145 -504 146q-707 0 -706 -727q0 -401 161 -566q164 -166 545 -166l293 19l10 -225q-197 -20 -303 -21q-240 0 -405 45q-164 45 -291 156q-125 109 -186 297q-60 180 -60 461zM823 496 q0 -162 39 -222q41 -63 117 -63q98 0 229 49q-16 94 -16 256v279q-98 27 -158 26q-129 0 -170 -67q-41 -70 -41 -258z" />
<glyph unicode="A" horiz-adv-x="1236" d="M47 0l338 1417h473l334 -1417h-242l-78 279h-514l-69 -279h-242zM410 510h415l-157 686h-97z" />
<glyph unicode="B" horiz-adv-x="1245" d="M158 0v1417h532q430 0 430 -356q0 -133 -39 -211q-37 -74 -125 -123q100 -39 147.5 -114.5t47.5 -213.5q0 -399 -446 -399h-547zM395 221h297q106 0 158 45q53 47 53 152q0 186 -215 186h-293v-383zM395 821h289q188 0 188 199q0 90 -47 133q-46 43 -147 43h-283v-375z " />
<glyph unicode="C" horiz-adv-x="1093" d="M90 707q0 396 117 565q117 168 409 168q80 0 181 -13q92 -10 161 -28l62 -15l-8 -210q-240 31 -363 30q-182 0 -248 -104q-63 -102 -63 -393q0 -279 63 -388q63 -106 256 -106q57 0 138 8q141 14 153 17l64 8l6 -217q-236 -51 -402 -52q-307 0 -417 173 q-109 168 -109 557z" />
<glyph unicode="D" horiz-adv-x="1290" d="M158 0v1417h477q169 0 283 -43q113 -43 174 -135q66 -96 88 -211q25 -120 24 -295q0 -184 -24 -309q-25 -131 -84 -227q-61 -100 -174 -150q-109 -47 -287 -47h-477zM395 229h240q106 0 168 35q66 37 98 109q29 63 43 155q12 82 12 205q0 238 -63 348q-61 106 -258 107 h-240v-959z" />
<glyph unicode="E" horiz-adv-x="1138" d="M158 0v1417h884v-229h-647v-371h525v-225h-525v-363h647v-229h-884z" />
<glyph unicode="F" horiz-adv-x="1110" d="M158 0v1417h884v-229h-647v-457h525v-227h-525v-504h-237z" />
<glyph unicode="G" horiz-adv-x="1224" d="M90 711q0 387 125 557q126 172 430 172q221 0 477 -58l-6 -208q-242 33 -436 32q-201 0 -272 -106q-70 -102 -70 -389q0 -285 68 -392q68 -109 268 -108q8 0 28.5 1t30.5 1q39 0 55 2q8 0 23.5 1t24.5 3q29 4 34 4l15 2v301h-162v215h399v-716q-299 -47 -469 -48 q-317 0 -440 181t-123 553z" />
<glyph unicode="H" horiz-adv-x="1378" d="M158 0v1417h239v-581h586v581h242v-1417h-242v604h-586v-604h-239z" />
<glyph unicode="I" horiz-adv-x="546" d="M154 0v1417h241v-1417h-241z" />
<glyph unicode="J" horiz-adv-x="636" d="M63 80q100 0 140 33q41 35 41 135v1169h239v-592q0 -137 1 -334.5t1 -259.5q0 -225 -94 -300.5t-328 -75.5v225z" />
<glyph unicode="K" horiz-adv-x="1214" d="M158 0v1417h239v-622l201 16l274 606h277l-336 -706l350 -711h-280l-281 580l-205 -17v-563h-239z" />
<glyph unicode="L" horiz-adv-x="1013" d="M158 0v1417h239v-1186h549v-231h-788z" />
<glyph unicode="M" horiz-adv-x="1736" d="M158 0v1417h391l321 -1077l322 1077h389v-1417h-242v1118h-28l-318 -1061h-245l-320 1061h-31v-1118h-239z" />
<glyph unicode="N" horiz-adv-x="1427" d="M158 0v1417h389l450 -1118h35v1118h242v-1417h-379l-463 1118h-35v-1118h-239z" />
<glyph unicode="O" horiz-adv-x="1320" d="M90 698q0 377 127 559.5t444.5 182.5t444.5 -182.5t127 -559.5q0 -375 -127 -548q-127 -172 -444 -173q-319 0 -445 175q-127 175 -127 546zM338 698.5q0 -264.5 67.5 -377t256 -112.5t256 112.5t67.5 377t-67.5 387t-256 122.5t-256 -122.5t-67.5 -387z" />
<glyph unicode="P" horiz-adv-x="1220" d="M158 0v1417h514q481 0 481 -481q0 -248 -121 -377q-123 -131 -360 -131h-275v-428h-239zM397 659h273q238 0 237 277q0 250 -237 250h-273v-527z" />
<glyph unicode="Q" horiz-adv-x="1320" d="M90 698q0 377 127 559.5t444.5 182.5t444.5 -182.5t127 -559.5q0 -248 -49 -401.5t-168 -230.5l168 -275l-221 -102l-185 297q-41 -8 -116 -9q-315 0 -445 175q-127 171 -127 546zM338 698.5q0 -264.5 67.5 -377t256 -112.5t256 112.5t67.5 377t-67.5 387t-256 122.5 t-256 -122.5t-67.5 -387z" />
<glyph unicode="R" horiz-adv-x="1261" d="M158 0v1417h534q244 0 363 -108q117 -109 116 -348q0 -297 -223 -408l223 -553h-264l-194 483h-316v-483h-239zM397 713h299q227 0 228 243q0 231 -232 232h-295v-475z" />
<glyph unicode="S" horiz-adv-x="1085" d="M72 1036q0 199 129 303q127 102 362 103q68 0 176 -12q102 -12 176 -25l72 -14l-18 -215q-276 33 -406 32q-252 0 -252 -168q0 -86 60 -127q57 -39 247 -92q225 -66 314 -151q86 -84 86 -262q0 -215 -129 -322q-131 -109 -354 -109q-68 0 -177 13q-72 8 -182 26l-74 15 l25 215q268 -35 405 -35q123 0 185 45q59 43 59 145q0 80 -55 123q-57 45 -215 84q-240 61 -336 152q-98 92 -98 276z" />
<glyph unicode="T" horiz-adv-x="989" d="M-16 1186v231h1024v-231h-390v-1186h-241v1186h-393z" />
<glyph unicode="U" horiz-adv-x="1306" d="M135 457v960h242v-960q0 -129 72 -185q71 -55 202 -55q133 0 207 55.5t74 184.5v960h242v-960q0 -249 -130 -363q-127 -113 -393 -112q-260 0 -387 112q-129 114 -129 363z" />
<glyph unicode="V" horiz-adv-x="1239" d="M47 1417h252l272 -1188h99l272 1188h252l-342 -1417h-465z" />
<glyph unicode="W" horiz-adv-x="1896" d="M57 1417h252l230 -1171h41l233 1167h272l238 -1167h39l227 1171h252l-311 -1417h-375l-207 1061l-203 -1061h-374z" />
<glyph unicode="X" horiz-adv-x="1187" d="M41 0l397 702l-397 715h268l287 -528l285 528h268l-391 -715l391 -702h-268l-285 520l-287 -520h-268z" />
<glyph unicode="Y" horiz-adv-x="1155" d="M27 1417h268l285 -543l282 543h268l-428 -813v-604h-241v606z" />
<glyph unicode="Z" horiz-adv-x="1165" d="M123 0v246l616 905v35h-616v231h921v-246l-616 -907v-33h616v-231h-921z" />
<glyph unicode="[" horiz-adv-x="612" d="M66 1534h489v-229h-248v-1328h248v-229h-487z" />
<glyph unicode="\" horiz-adv-x="1112" d="M94 1370l260 115l643 -1436l-258 -108z" />
<glyph unicode="]" horiz-adv-x="612" d="M66 -23h249v1328h-249v229h489l-2 -1786h-487v229z" />
<glyph unicode="^" d="M51 649l367 703h246l370 -703h-248l-243 471l-246 -471h-246z" />
<glyph unicode="_" horiz-adv-x="1062" d="M55 10h877v-213h-877v213z" />
<glyph unicode="`" horiz-adv-x="524" d="M-25 1362l74 207l500 -189l-68 -184z" />
<glyph unicode="a" horiz-adv-x="1075" d="M88 305q0 156 84 227.5t258 83.5l254 21v61q0 59 -35 90q-37 33 -92 33q-68 0 -166 -6q-27 -2 -164 -8l-65 -4l-8 198q258 45 415 46q178 0 262 -82q86 -84 87 -265v-421q4 -53 20 -74q16 -18 63 -29l-8 -199q-109 0 -168 17q-53 14 -106 55q-178 -72 -334 -72 q-143 0 -219 86q-78 88 -78 242zM324 311q0 -133 104 -133t256 41v236l-225 -13q-135 -12 -135 -131z" />
<glyph unicode="b" horiz-adv-x="1112" d="M152 4v1442h233v-455q139 55 248 56q211 0 305 -119t94 -404q0 -313 -110.5 -430t-389.5 -117q-116 0 -380 27zM385 199q90 -10 145 -11q158 0 211 74q53 76 54 262q0 164 -47 236q-45 70 -146 69q-20 0 -94 -8q-53 -6 -88 -12l-35 -8v-602z" />
<glyph unicode="c" horiz-adv-x="890" d="M82 524q0 274 102 400q102 123 328 123q59 0 127 -9q47 -6 131 -20l53 -10l-8 -203q-163 18 -240 18q-152 0 -204 -65q-51 -63 -52 -234q0 -190 49.5 -257.5t209.5 -67.5l239 18l6 -203q-209 -37 -317 -37q-233 0 -328 125q-96 127 -96 422z" />
<glyph unicode="d" horiz-adv-x="1120" d="M82 518q0 272 104 402q102 127 322 127q102 0 229 -27v414h236v-1434h-236v49q-147 -72 -266 -72q-205 0 -297 125q-92 127 -92 416zM319 516q0 -178 46 -248q47 -72 143 -73q104 4 229 45v575l-4 1q-4 1 -13 2t-20 1l-86 10q-33 4 -90 5q-106 0 -155.5 -74t-49.5 -244z " />
<glyph unicode="e" horiz-adv-x="1036" d="M82 500q0 547 444 547q436 0 437 -467l-17 -168h-629q4 -119 54 -168q53 -53 176 -54q162 0 377 19l4 -182q-233 -49 -416 -50q-229 0 -329.5 125.5t-100.5 397.5zM317 594h414q0 131 -47 188q-45 55 -158 56q-111 0 -159 -58q-50 -59 -50 -186z" />
<glyph unicode="f" horiz-adv-x="694" d="M43 811v211h117v63q0 221 63 299q66 82 228 82l223 -22l-2 -193q-131 4 -162 4q-68 0 -92.5 -36.5t-24.5 -135.5v-61h264v-211h-264v-811h-233v811h-117z" />
<glyph unicode="g" horiz-adv-x="1085" d="M80 -182q0 78 37 133q39 59 114 117q-68 47 -67 149q0 49 76 162q-147 92 -148 307q0 184 113 270q117 88 301 88q40 0 92 -6q31 -4 84 -14l33 -6l311 6v-190h-147q43 -58 43 -148q0 -205 -100.5 -280.5t-319.5 -75.5q-55 0 -90 8q-25 -63 -25 -92q0 -46 37 -62 q35 -14 178 -14q244 0 338 -66q92 -63 92 -241q0 -180 -131 -269q-129 -86 -346 -86q-250 0 -360 66q-115 68 -115 244zM311 -158q0 -68 56 -94q57 -29 190 -29q238 0 238 131q0 76 -41 95q-43 20 -170 22l-199 13q-74 -66 -74 -138zM328 686q0 -86 39 -123q40 -37 135 -37 q102 0 143 35q45 39 45 125q0 89 -43 123q-45 35 -143 35t-135 -35q-41 -37 -41 -123z" />
<glyph unicode="h" horiz-adv-x="1148" d="M152 0v1454h233v-467q166 59 274 60q205 0 281 -119t76 -391v-537h-236v535q0 160 -32 225q-35 68 -134 67q-47 0 -98 -8q-78 -12 -94 -16l-37 -10v-793h-233z" />
<glyph unicode="i" horiz-adv-x="524" d="M147 0v1022h234v-1022h-234zM147 1188v248h234v-248h-234z" />
<glyph unicode="j" horiz-adv-x="536" d="M-68 -301q141 84 187 139q41 49 41 174v1010h233v-1012q0 -201 -71 -301q-70 -98 -285 -205zM160 1202v248h233v-248h-233z" />
<glyph unicode="k" horiz-adv-x="1044" d="M152 0v1446h233v-819l123 16l235 379h263l-289 -479l301 -543h-264l-242 414l-127 -17v-397h-233z" />
<glyph unicode="l" horiz-adv-x="528" d="M150 0v1446h233v-1446h-233z" />
<glyph unicode="m" horiz-adv-x="1744" d="M152 0v1022h231v-55q92 49 178 63q59 14 107 14q154 -6 229 -86q225 88 356 89q205 0 281 -117q76 -115 76 -395v-535h-234v442q0 233 -26 308q-29 78 -142 77q-45 0 -100 -12q-53 -12 -88 -24q-33 -12 -35 -15q14 -31 14 -246v-530h-233v526q0 168 -33 238 q-31 63 -135 63q-41 0 -94 -12q-68 -16 -86 -22l-33 -13v-780h-233z" />
<glyph unicode="n" horiz-adv-x="1150" d="M152 0v1022h233v-51q160 76 274 76q205 0 281 -119t76 -393v-535h-234v532q0 160 -32 226q-35 70 -136 69q-40 0 -98 -12q-72 -14 -94 -22l-37 -13v-780h-233z" />
<glyph unicode="o" horiz-adv-x="1081" d="M82 516q0 262 106 395q106 135 355 136q244 0 352 -136q106 -133 106 -395t-104 -401q-104 -137 -354 -138q-252 0 -356.5 135.5t-104.5 403.5zM319 516q0 -176 45.5 -252t178.5 -76q131 0 176 76t45 252q0 164 -49 242q-49 76 -172 76q-127 0 -176 -74q-48 -72 -48 -244 z" />
<glyph unicode="p" horiz-adv-x="1114" d="M152 -438v1460h233v-55q139 80 256 80q203 0 299 -121q94 -119 94 -404q0 -309 -108 -428q-108 -117 -351 -117q-98 0 -190 19v-434h-233zM385 203q55 -14 174 -15q133 0 186 74q51 72 52 260q0 166 -49.5 237.5t-149.5 71.5q-88 0 -213 -53v-575z" />
<glyph unicode="q" horiz-adv-x="1095" d="M82 498q0 266 108 409q106 139 359 140q53 0 151.5 -6.5t171.5 -12.5l76 -6v-1462h-235v452q-74 -35 -185 -35q-238 0 -342 132q-104 133 -104 389zM317 498q0 -309 211 -310q37 0 88 11q47 10 70 20l27 12v598q-72 4 -164 5q-123 0 -178 -82q-54 -80 -54 -254z" />
<glyph unicode="r" horiz-adv-x="733" d="M152 0v1022h233v-109q131 98 309 134v-250q-186 -37 -309 -107v-690h-233z" />
<glyph unicode="s" horiz-adv-x="1009" d="M102 723q0 164 111 244t276 80q143 0 390 -48l-5 -198q-238 33 -368 33q-94 0 -131 -23q-39 -25 -39 -82q0 -49 41 -67q37 -16 172 -39q207 -35 282 -101q78 -68 78 -217q0 -328 -407 -328q-80 0 -160 11q-129 16 -160 22l-63 13l8 198q242 -33 352.5 -33t153.5 25t43 86 q0 49 -37 70q-33 18 -160 41q-211 35 -293 98q-84 65 -84 215z" />
<glyph unicode="t" horiz-adv-x="722" d="M39 811v211h129v297h233v-297h277v-211h-277v-418q0 -121 17 -155q18 -39 90 -39l166 6l10 -201q-143 -29 -209 -29q-178 0 -242 82q-66 84 -65 303v451h-129z" />
<glyph unicode="u" horiz-adv-x="1144" d="M137 487v535h234v-533q0 -176 28 -239q27 -61 140 -62q41 0 96 13q68 14 90 22l37 13v786h233v-1022h-233v51q-160 -74 -270 -74q-213 0 -283 113q-72 114 -72 397z" />
<glyph unicode="v" horiz-adv-x="987" d="M27 1022h243l195 -827h61l199 827h238l-263 -1022h-413z" />
<glyph unicode="w" horiz-adv-x="1538" d="M35 1022h231l152 -811h45l184 793h246l184 -793h45l152 811h231l-209 -1022h-378l-150 684l-150 -684h-374z" />
<glyph unicode="x" horiz-adv-x="950" d="M33 0l291 510l-291 512h250l192 -344l195 344h250l-293 -512l293 -510h-250l-195 342l-192 -342h-250z" />
<glyph unicode="y" horiz-adv-x="989" d="M27 1022h231l211 -795h53l211 795h232l-381 -1458h-232l113 436h-172z" />
<glyph unicode="z" horiz-adv-x="976" d="M109 0v211l479 602h-479v211h759v-211l-477 -602h477v-211h-759z" />
<glyph unicode="{" horiz-adv-x="669" d="M39 541v196q109 27 156 74q41 41 41 123q0 27 -7 125q-8 131 -8 137q0 190 98 270q96 78 328 88l2 -229q-111 -10 -143 -39q-33 -31 -33 -106q0 -35 6 -133q2 -25 4 -55.5t3 -47t1 -24.5q0 -125 -45 -183q-47 -59 -159 -96q113 -37 159 -102q45 -63 45 -189q0 -2 -8 -117 q-6 -86 -6 -120q0 -78 35 -113q31 -31 141 -41l-2 -229q-224 9 -325 92q-100 82 -101 262q0 10 8 133q6 92 7 115q0 80 -43 129t-154 80z" />
<glyph unicode="|" d="M412 -401v1917h241v-1917h-241z" />
<glyph unicode="}" horiz-adv-x="669" d="M39 -41q111 10 141 41q35 35 35 113q0 35 -6 120q-8 115 -8 117q0 123 47 189q47 68 158 102q-113 37 -160 96q-45 57 -45 183q0 8 1 24.5t3 47t4 55.5q6 98 6 133q0 78 -35 108q-31 27 -141 37l2 229q229 -10 326 -88q100 -82 100 -270q0 -39 -6 -137l-4 -56.5l-3 -45 t-1 -23.5q0 -80 43 -123q47 -47 153 -74v-196q-111 -31 -153.5 -80t-42.5 -129q0 -6 1 -20.5l3 -42l4 -52.5q6 -92 6 -133q0 -178 -102.5 -262t-323.5 -92z" />
<glyph unicode="~" d="M123 686q6 6 35 31q18 16 88 49q66 31 127 31q53 0 188 -47.5t180 -47.5q37 0 86 21q47 18 84 43l35 20l17 -219l-10.5 -11t-20.5 -19q-16 -14 -82 -48q-61 -31 -119 -30q-55 0 -196.5 47t-174.5 47q-43 0 -96 -21q-49 -18 -90 -45l-33 -20z" />
<glyph unicode="&#xa1;" d="M428 -412l8 920h240l8 -920h-256zM430 717v305h252v-305h-252z" />
<glyph unicode="&#xa2;" horiz-adv-x="892" d="M43 510q0 424 371 448v220h196v-228l174 -20l-6 -203q-154 8 -250 8q-139 0 -192 -47t-53 -178q0 -129 53 -176t199 -47l243 10l8 -203l-174 -22v-230h-198v221q-186 12 -277 117q-94 111 -94 330z" />
<glyph unicode="&#xa3;" d="M143 0v203h160v473h-133v205h133v133q0 215 92 297q90 82 258 82q49 0 117 -7q27 -2 69 -9l42 -7l43 -6v-201q-156 20 -265 21q-70 0 -98.5 -41t-28.5 -142v-120h326v-205h-326v-473h275l147 33l37 -199l-166 -35z" />
<glyph unicode="&#xa4;" d="M49 184l150 148q-47 88 -47 184t47 184l-150 148l162 162l147 -150q84 45 184.5 45t184.5 -45l147 150l162 -162l-149 -148q47 -88 47 -184t-47 -184l149 -148l-162 -161l-147 149q-84 -45 -184.5 -45t-184.5 45l-147 -149zM365 516q0 -72 53 -125q51 -51 124.5 -51 t125.5 51q53 53 53 125t-53 125q-51 51 -125 51t-125 -51q-53 -53 -53 -125z" />
<glyph unicode="&#xa5;" horiz-adv-x="1103" d="M2 1352h268l285 -473l283 473h268l-313 -543h215v-197h-326l-4 -37v-67h330v-197h-330v-311h-242v311h-338v197h338v67l-6 37h-332v197h221z" />
<glyph unicode="&#xa6;" d="M412 -401v833h239v-833h-239zM412 698v838h239v-838h-239z" />
<glyph unicode="&#xa7;" d="M115 465q0 74 43 153q45 84 84 115q-90 66 -90 223q0 358 428 359q53 0 151 -10q76 -8 146 -23l55 -10l-12 -191q-227 31 -326 31q-121 0 -168 -35t-47 -116q0 -63 57 -91q63 -31 226 -65q180 -43 249 -103q68 -58 68 -202q0 -143 -98 -281q41 -35 59 -82q18 -46 18 -135 q0 -190 -102 -276q-104 -88 -324 -88q-61 0 -155 12q-147 18 -158 20l-61 11l22 190q225 -31 336 -31q219 0 219 146q0 70 -53 94q-61 29 -240 70q-178 43 -254 108q-73 66 -73 207zM350 506q0 -72 33 -98q31 -25 127 -48q135 -37 190 -57q10 14 27 68q14 49 14 96 q0 61 -39 92q-39 29 -149 57q-135 29 -158 37q-14 -23 -28 -63q-17 -49 -17 -84z" />
<glyph unicode="&#xa8;" horiz-adv-x="524" d="M-49 1253v242h223v-242h-223zM383 1253v242h223v-242h-223z" />
<glyph unicode="&#xa9;" d="M18 887q0 233 149.5 391t375.5 158q229 0 376.5 -160t147.5 -387q0 -230 -147 -387q-147 -158 -381 -158q-217 0 -369 158t-152 385zM135 889q0 -178 117 -301q119 -125 289 -125q176 0 295 125q117 123 116 301q0 176 -118 305q-117 125 -291 125t-291 -125t-117 -305z M287 897q0 156 61.5 231.5t198.5 75.5q27 0 80 -4q39 -2 57 -6l18 -2l-2 -186q-61 12 -153 12q-78 0 -78 -121q0 -137 78 -137l153 10v-182q-61 -16 -153 -17q-137 0 -199 76q-61 78 -61 250z" />
<glyph unicode="&#xaa;" horiz-adv-x="1058" d="M283 954q0 143 153 156l209 14v47q0 63 -24.5 88t-81.5 25l-213 -14l-4 63q152 16 217 17q89 0 129 -43q41 -45 41 -138v-274q12 -41 75 -47l-4 -57q-70 4 -110 45q-127 -45 -244 -45q-63 0 -102 45q-41 46 -41 118zM350 950q0 -94 82 -94q47 0 94 8q59 10 86 19l33 8 v174l-199 -12q-51 -2 -73.5 -29t-22.5 -74z" />
<glyph unicode="&#xab;" horiz-adv-x="1312" d="M184 414v172l434 321v-237l-233 -166l233 -189v-237zM733 414v172l434 321v-237l-235 -166l235 -189v-237z" />
<glyph unicode="&#xac;" d="M106 512v227h869v-534h-227v307h-642z" />
<glyph unicode="&#xad;" horiz-adv-x="899" d="M139 461v229h623v-229h-623z" />
<glyph unicode="&#xae;" d="M-12 889q0 240 151 407q152 166 404 166q254 0 409.5 -163.5t155.5 -409.5q0 -240 -155.5 -408t-409.5 -168q-252 0 -404 166q-151 168 -151 410zM102 889q0 -190 127 -326q129 -137 313.5 -137t313.5 135t129 328q0 195 -129 330q-127 133 -313.5 133t-313.5 -133 t-127 -330zM297 565v645h244q121 0 186 -47q63 -45 64 -157q0 -80 -19 -123q-18 -41 -67 -76l100 -242h-184l-80 219h-74v-219h-170zM465 913h78q82 0 82 82q0 84 -90 84h-70v-166z" />
<glyph unicode="&#xaf;" horiz-adv-x="524" d="M-49 1282v203h645v-203h-645z" />
<glyph unicode="&#xb0;" d="M199 1155q0 133 84 217t217 84t217 -84t84 -217t-84 -217q-82 -82 -217 -82t-217 82q-84 84 -84 217zM336 1155q0 -76 45 -121t119 -45q76 0 121 45q47 47 47 121t-47.5 121t-120.5 47q-72 0 -119 -47q-45 -45 -45 -121z" />
<glyph unicode="&#xb1;" d="M49 82v213h998v-213h-998zM49 627v213h389v250h213v-250h396v-213h-396v-240h-213v240h-389z" />
<glyph unicode="&#xb2;" horiz-adv-x="540" d="M35 979v162l160 139q96 84 96 133q0 45 -84 45l-160 -14l-8 176q135 20 231 20q117 0 168 -47t51 -151q0 -66 -28 -117q-27 -47 -90 -98l-92 -78h215v-170h-459z" />
<glyph unicode="&#xb3;" horiz-adv-x="540" d="M45 975l10 166q115 -14 197 -15q74 0 74 52q0 47 -68 47h-135v153h133q23 0 39 13q14 12 14 36q0 43 -67 43l-179 -12l-10 162q125 20 217 20q238 0 238 -180q0 -104 -68 -145q80 -33 80 -152q0 -102 -61 -155q-59 -51 -172 -52q-63 0 -105 5q-16 2 -50 5t-48 5z" />
<glyph unicode="&#xb4;" horiz-adv-x="546" d="M14 1380l500 191l80 -221l-508 -164z" />
<glyph unicode="&#xb5;" d="M127 -463v1487h233v-578q4 -152 33 -205t135 -53q96 0 226 48v786h233v-1022h-233v51q-160 -74 -271 -74q-77 0 -123 25v-465h-233z" />
<glyph unicode="&#x3bc;" d="M127 -463v1487h233v-578q4 -152 33 -205t135 -53q96 0 226 48v786h233v-1022h-233v51q-160 -74 -271 -74q-77 0 -123 25v-465h-233z" />
<glyph unicode="&#xb6;" d="M16 1036q0 178 107 287q106 111 278 111h676v-183h-98v-1251h-203v1251h-164v-1251h-200v645h-15q-172 0 -276 109q-105 107 -105 282z" />
<glyph unicode="&#xb7;" horiz-adv-x="505" d="M115 451v305h252v-305h-252z" />
<glyph unicode="&#xb8;" horiz-adv-x="1703" d="M758 -457l8 140q94 -4 111 -5q82 0 81 62q0 53 -81 53h-62v209h100v-86q129 -4 187 -39q57 -37 57 -137q0 -109 -55 -164q-53 -53 -160 -53q-40 0 -86 6q-12 2 -37.5 4t-36.5 4z" />
<glyph unicode="&#xb9;" horiz-adv-x="540" d="M43 1468l213 150h172v-639h-188v432l-111 -76z" />
<glyph unicode="&#xba;" horiz-adv-x="1075" d="M295 1073q0 276 235 277q121 0 175 -66q57 -70 57 -211q0 -283 -232 -282q-235 -1 -235 282zM365 1073q0 -121 38 -168q39 -49 127 -49t125 49t37 168t-37 164q-37 47 -125 47t-126.5 -47t-38.5 -164z" />
<glyph unicode="&#xbb;" horiz-adv-x="1312" d="M147 78v237l236 189l-236 166v237l435 -321v-172zM696 78v237l234 189l-234 166v237l434 -321v-172z" />
<glyph unicode="&#xbf;" horiz-adv-x="788" d="M12 -49q0 98 37 182q35 78 94 131q74 66 111 92q43 31 90 82q39 43 39 84v78h252v-84q0 -76 -37 -137.5t-92 -104.5l-109 -81q-63 -47 -92 -93q-37 -55 -37 -120q0 -92 41 -134q39 -39 164 -39q98 0 309 41l29 -229q-231 -57 -348 -57q-238 0 -344.5 88t-106.5 301z M383 717v305h252v-305h-252z" />
<glyph unicode="&#xc0;" horiz-adv-x="1234" d="M53 0l338 1417h473l334 -1417h-242l-77 279h-514l-70 -279h-242zM299 1722l78 220l500 -189l-72 -197zM416 510h415l-157 686h-96z" />
<glyph unicode="&#xc1;" horiz-adv-x="1234" d="M53 0l338 1417h473l334 -1417h-242l-77 279h-514l-70 -279h-242zM332 1790l499 190l80 -221l-508 -164zM416 510h415l-157 686h-96z" />
<glyph unicode="&#xc2;" horiz-adv-x="1234" d="M53 0l338 1417h473l334 -1417h-242l-77 279h-514l-70 -279h-242zM260 1606l264 336h189l266 -336h-252l-106 141l-109 -141h-252zM416 510h415l-157 686h-96z" />
<glyph unicode="&#xc3;" horiz-adv-x="1234" d="M53 0l340 1417h471l334 -1417h-242l-77 279h-514l-70 -279h-242zM246 1812q8 10 33 35q18 18 75.5 53t100.5 35q61 0 172 -47q104 -45 129 -45q23 0 61 21q55 29 70 41l28 20l52 -178q-16 -20 -31 -33q-29 -25 -76 -53q-57 -35 -98 -35q-53 0 -166 47t-139.5 47 t-65.5 -20q-41 -23 -65 -41l-29 -23zM416 510h415l-157 686h-96z" />
<glyph unicode="&#xc4;" horiz-adv-x="1234" d="M53 0l340 1417h471l334 -1417h-242l-77 279h-514l-70 -279h-242zM340 1663v242h225v-242h-225zM416 510h415l-157 686h-96zM772 1663v242h223v-242h-223z" />
<glyph unicode="&#xc5;" horiz-adv-x="1234" d="M53 0l324 1362q-35 53 -35 129q0 115 82 180q78 63 203 64q123 0 204.5 -63.5t81.5 -180.5q0 -71 -36 -129l321 -1362h-242l-77 279h-514l-70 -279h-242zM416 510h415l-157 686h-96zM524 1491q0 -55 58 -74h90q59 16 59 74q0 37 -29 59q-27 20 -75 21q-47 0 -74 -21 q-29 -22 -29 -59z" />
<glyph unicode="&#xc6;" horiz-adv-x="1837" d="M92 0l406 1417h1263v-229h-647v-352h524v-230h-524v-377h647v-229h-884v279h-461l-80 -279h-244zM475 510h402l2 678h-211z" />
<glyph unicode="&#xc7;" horiz-adv-x="1097" d="M90 707q0 396 117 565q117 168 409 168q80 0 181 -13q92 -10 161 -28l62 -15l-8 -210q-240 31 -363 30q-182 0 -248 -104q-63 -102 -63 -393q0 -279 63 -388q63 -106 256 -106q57 0 138 8q141 14 153 17l64 8l6 -217q-219 -45 -383 -52v-61q129 -4 186 -39 q57 -37 58 -137q0 -109 -56 -164q-53 -53 -159 -53q-40 0 -86 6q-12 2 -39 4t-35 4l-27 6l8 140q94 -4 111 -5q82 0 82 62q0 53 -82 53h-61v189q-256 23 -350.5 193t-94.5 532z" />
<glyph unicode="&#xc8;" horiz-adv-x="1138" d="M158 0v1417h884v-229h-647v-371h525v-225h-525v-363h647v-229h-884zM305 1722l78 220l500 -189l-72 -197z" />
<glyph unicode="&#xc9;" horiz-adv-x="1169" d="M166 0v1417h885v-229h-648v-371h525v-225h-525v-363h648v-229h-885zM332 1790l499 190l80 -221l-508 -164z" />
<glyph unicode="&#xca;" horiz-adv-x="1169" d="M166 0v1417h885v-229h-648v-371h525v-225h-525v-363h648v-229h-885zM274 1606l265 336h188l266 -336h-252l-106 141l-109 -141h-252z" />
<glyph unicode="&#xcb;" horiz-adv-x="1169" d="M166 0v1417h885v-229h-648v-371h525v-225h-525v-363h648v-229h-885zM301 1663v242h223v-242h-223zM733 1663v242h223v-242h-223z" />
<glyph unicode="&#xcc;" horiz-adv-x="546" d="M-63 1722l77 220l500 -189l-72 -197zM154 0v1417h241v-1417h-241z" />
<glyph unicode="&#xcd;" horiz-adv-x="546" d="M0 1769l500 191l78 -221l-506 -164zM154 0v1417h241v-1417h-241z" />
<glyph unicode="&#xce;" horiz-adv-x="546" d="M-102 1618l270 295h213l270 -295h-264l-111 108l-108 -108h-270zM154 0v1417h241v-1417h-241z" />
<glyph unicode="&#xcf;" horiz-adv-x="546" d="M-57 1645v241h223v-241h-223zM154 0v1417h241v-1417h-241zM387 1645v241h223v-241h-223z" />
<glyph unicode="&#xd0;" horiz-adv-x="1290" d="M37 590v229h121v598h477q169 0 283 -43q113 -43 174 -135q66 -96 88 -211q25 -120 24 -295q0 -184 -24 -309q-25 -131 -84 -227q-61 -100 -174 -150q-109 -47 -287 -47h-477v590h-121zM395 229h240q106 0 168 35q66 37 98 109q29 63 43 155q12 82 12 205q0 238 -63 348 q-61 106 -258 107h-240v-369h281v-229h-281v-361z" />
<glyph unicode="&#xd1;" horiz-adv-x="1404" d="M139 0v1417h389l451 -1118h35v1118h241v-1417h-378l-461 1118h-37v-1118h-240zM324 1812q8 10 32 35q18 18 75.5 53t100.5 35q61 0 173 -47q104 -45 128.5 -45t63.5 21q49 27 68 41l28 20l51 -178l-32 -33q-20 -20 -74 -53q-57 -35 -98 -35q-53 0 -166 47t-139.5 47 t-65.5 -20q-49 -27 -68 -41l-26 -23z" />
<glyph unicode="&#xd2;" horiz-adv-x="1341" d="M100 698q0 377 127 559.5t445 182.5q315 0 442 -183q129 -184 129 -558.5t-127 -548.5q-125 -172 -444.5 -172.5t-444.5 174.5q-127 175 -127 546zM348 698.5q0 -264.5 67.5 -377t256 -112.5t256 112.5t67.5 376.5q0 260 -69 387q-68 123 -254 123q-188 0 -256 -122.5 t-68 -387zM356 1722l78 220l500 -189l-72 -197z" />
<glyph unicode="&#xd3;" horiz-adv-x="1341" d="M100 698q0 377 127 559.5t445 182.5q315 0 442 -183q129 -184 129 -558.5t-127 -548.5q-125 -172 -444.5 -172.5t-444.5 174.5q-127 175 -127 546zM348 698.5q0 -264.5 67.5 -377t256 -112.5t256 112.5t67.5 376.5q0 260 -69 387q-68 123 -254 123q-188 0 -256 -122.5 t-68 -387zM358 1790l500 190l80 -221l-508 -164z" />
<glyph unicode="&#xd4;" horiz-adv-x="1341" d="M100 698q0 377 127 559.5t445 182.5q315 0 442 -183q129 -184 129 -558.5t-127 -548.5q-125 -172 -444.5 -172.5t-444.5 174.5q-127 175 -127 546zM309 1606l264 336h189l266 -336h-252l-106 141l-109 -141h-252zM348 698.5q0 -264.5 67.5 -377t256 -112.5t256 112.5 t67.5 376.5q0 260 -69 387q-68 123 -254 123q-188 0 -256 -122.5t-68 -387z" />
<glyph unicode="&#xd5;" horiz-adv-x="1341" d="M100 698q0 377 127 559.5t445 182.5q315 0 442 -183q129 -184 129 -558.5t-127 -548.5q-125 -172 -444.5 -172.5t-444.5 174.5q-127 175 -127 546zM295 1812q8 10 33 35q18 18 75.5 53t100.5 35q61 0 172 -47q104 -45 129 -45q23 0 61 21q55 29 70 41l29 20l51 -178 q-8 -10 -31 -33q-20 -20 -74 -53q-57 -35 -100 -35q-53 0 -166 47t-139.5 47t-65.5 -20q-41 -23 -65 -41l-29 -23zM348 698.5q0 -264.5 67.5 -377t256 -112.5t256 112.5t67.5 376.5q0 260 -69 387q-68 123 -254 123q-188 0 -256 -122.5t-68 -387z" />
<glyph unicode="&#xd6;" horiz-adv-x="1341" d="M100 698q0 377 127 559.5t445 182.5q315 0 442 -183q129 -184 129 -558.5t-127 -548.5q-125 -172 -444.5 -172.5t-444.5 174.5q-127 175 -127 546zM334 1663v242h225v-242h-225zM348 698.5q0 -264.5 67.5 -377t256 -112.5t256 112.5t67.5 376.5q0 260 -69 387 q-68 123 -254 123q-188 0 -256 -122.5t-68 -387zM766 1663v242h225v-242h-225z" />
<glyph unicode="&#xd7;" horiz-adv-x="1208" d="M346 219l365 371l-365 371l152 151l364 -371l367 371l153 -151l-366 -371l366 -371l-153 -149l-367 368l-364 -368z" />
<glyph unicode="&#xd8;" horiz-adv-x="1320" d="M90 698q0 377 127 559.5t445 182.5q115 0 208 -27l115 246l217 -82l-131 -283q162 -174 162 -596q0 -375 -127 -548q-127 -172 -444 -173q-100 0 -195 21l-119 -254l-213 94l125 266q-170 164 -170 594zM338 698q0 -233 45 -331l385 827q-49 14 -106 14q-186 0 -254 -123 q-70 -127 -70 -387zM569 217q33 -8 93 -8q188 0 255.5 112.5t67.5 376.5q0 209 -41 326z" />
<glyph unicode="&#xd9;" horiz-adv-x="1306" d="M96 1722l78 220l500 -189l-72 -197zM135 457v960h242v-960q0 -129 72 -185q71 -55 202 -55q133 0 207 55.5t74 184.5v960h242v-960q0 -249 -130 -363q-127 -113 -393 -112q-260 0 -387 112q-129 114 -129 363z" />
<glyph unicode="&#xda;" horiz-adv-x="1312" d="M143 457v960h242v-960q0 -129 69.5 -184.5t204.5 -55.5q133 0 207 55.5t74 184.5v960h242v-960q0 -249 -129 -363q-127 -113 -394 -112q-260 0 -387 112q-129 114 -129 363zM352 1790l500 190l80 -221l-508 -164z" />
<glyph unicode="&#xdb;" horiz-adv-x="1312" d="M143 457v960h242v-960q0 -129 69.5 -184.5t204.5 -55.5q133 0 207 55.5t74 184.5v960h242v-960q0 -249 -129 -363q-127 -113 -394 -112q-260 0 -387 112q-129 114 -129 363zM303 1606l264 336h189l266 -336h-252l-106 141l-109 -141h-252z" />
<glyph unicode="&#xdc;" horiz-adv-x="1312" d="M143 457v960h242v-960q0 -129 69.5 -184.5t204.5 -55.5q133 0 207 55.5t74 184.5v960h242v-960q0 -249 -129 -363q-127 -113 -394 -112q-260 0 -387 112q-129 114 -129 363zM385 1663v242h223v-242h-223zM817 1663v242h223v-242h-223z" />
<glyph unicode="&#xdd;" horiz-adv-x="1103" d="M2 1417h268l285 -543l283 543h268l-428 -813v-604h-242v606zM215 1790l500 190l80 -221l-508 -164z" />
<glyph unicode="&#xde;" horiz-adv-x="1118" d="M78 0v1417h241v-211h273q485 0 485 -477q0 -244 -123 -379q-121 -133 -362 -133h-273v-217h-241zM319 451h271q119 0 180 73.5t61 204.5q0 125 -59 189q-57 59 -182 59h-271v-526z" />
<glyph unicode="&#xdf;" horiz-adv-x="1267" d="M152 0v1085q0 203 108 293q106 88 340 88q236 0 342 -71q104 -72 105 -238q0 -113 -41 -166q-45 -57 -140 -96q-78 -35 -100 -51q-25 -18 -25 -43q0 -31 31 -56q29 -23 158 -86q145 -72 205 -131q53 -53 53 -161q0 -221 -106.5 -303t-381.5 -82q-31 0 -92 10 q-20 4 -94 20l-39 11l8 184q162 -8 217 -8q135 0 190.5 30.5t55.5 104.5q0 37 -39 69q-35 29 -159 89q-143 63 -195 124q-53 63 -53 160q0 90 39 142q41 53 123 90q88 37 116 65q27 27 27 68q0 63 -47 88q-49 25 -158 24q-106 0 -160 -39q-55 -39 -55 -139v-1075h-233z" />
<glyph unicode="&#xe0;" horiz-adv-x="1087" d="M57 305q0 156 84 227.5t258 83.5l254 21v61q0 59 -35 90q-37 33 -92 33q-68 0 -166 -6q-27 -2 -163 -8l-66 -4l-8 198q258 45 416 46q178 0 262 -82q86 -84 86 -265v-421q4 -53 20 -74q16 -18 64 -29l-8 -199q-109 0 -168 17q-53 14 -107 55q-178 -72 -334 -72 q-144 0 -221 86q-76 84 -76 242zM193 1362l73 207l500 -189l-68 -184zM293 311q0 -133 104.5 -133t255.5 41v236l-225 -13q-135 -12 -135 -131z" />
<glyph unicode="&#xe1;" horiz-adv-x="1087" d="M57 305q0 156 84 227.5t258 83.5l254 21v61q0 59 -35 90q-37 33 -92 33q-68 0 -166 -6q-27 -2 -163 -8l-66 -4l-8 198q258 45 416 46q178 0 262 -82q86 -84 86 -265v-421q4 -53 20 -74q16 -18 64 -29l-8 -199q-109 0 -168 17q-53 14 -107 55q-178 -72 -334 -72 q-144 0 -221 86q-76 84 -76 242zM201 1380l499 191l80 -221l-508 -164zM293 311q0 -133 104.5 -133t255.5 41v236l-225 -13q-135 -12 -135 -131z" />
<glyph unicode="&#xe2;" horiz-adv-x="1087" d="M57 305q0 156 84 227.5t258 83.5l254 21v61q0 59 -35 90q-37 33 -92 33q-68 0 -166 -6q-27 -2 -163 -8l-66 -4l-8 198q258 45 416 46q178 0 262 -82q86 -84 86 -265v-421q4 -53 20 -74q16 -18 64 -29l-8 -199q-109 0 -168 17q-53 14 -107 55q-178 -72 -334 -72 q-144 0 -221 86q-76 84 -76 242zM139 1196l264 336h189l266 -336h-252l-106 141l-109 -141h-252zM293 311q0 -133 104.5 -133t255.5 41v236l-225 -13q-135 -12 -135 -131z" />
<glyph unicode="&#xe3;" horiz-adv-x="1087" d="M57 305q0 156 84 227.5t258 83.5l254 21v61q0 59 -35 90q-37 33 -92 33q-68 0 -166 -6q-27 -2 -163 -8l-66 -4l-8 198q258 45 416 46q178 0 262 -82q86 -84 86 -265v-421q4 -53 20 -74q16 -18 64 -29l-8 -199q-109 0 -168 17q-53 14 -107 55q-178 -72 -336 -72 q-143 0 -219 86q-76 84 -76 242zM125 1403q8 10 33 35q23 23 76 55.5t100 32.5q68 0 172 -45q111 -47 129 -47q23 0 61 20q55 29 70 41l29 21l51 -179q-16 -20 -31 -34q-16 -16 -73.5 -51t-100.5 -35q-53 0 -166 47t-139.5 47t-65.5 -21q-33 -18 -65 -43l-29 -20zM293 311 q0 -133 104.5 -133t255.5 41v236l-225 -13q-135 -12 -135 -131z" />
<glyph unicode="&#xe4;" horiz-adv-x="1087" d="M57 305q0 156 84 227.5t258 83.5l254 21v61q0 59 -35 90q-37 33 -92 33q-68 0 -166 -6q-27 -2 -163 -8l-66 -4l-8 198q258 45 416 46q178 0 262 -82q86 -84 86 -265v-421q4 -53 20 -74q16 -18 64 -29l-8 -199q-109 0 -168 17q-53 14 -107 55q-178 -72 -336 -72 q-143 0 -219 86q-76 84 -76 242zM182 1253v242h224v-242h-224zM293 311q0 -133 104.5 -133t255.5 41v236l-225 -13q-135 -12 -135 -131zM614 1253v242h224v-242h-224z" />
<glyph unicode="&#xe5;" horiz-adv-x="1087" d="M57 305q0 156 84 227.5t258 83.5l254 21v61q0 59 -35 90q-37 33 -92 33q-68 0 -166 -6q-27 -2 -163 -8l-66 -4l-8 198q258 45 416 46q178 0 262 -82q86 -84 86 -265v-421q4 -53 20 -74q16 -18 64 -29l-8 -199q-109 0 -168 17q-53 14 -107 55q-178 -72 -334 -72 q-144 0 -221 86q-76 84 -76 242zM293 311q0 -133 104.5 -133t255.5 41v236l-225 -13q-135 -12 -135 -131zM295 1311q0 96 67.5 163.5t163.5 67.5q94 0 162 -67.5t68 -163.5q0 -100 -66 -164q-70 -66 -164 -66t-164 66q-67 66 -67 164zM453 1311q0 -31 22.5 -53.5t52.5 -22.5 q29 0 51.5 22.5t22.5 53t-22.5 53t-51.5 22.5q-33 0 -55 -22q-20 -20 -20 -53z" />
<glyph unicode="&#xe6;" horiz-adv-x="1693" d="M109 305q0 164 88 232q92 70 272 81l236 19v61q0 59 -35 90q-37 33 -92 33q-68 0 -166 -6q-29 -2 -85.5 -4t-78.5 -4l-66 -6l-8 205q270 41 416 41q186 0 268 -101q100 100 289 101q217 0 325.5 -115t108.5 -352l-16 -168h-627q4 -119 53 -168q53 -53 174 -54 q164 0 379 19l4 -182q-237 -49 -418 -50q-209 0 -309 103l-53 -25q-178 -78 -365 -78q-141 0 -219 86q-75 84 -75 242zM344 311q0 -133 105 -133q47 0 114 12q82 14 105 21q41 10 47 12q-12 104 -13 232l-223 -13q-135 -8 -135 -131zM938 594h412q0 131 -47 188 q-45 55 -156 55.5t-160 -57.5q-49 -59 -49 -186z" />
<glyph unicode="&#xe7;" horiz-adv-x="890" d="M82 524q0 274 102 400q102 123 328 123q59 0 127 -9q47 -6 131 -20l53 -10l-8 -203q-163 18 -240 18q-152 0 -204 -65q-51 -63 -52 -234q0 -190 49.5 -257.5t209.5 -67.5l239 18l6 -203q-172 -29 -274 -34v-64q129 -4 186 -39q57 -37 58 -137q0 -109 -56 -164 q-53 -53 -159 -53q-40 0 -86 6q-12 2 -39 4t-35 4l-27 6l8 140q94 -4 111 -5q82 0 82 62q0 53 -82 53h-61v187q-200 15 -283 141q-84 127 -84 403z" />
<glyph unicode="&#xe8;" horiz-adv-x="1019" d="M78 500q0 547 444 547q436 0 436 -467l-16 -168h-629q4 -119 54 -168q53 -53 176 -54q162 0 377 19l4 -182q-233 -49 -416 -50q-229 0 -329.5 125.5t-100.5 397.5zM186 1329l74 207l500 -188l-68 -185zM313 594h414q0 131 -47 188q-45 55 -158 56q-111 0 -160 -58 q-49 -59 -49 -186z" />
<glyph unicode="&#xe9;" horiz-adv-x="1019" d="M78 500q0 547 444 547q436 0 436 -467l-16 -168h-629q4 -119 54 -168q53 -53 176 -54q162 0 377 19l4 -182q-233 -49 -416 -50q-229 0 -329.5 125.5t-100.5 397.5zM254 1380l500 191l80 -221l-508 -164zM313 594h414q0 131 -47 188q-45 55 -158 56q-111 0 -160 -58 q-49 -59 -49 -186z" />
<glyph unicode="&#xea;" horiz-adv-x="1019" d="M78 500q0 547 444 547q436 0 436 -467l-16 -168h-629q4 -119 54 -168q53 -53 176 -54q162 0 377 19l4 -182q-233 -49 -416 -50q-229 0 -329.5 125.5t-100.5 397.5zM180 1196l264 336h189l266 -336h-252l-106 141l-109 -141h-252zM313 594h414q0 131 -47 188 q-45 55 -158 56q-111 0 -160 -58q-49 -59 -49 -186z" />
<glyph unicode="&#xeb;" horiz-adv-x="1019" d="M78 500q0 547 446 547q217 0 325.5 -115t108.5 -352l-16 -168h-627q4 -119 54 -168q53 -53 174 -54q162 0 377 19l4 -182q-233 -49 -416 -50q-229 0 -329.5 125.5t-100.5 397.5zM195 1253v242h223v-242h-223zM313 594h414q0 135 -45 188q-47 55 -157.5 55.5t-159.5 -57.5 q-48 -57 -52 -186zM627 1253v242h223v-242h-223z" />
<glyph unicode="&#xec;" horiz-adv-x="532" d="M-35 1362l74 207l500 -189l-68 -184zM156 0v1022h233v-1022h-233z" />
<glyph unicode="&#xed;" horiz-adv-x="532" d="M20 1380l500 191l80 -221l-508 -164zM156 0v1022h233v-1022h-233z" />
<glyph unicode="&#xee;" horiz-adv-x="544" d="M-96 1196l264 336h188l267 -336h-252l-107 141l-108 -141h-252zM156 0v1022h233v-1022h-233z" />
<glyph unicode="&#xef;" horiz-adv-x="532" d="M-63 1253v242h223v-242h-223zM156 0v1022h233v-1022h-233zM367 1253v242h225v-242h-225z" />
<glyph unicode="&#xf0;" d="M57 471q0 193 121 307q119 113 320 113q55 0 137 -14q80 -14 110 -27l39 -14q-9 114 -67 190q-59 78 -189 129l-215 -162l-96 135l115 89q-43 12 -178 34l34 199q225 -29 357 -72l198 152l97 -137l-117 -88q313 -175 313 -590q0 -383 -118 -557q-121 -176 -388 -176 q-229 0 -352 124q-121 123 -121 365zM307 471q0 -272 223 -272q131 0 193 100q59 100 63 332q-127 55 -274 55q-92 0 -150 -63q-55 -62 -55 -152z" />
<glyph unicode="&#xf1;" horiz-adv-x="1173" d="M168 0v1022h233v-51q160 76 275 76q205 0 280.5 -119t75.5 -393v-535h-233v532q0 160 -33 226q-35 70 -135 69q-40 0 -99 -12q-72 -14 -94 -22l-37 -13v-780h-233zM233 1403q8 10 33 35q23 23 76 55.5t100 32.5q68 0 172 -45q111 -47 129 -47q25 0 64 20q49 27 67 41 l29 21l51 -179q-8 -10 -32 -34q-18 -18 -72 -52q-57 -35 -100 -34q-53 0 -166 47t-139.5 47t-65.5 -21q-40 -22 -68 -43l-26 -20z" />
<glyph unicode="&#xf2;" horiz-adv-x="1081" d="M82 516q0 262 106 395q106 135 355 136q244 0 352 -136q106 -133 106 -395t-104 -401q-104 -137 -354 -138q-252 0 -356.5 135.5t-104.5 403.5zM258 1362l74 207l499 -189l-67 -184zM319 516q0 -176 45.5 -252t178.5 -76q131 0 176 76t45 252q0 164 -49 242 q-49 76 -172 76q-127 0 -176 -74q-48 -72 -48 -244z" />
<glyph unicode="&#xf3;" horiz-adv-x="1081" d="M82 516q0 262 106 395q106 135 355 136q244 0 352 -136q106 -133 106 -395t-104 -401q-104 -137 -354 -138q-252 0 -356.5 135.5t-104.5 403.5zM229 1380l500 191l80 -221l-508 -164zM319 516q0 -176 45.5 -252t178.5 -76q131 0 176 76t45 252q0 164 -49 242 q-49 76 -172 76q-127 0 -176 -74q-48 -72 -48 -244z" />
<glyph unicode="&#xf4;" horiz-adv-x="1081" d="M82 516q0 262 106 395q106 135 355 136q244 0 352 -136q106 -133 106 -395t-104 -401q-104 -137 -354 -138q-252 0 -356.5 135.5t-104.5 403.5zM172 1196l264 336h189l266 -336h-252l-107 141l-108 -141h-252zM319 516q0 -176 45.5 -252t178.5 -76q131 0 176 76t45 252 q0 164 -49 242q-49 76 -172 76q-127 0 -176 -74q-48 -72 -48 -244z" />
<glyph unicode="&#xf5;" horiz-adv-x="1081" d="M82 516q0 262 106 395q106 135 355 136q244 0 352 -136q106 -133 106 -395t-104 -401q-104 -137 -354 -138q-252 0 -356.5 135.5t-104.5 403.5zM172 1403q8 10 33 35q23 23 76 55.5t100 32.5q70 0 174 -45q111 -47 127 -47q25 0 63 20q49 27 68 41l29 21l51 -179 q-16 -20 -31 -34q-16 -16 -73.5 -51t-100.5 -35q-51 0 -163.5 47t-139.5 47t-66 -21q-33 -18 -65 -43l-29 -20zM319 516q0 -176 45.5 -252t178.5 -76q131 0 176 76t45 252q0 164 -49 242q-49 76 -172 76q-127 0 -176 -74q-48 -72 -48 -244z" />
<glyph unicode="&#xf6;" horiz-adv-x="1081" d="M82 516q0 262 106 395q106 135 355 136q244 0 352 -136q106 -133 106 -395t-104 -401q-104 -137 -354 -138q-252 0 -356.5 135.5t-104.5 403.5zM211 1253v242h223v-242h-223zM319 516q0 -176 45.5 -252t178.5 -76q131 0 176 76t45 252q0 164 -49 242q-49 76 -172 76 q-127 0 -176 -74q-48 -72 -48 -244zM643 1253v242h223v-242h-223z" />
<glyph unicode="&#xf7;" d="M90 573v232h252v221h354v-221h240v-232h-846zM403 133v248h234v-248h-234z" />
<glyph unicode="&#xf8;" horiz-adv-x="1081" d="M82 516q0 262 106 395q106 135 355 136q68 0 127 -13l82 209l145 -55l-86 -207q190 -117 190 -465q0 -262 -104 -401q-104 -137 -354 -138q-76 0 -137 13l-89 -213l-143 53l90 213q-182 117 -182 473zM319 516q0 -180 46 -250l223 563q-18 4 -45 5q-127 0 -176 -74 q-48 -72 -48 -244zM483 193q25 -4 60 -5q131 0 176 76t45 252q0 172 -51 244z" />
<glyph unicode="&#xf9;" horiz-adv-x="1144" d="M137 487v535h234v-533q0 -176 28 -239q27 -61 140 -62q41 0 96 13q68 14 90 22l37 13v786h233v-1022h-233v51q-160 -74 -270 -74q-213 0 -283 113q-72 114 -72 397zM201 1350l86 219l497 -191l-82 -211z" />
<glyph unicode="&#xfa;" horiz-adv-x="1144" d="M137 487v535h234v-533q0 -176 28 -239q27 -61 140 -62q41 0 96 13q68 14 90 22l37 13v786h233v-1022h-233v51q-160 -74 -270 -74q-213 0 -283 113q-72 114 -72 397zM258 1380l500 191l80 -221l-508 -164z" />
<glyph unicode="&#xfb;" horiz-adv-x="1144" d="M137 487v535h234v-533q0 -176 28 -239q27 -61 140 -62q41 0 96 13q68 14 90 22l37 13v786h233v-1022h-233v51q-160 -74 -270 -74q-213 0 -283 113q-72 114 -72 397zM168 1196l264 336h189l266 -336h-252l-107 141l-108 -141h-252z" />
<glyph unicode="&#xfc;" horiz-adv-x="1144" d="M137 487v535h234v-533q0 -176 28 -239q27 -61 140 -62q41 0 96 13q68 14 90 22l37 13v786h233v-1022h-233v51q-160 -74 -270 -74q-213 0 -283 113q-72 114 -72 397zM248 1253v242h223v-242h-223zM680 1253v242h223v-242h-223z" />
<glyph unicode="&#xfd;" horiz-adv-x="980" d="M10 1022h232l211 -795h53l211 795h231l-381 -1458h-231l113 436h-173zM231 1380l500 191l80 -221l-508 -164z" />
<glyph unicode="&#xfe;" horiz-adv-x="1099" d="M178 -438v1884h234v-455q137 55 247 56q211 0 305.5 -119t94.5 -404q0 -313 -110.5 -430t-391.5 -117q-43 0 -80 3q-16 0 -31.5 1t-23.5 2t-10 1v-422h-234zM412 199q90 -10 145 -11q160 0 211 74q53 76 53 262q0 164 -47 236q-45 70 -145 69q-23 0 -97 -8 q-53 -6 -88 -12l-32 -8v-602z" />
<glyph unicode="&#xff;" horiz-adv-x="989" d="M27 1022h231l211 -795h53l211 795h232l-381 -1458h-232l113 436h-172zM176 1253v242h223v-242h-223zM608 1253v242h223v-242h-223z" />
<glyph unicode="&#x100;" horiz-adv-x="1236" d="M47 0l338 1417h473l334 -1417h-242l-78 279h-514l-69 -279h-242zM268 1638v203h686v-203h-686zM410 510h415l-157 686h-97z" />
<glyph unicode="&#x101;" horiz-adv-x="1075" d="M88 305q0 156 84 227.5t258 83.5l254 21v61q0 59 -35 90q-37 33 -92 33q-68 0 -166 -6q-27 -2 -164 -8l-65 -4l-8 198q258 45 415 46q178 0 262 -82q86 -84 87 -265v-421q4 -53 20 -74q16 -18 63 -29l-8 -199q-109 0 -168 17q-53 14 -106 55q-178 -72 -334 -72 q-143 0 -219 86q-78 88 -78 242zM211 1282v203h645v-203h-645zM324 311q0 -133 104 -133t256 41v236l-225 -13q-135 -12 -135 -131z" />
<glyph unicode="&#x102;" horiz-adv-x="1236" d="M47 0l338 1417h473l334 -1417h-242l-78 279h-514l-69 -279h-242zM258 1903h242q14 -100 118 -101q51 0 84 27q35 29 37 74h242q-12 -132 -104 -215q-90 -82 -259 -82q-162 0 -256 82q-92 80 -104 215zM410 510h415l-157 686h-97z" />
<glyph unicode="&#x103;" horiz-adv-x="1075" d="M88 305q0 156 84 227.5t258 83.5l254 21v61q0 59 -35 90q-37 33 -92 33q-68 0 -166 -6q-27 -2 -164 -8l-65 -4l-8 198q258 45 415 46q178 0 262 -82q86 -84 87 -265v-421q4 -53 20 -74q16 -18 63 -29l-8 -199q-109 0 -168 17q-53 14 -106 55q-178 -72 -334 -72 q-143 0 -219 86q-78 88 -78 242zM164 1522h242q12 -111 132.5 -111t133.5 111h241q-12 -145 -108 -232q-98 -88 -266 -88t-267 88q-96 87 -108 232zM324 311q0 -133 104 -133t256 41v236l-225 -13q-135 -12 -135 -131z" />
<glyph unicode="&#x104;" horiz-adv-x="1236" d="M47 0l338 1417h473l334 -1417h-10q-27 -20 -72 -73.5t-45 -98.5q0 -27 14 -43q14 -18 39 -18l84 8l23 -189q-117 -23 -193 -22q-94 0 -151 51q-59 53 -60 139q0 133 140 246h-11l-78 279h-514l-69 -279h-242zM410 510h415l-157 686h-97z" />
<glyph unicode="&#x105;" horiz-adv-x="1075" d="M88 305q0 156 84 227.5t258 83.5l254 21v61q0 59 -35 90q-37 33 -92 33q-68 0 -166 -6q-27 -2 -164 -8l-65 -4l-8 198q258 45 415 46q176 0 262.5 -80t86.5 -267v-421q4 -53 20 -74q16 -18 63 -29l-8 -199q-47 0 -57 3q-94 -94 -94 -152q0 -27 14 -43q16 -18 39 -18l84 8 l22 -189q-117 -23 -192 -22q-94 0 -152 51q-59 53 -59 139q0 68 43 135q39 61 74 93q25 23 47 36q-22 12 -43 31q-178 -72 -334 -72q-143 0 -219 86q-78 88 -78 242zM324 311q0 -133 104 -133t256 41v236l-225 -13q-135 -12 -135 -131z" />
<glyph unicode="&#x106;" horiz-adv-x="1085" d="M90 707q0 396 117 565q117 168 409 168q80 0 181 -13q92 -10 161 -28l62 -15l-8 -210q-240 31 -363 30q-182 0 -248 -104q-63 -102 -63 -393q0 -279 63 -388q63 -106 256 -106q57 0 138 8q141 14 153 17l64 8l6 -217q-236 -51 -402 -52q-307 0 -417 173 q-109 168 -109 557zM311 1769l500 191l78 -221l-506 -164z" />
<glyph unicode="&#x107;" horiz-adv-x="890" d="M82 524q0 274 102 400q102 123 328 123q59 0 127 -9q47 -6 131 -20l53 -10l-8 -203q-163 18 -240 18q-152 0 -204 -65q-51 -63 -52 -234q0 -190 49.5 -257.5t209.5 -67.5l239 18l6 -203q-209 -37 -317 -37q-233 0 -328 125q-96 127 -96 422zM201 1380l499 191l80 -221 l-508 -164z" />
<glyph unicode="&#x108;" horiz-adv-x="1085" d="M90 707q0 396 117 565q117 168 409 168q80 0 181 -13q92 -10 161 -28l62 -15l-8 -210q-240 31 -363 30q-182 0 -248 -104q-63 -102 -63 -393q0 -279 63 -388q63 -106 256 -106q57 0 138 8q141 14 153 17l64 8l6 -217q-236 -51 -402 -52q-307 0 -417 173 q-109 168 -109 557zM231 1616l271 295h213l270 -295h-264l-111 108l-108 -108h-271z" />
<glyph unicode="&#x109;" horiz-adv-x="890" d="M82 524q0 274 102 400q102 123 328 123q59 0 127 -9q47 -6 131 -20l53 -10l-8 -203q-163 18 -240 18q-152 0 -204 -65q-51 -63 -52 -234q0 -190 49.5 -257.5t209.5 -67.5l239 18l6 -203q-209 -37 -317 -37q-233 0 -328 125q-96 127 -96 422zM98 1196l264 336h189 l266 -336h-252l-106 141l-109 -141h-252z" />
<glyph unicode="&#x10a;" horiz-adv-x="1085" d="M90 707q0 396 117 565q117 168 409 168q80 0 181 -13q92 -10 161 -28l62 -15l-8 -210q-240 31 -363 30q-182 0 -248 -104q-63 -102 -63 -393q0 -279 63 -388q63 -106 256 -106q57 0 138 8q141 14 153 17l64 8l6 -217q-236 -51 -402 -52q-307 0 -417 173 q-109 168 -109 557zM483 1620v244h234v-244h-234z" />
<glyph unicode="&#x10b;" horiz-adv-x="890" d="M82 524q0 274 102 400q102 123 328 123q59 0 127 -9q47 -6 131 -20l53 -10l-8 -203q-163 18 -240 18q-152 0 -204 -65q-51 -63 -52 -234q0 -190 49.5 -257.5t209.5 -67.5l239 18l6 -203q-209 -37 -317 -37q-233 0 -328 125q-96 127 -96 422zM371 1176v243h233v-243h-233z " />
<glyph unicode="&#x10c;" horiz-adv-x="1085" d="M90 707q0 396 117 565q117 168 409 168q80 0 181 -13q92 -10 161 -28l62 -15l-8 -210q-240 31 -363 30q-182 0 -248 -104q-63 -102 -63 -393q0 -279 63 -388q63 -106 256 -106q57 0 138 8q141 14 153 17l64 8l6 -217q-236 -51 -402 -52q-307 0 -417 173 q-109 168 -109 557zM240 1907h268l110 -115l109 115h264l-268 -295h-211z" />
<glyph unicode="&#x10d;" horiz-adv-x="890" d="M82 524q0 274 102 400q102 123 328 123q59 0 127 -9q47 -6 131 -20l53 -10l-8 -203q-163 18 -240 18q-152 0 -204 -65q-51 -63 -52 -234q0 -190 49.5 -257.5t209.5 -67.5l239 18l6 -203q-209 -37 -317 -37q-233 0 -328 125q-96 127 -96 422zM133 1532h254l107 -139 l104 139h254l-262 -336h-197z" />
<glyph unicode="&#x10e;" horiz-adv-x="1290" d="M158 0v1417h477q169 0 283 -43q113 -43 174 -135q66 -96 88 -211q25 -120 24 -295q0 -184 -24 -309q-25 -131 -84 -227q-61 -100 -174 -150q-109 -47 -287 -47h-477zM240 1907h268l110 -115l109 115h264l-268 -295h-211zM395 229h240q106 0 168 35q66 37 98 109 q29 63 43 155q12 82 12 205q0 238 -63 348q-61 106 -258 107h-240v-959z" />
<glyph unicode="&#x10f;" horiz-adv-x="1550" d="M82 518q0 272 104 402q102 127 322 127q102 0 229 -27v414h236v-1434h-236v49q-147 -72 -266 -72q-205 0 -297 125q-92 127 -92 416zM319 516q0 -178 46 -248q47 -72 143 -73q104 4 229 45v575l-4 1q-4 1 -13 2t-20 1l-86 10q-33 4 -90 5q-106 0 -155.5 -74t-49.5 -244z M1163 905v514h226v-514h-226z" />
<glyph unicode="&#x110;" horiz-adv-x="1290" d="M37 590v231h121v596h477q169 0 283 -43q113 -43 174 -135q66 -96 88 -211q25 -120 24 -295q0 -184 -24 -309q-25 -131 -84 -227q-61 -100 -174 -150q-109 -47 -287 -47h-477v590h-121zM395 229h240q106 0 168 35q66 37 98 109q29 63 43 155q12 82 12 205q0 238 -63 348 q-61 106 -258 107h-240v-367h285v-231h-285v-361z" />
<glyph unicode="&#x111;" horiz-adv-x="1112" d="M82 518q0 272 104 402q102 127 322 127q102 0 229 -27v254h-436v203h645v-43h27v-1434h-236v49q-147 -72 -266 -72q-205 0 -297 125q-92 127 -92 416zM319 516q0 -178 46 -248q47 -72 143 -73q104 4 229 45v575l-4 1q-4 1 -13 2t-20 1l-86 10q-33 4 -90 5 q-106 0 -155.5 -74t-49.5 -244z" />
<glyph unicode="&#x112;" horiz-adv-x="1138" d="M158 0v1417h884v-229h-647v-371h525v-225h-525v-363h647v-229h-884zM252 1655v203h686v-203h-686z" />
<glyph unicode="&#x113;" horiz-adv-x="1036" d="M82 500q0 547 444 547q436 0 437 -467l-17 -168h-629q4 -119 54 -168q53 -53 176 -54q162 0 377 19l4 -182q-233 -49 -416 -50q-229 0 -329.5 125.5t-100.5 397.5zM201 1282v203h645v-203h-645zM317 594h414q0 131 -47 188q-45 55 -158 56q-111 0 -159 -58 q-50 -59 -50 -186z" />
<glyph unicode="&#x114;" horiz-adv-x="1138" d="M158 0v1417h884v-229h-647v-371h525v-225h-525v-363h647v-229h-884zM254 1903h242q14 -100 118 -101q51 0 84 27q35 29 37 74h242q-12 -132 -105 -215q-90 -82 -258 -82q-162 0 -256 82q-92 80 -104 215z" />
<glyph unicode="&#x115;" horiz-adv-x="1036" d="M82 500q0 547 444 547q436 0 437 -467l-17 -168h-629q4 -119 54 -168q53 -53 176 -54q162 0 377 19l4 -182q-233 -49 -416 -50q-229 0 -329.5 125.5t-100.5 397.5zM147 1522h242q12 -111 133 -111t131 111h244q-12 -145 -109 -232q-98 -88 -266 -88t-266 88 q-97 87 -109 232zM317 594h414q0 131 -47 188q-45 55 -158 56q-111 0 -159 -58q-50 -59 -50 -186z" />
<glyph unicode="&#x116;" horiz-adv-x="1138" d="M158 0v1417h884v-229h-647v-371h525v-225h-525v-363h647v-229h-884zM494 1620v244h233v-244h-233z" />
<glyph unicode="&#x117;" horiz-adv-x="1036" d="M82 500q0 547 444 547q436 0 437 -467l-17 -168h-629q4 -119 54 -168q53 -53 176 -54q162 0 377 19l4 -182q-233 -49 -416 -50q-229 0 -329.5 125.5t-100.5 397.5zM317 594h414q0 131 -47 188q-45 55 -158 56q-111 0 -159 -58q-50 -59 -50 -186zM401 1176v243h234v-243 h-234z" />
<glyph unicode="&#x118;" horiz-adv-x="1138" d="M158 0v1417h884v-229h-647v-371h525v-225h-525v-363h647v-229h-38q-23 -16 -70 -73.5t-47 -98.5q0 -27 14 -43q16 -18 39 -18l84 8l23 -189q-117 -23 -193 -22q-94 0 -152 51q-59 53 -59 139q0 131 139 246h-624z" />
<glyph unicode="&#x119;" horiz-adv-x="1036" d="M82 500q0 547 444 547q436 0 437 -467l-17 -168h-629q4 -119 54 -168q53 -53 176 -54q162 0 377 19l4 -182q-14 -4 -45 -9.5t-39 -7.5h6q-119 -104 -119 -174q0 -29 14.5 -45t38.5 -16l84 8l23 -189q-117 -23 -193 -22q-94 0 -151 51q-59 53 -60 139q0 111 109 220 q-78 -4 -84 -5q-229 0 -329.5 125.5t-100.5 397.5zM317 594h414q0 131 -47 188q-45 55 -158 56q-111 0 -159 -58q-50 -59 -50 -186z" />
<glyph unicode="&#x11a;" horiz-adv-x="1138" d="M158 0v1417h884v-229h-647v-371h525v-225h-525v-363h647v-229h-884zM276 1935h269l110 -114l109 114h264l-268 -295h-211z" />
<glyph unicode="&#x11b;" horiz-adv-x="1036" d="M82 500q0 547 444 547q436 0 437 -467l-17 -168h-629q4 -119 54 -168q53 -53 176 -54q162 0 377 19l4 -182q-233 -49 -416 -50q-229 0 -329.5 125.5t-100.5 397.5zM160 1532h254l106 -139l105 139h254l-263 -336h-196zM317 594h414q0 131 -47 188q-45 55 -158 56 q-111 0 -159 -58q-50 -59 -50 -186z" />
<glyph unicode="&#x11c;" horiz-adv-x="1224" d="M90 711q0 387 125 557q126 172 430 172q221 0 477 -58l-6 -208q-242 33 -436 32q-201 0 -272 -106q-70 -102 -70 -389q0 -285 68 -392q68 -109 268 -108q8 0 28.5 1t30.5 1q39 0 55 2q8 0 23.5 1t24.5 3q29 4 34 4l15 2v301h-162v215h399v-716q-299 -47 -469 -48 q-317 0 -440 181t-123 553zM272 1616l271 295h213l270 -295h-264l-111 108l-108 -108h-271z" />
<glyph unicode="&#x11d;" horiz-adv-x="1085" d="M80 -182q0 78 37 133q39 59 114 117q-68 47 -67 149q0 49 76 162q-147 92 -148 307q0 184 113 270q117 88 301 88q40 0 92 -6q31 -4 84 -14l33 -6l311 6v-190h-147q43 -58 43 -148q0 -205 -100.5 -280.5t-319.5 -75.5q-55 0 -90 8q-25 -63 -25 -92q0 -46 37 -62 q35 -14 178 -14q244 0 338 -66q92 -63 92 -241q0 -180 -131 -269q-129 -86 -346 -86q-250 0 -360 66q-115 68 -115 244zM184 1196l265 336h188l266 -336h-252l-106 141l-109 -141h-252zM311 -158q0 -68 56 -94q57 -29 190 -29q238 0 238 131q0 76 -41 95q-43 20 -170 22 l-199 13q-74 -66 -74 -138zM328 686q0 -86 39 -123q40 -37 135 -37q102 0 143 35q45 39 45 125q0 89 -43 123q-45 35 -143 35t-135 -35q-41 -37 -41 -123z" />
<glyph unicode="&#x11e;" horiz-adv-x="1224" d="M90 711q0 387 125 557q126 172 430 172q221 0 477 -58l-6 -208q-242 33 -436 32q-201 0 -272 -106q-70 -102 -70 -389q0 -285 68 -392q68 -109 268 -108q8 0 28.5 1t30.5 1q39 0 55 2q8 0 23.5 1t24.5 3q29 4 34 4l15 2v301h-162v215h399v-716q-299 -47 -469 -48 q-317 0 -440 181t-123 553zM293 1903h242q14 -100 118 -101q51 0 84 27q35 29 37 74h242q-12 -132 -105 -215q-90 -82 -258 -82q-166 0 -256 82q-92 83 -104 215z" />
<glyph unicode="&#x11f;" horiz-adv-x="1085" d="M80 -182q0 78 37 133q39 59 114 117q-68 47 -67 149q0 49 76 162q-147 92 -148 307q0 184 113 270q117 88 301 88q40 0 92 -6q31 -4 84 -14l33 -6l311 6v-190h-147q43 -58 43 -148q0 -205 -100.5 -280.5t-319.5 -75.5q-55 0 -90 8q-25 -63 -25 -92q0 -46 37 -62 q35 -14 178 -14q244 0 338 -66q92 -63 92 -241q0 -180 -131 -269q-129 -86 -346 -86q-250 0 -360 66q-115 68 -115 244zM170 1522h242q12 -111 133 -111q123 0 131 111h242q-12 -147 -107 -232q-98 -88 -266 -88q-170 0 -269 88q-94 85 -106 232zM311 -158q0 -68 56 -94 q57 -29 190 -29q238 0 238 131q0 76 -41 95q-43 20 -170 22l-199 13q-74 -66 -74 -138zM328 686q0 -86 39 -123q40 -37 135 -37q102 0 143 35q45 39 45 125q0 89 -43 123q-45 35 -143 35t-135 -35q-41 -37 -41 -123z" />
<glyph unicode="&#x120;" horiz-adv-x="1224" d="M90 711q0 387 125 557q126 172 430 172q221 0 477 -58l-6 -208q-242 33 -436 32q-201 0 -272 -106q-70 -102 -70 -389q0 -285 68 -392q68 -109 268 -108q8 0 28.5 1t30.5 1q39 0 55 2q8 0 23.5 1t24.5 3q29 4 34 4l15 2v301h-162v215h399v-716q-299 -47 -469 -48 q-317 0 -440 181t-123 553zM512 1636v244h233v-244h-233z" />
<glyph unicode="&#x121;" horiz-adv-x="1085" d="M80 -182q0 78 37 133q39 59 114 117q-68 47 -67 149q0 49 76 162q-147 92 -148 307q0 184 113 270q117 88 301 88q40 0 92 -6q31 -4 84 -14l33 -6l311 6v-190h-147q43 -58 43 -148q0 -205 -100.5 -280.5t-319.5 -75.5q-55 0 -90 8q-25 -63 -25 -92q0 -46 37 -62 q35 -14 178 -14q244 0 338 -66q92 -63 92 -241q0 -180 -131 -269q-129 -86 -346 -86q-250 0 -360 66q-115 68 -115 244zM311 -158q0 -68 56 -94q57 -29 190 -29q238 0 238 131q0 76 -41 95q-43 20 -170 22l-199 13q-74 -66 -74 -138zM328 686q0 -86 39 -123q40 -37 135 -37 q102 0 143 35q45 39 45 125q0 89 -43 123q-45 35 -143 35t-135 -35q-41 -37 -41 -123zM426 1176v243h236v-243h-236z" />
<glyph unicode="&#x122;" horiz-adv-x="1224" d="M90 711q0 387 125 557q126 172 430 172q221 0 477 -58l-6 -208q-242 33 -436 32q-201 0 -272 -106q-70 -102 -70 -389q0 -285 68 -392q68 -109 268 -108q8 0 28.5 1t30.5 1q39 0 55 2q8 0 23.5 1t24.5 3q29 4 34 4l15 2v301h-162v215h399v-716q-299 -47 -469 -48 q-317 0 -440 181t-123 553zM451 -618l92 460h227l-108 -460h-211z" />
<glyph unicode="&#x123;" horiz-adv-x="1085" d="M80 -182q0 78 37 133q39 59 114 117q-68 47 -67 149q0 49 76 162q-147 92 -148 307q0 184 113 270q117 88 301 88q40 0 92 -6q31 -4 84 -14l33 -6l311 6v-190h-147q43 -58 43 -148q0 -205 -100.5 -280.5t-319.5 -75.5q-55 0 -90 8q-25 -63 -25 -92q0 -46 37 -62 q35 -14 178 -14q244 0 338 -66q92 -63 92 -241q0 -180 -131 -269q-129 -86 -346 -86q-250 0 -360 66q-115 68 -115 244zM311 -158q0 -68 56 -94q57 -29 190 -29q238 0 238 131q0 76 -41 95q-43 20 -170 22l-199 13q-74 -66 -74 -138zM328 686q0 -86 39 -123q40 -37 135 -37 q102 0 143 35q45 39 45 125q0 89 -43 123q-45 35 -143 35t-135 -35q-41 -37 -41 -123zM358 1198l111 461h209l-90 -461h-230z" />
<glyph unicode="&#x124;" horiz-adv-x="1370" d="M158 0v1417h239v-581h586v581h242v-1417h-242v604h-586v-604h-239zM315 1606l271 295h213l270 -295h-264l-111 108l-108 -108h-271z" />
<glyph unicode="&#x125;" horiz-adv-x="1148" d="M152 0v1454h233v-467q166 59 274 60q205 0 281 -119t76 -391v-537h-236v535q0 160 -32 225q-35 68 -134 67q-47 0 -98 -8q-78 -12 -94 -16l-37 -10v-793h-233zM215 1552l264 336h189l266 -336h-252l-107 142l-108 -142h-252z" />
<glyph unicode="&#x126;" horiz-adv-x="1370" d="M27 1010v202h131v205h239v-205h586v205h242v-205h145v-202h-145v-1010h-242v604h-586v-604h-239v1010h-131zM397 836h586v174h-586v-174z" />
<glyph unicode="&#x127;" horiz-adv-x="1148" d="M41 1122v203h111v129h233v-129h301v-203h-301v-135q166 59 274 60q205 0 281 -119t76 -391v-537h-236v535q0 160 -32 225q-35 68 -134 67q-47 0 -98 -8q-78 -12 -94 -16l-37 -10v-793h-233v1122h-111z" />
<glyph unicode="&#x128;" horiz-adv-x="546" d="M-106 1778l34 34q29 29 76 58q57 35 102 35q66 0 193 -50q121 -47 145.5 -47t63.5 21q31 16 72 45l28 20l54 -180q-8 -10 -33 -35q-23 -23 -76 -55q-57 -35 -100 -35q-55 0 -184.5 49.5t-157.5 49.5q-25 0 -66 -23q-47 -25 -70 -43l-28 -23zM154 0v1417h241v-1417h-241z " />
<glyph unicode="&#x129;" horiz-adv-x="544" d="M-100 1403q8 10 32 35q23 23 76 55.5t101 32.5q70 0 174 -45q111 -47 127 -47q25 0 63 20q49 27 68 41l28 21l52 -179q-23 -27 -31 -34q-20 -16 -76 -52q-57 -35 -98 -34q-51 0 -164 47t-139.5 47t-65.5 -21q-33 -18 -65 -43l-29 -20zM156 0v1022h233v-1022h-233z" />
<glyph unicode="&#x12a;" horiz-adv-x="546" d="M-68 1677v203h686v-203h-686zM154 0v1417h241v-1417h-241z" />
<glyph unicode="&#x12b;" horiz-adv-x="544" d="M-49 1282v203h645v-203h-645zM156 0v1022h233v-1022h-233z" />
<glyph unicode="&#x12c;" horiz-adv-x="546" d="M-88 1903h244q14 -100 118 -101q51 0 84 27q35 29 37 74h242q-12 -132 -105 -215q-90 -82 -258 -82t-258 82q-92 83 -104 215zM154 0v1417h241v-1417h-241z" />
<glyph unicode="&#x12d;" horiz-adv-x="544" d="M-100 1522h241q12 -111 131 -111q121 0 134 111h241q-12 -145 -108 -232q-98 -88 -266.5 -88t-266.5 88q-94 85 -106 232zM156 0v1022h233v-1022h-233z" />
<glyph unicode="&#x12e;" horiz-adv-x="546" d="M33 -246q0 131 139 246h-18v1417h241v-1417h-2q-27 -20 -72 -73.5t-45 -98.5q0 -27 15 -43q16 -18 39 -18l84 8l22 -189q-117 -23 -192 -22q-94 0 -152 51q-59 53 -59 139z" />
<glyph unicode="&#x12f;" horiz-adv-x="524" d="M-995 0v1022h233v-1022h-233zM-995 1188v248h233v-248h-233zM18 -246q0 133 150 252q0 2 16 14l197 -18q-119 -104 -119 -174q0 -27 14 -43q14 -18 39 -18l84 8l23 -189q-117 -23 -193 -22q-94 0 -151 51q-60 53 -60 139z" />
<glyph unicode="&#x130;" horiz-adv-x="546" d="M154 0v1417h241v-1417h-241zM158 1620v244h233v-244h-233z" />
<glyph unicode="&#x131;" horiz-adv-x="532" d="M156 0v1022h233v-1022h-233z" />
<glyph unicode="&#x134;" horiz-adv-x="636" d="M-43 1606l270 295h213l271 -295h-265l-110 108l-109 -108h-270zM63 80q100 0 140 33q41 35 41 135v1169h239v-592q0 -137 1 -334.5t1 -259.5q0 -225 -94 -300.5t-328 -75.5v225z" />
<glyph unicode="&#x135;" horiz-adv-x="536" d="M-74 1196l264 336h189l266 -336h-252l-106 141l-109 -141h-252zM-68 -301q141 84 187 139q41 49 41 174v1010h233v-1012q0 -201 -71 -301q-70 -98 -285 -205z" />
<glyph unicode="&#x136;" horiz-adv-x="1214" d="M158 0v1417h239v-622l201 16l274 606h277l-336 -706l350 -711h-280l-281 580l-205 -17v-563h-239zM426 -618l92 460h227l-108 -460h-211z" />
<glyph unicode="&#x137;" horiz-adv-x="1044" d="M152 0v1446h233v-819l123 16l235 379h263l-289 -479l301 -543h-264l-242 414l-127 -17v-397h-233zM360 -618l93 460h227l-109 -460h-211z" />
<glyph unicode="&#x139;" horiz-adv-x="1009" d="M158 0v1417h239v-1186h549v-231h-788zM223 1769l500 191l78 -221l-506 -164z" />
<glyph unicode="&#x13a;" horiz-adv-x="528" d="M-23 1806l500 191l80 -221l-508 -164zM150 0v1446h233v-1446h-233z" />
<glyph unicode="&#x13b;" horiz-adv-x="1013" d="M158 0v1417h239v-1186h549v-231h-788zM346 -618l92 460h228l-109 -460h-211z" />
<glyph unicode="&#x13c;" horiz-adv-x="528" d="M57 -618l93 460h227l-109 -460h-211zM150 0v1446h233v-1446h-233z" />
<glyph unicode="&#x13d;" horiz-adv-x="1013" d="M158 0v1417h239v-1186h549v-231h-788zM700 903v514h226v-514h-226z" />
<glyph unicode="&#x13e;" horiz-adv-x="958" d="M150 0v1446h233v-1446h-233zM582 903v514h225v-514h-225z" />
<glyph unicode="&#x141;" horiz-adv-x="1013" d="M-59 573l217 152v692h239v-524l248 174l115 -158l-363 -254v-424h549v-231h-788v487l-103 -71z" />
<glyph unicode="&#x142;" horiz-adv-x="718" d="M14 567l230 160v719h233v-555l137 96l115 -160l-252 -176v-651h-233v487l-115 -79z" />
<glyph unicode="&#x143;" horiz-adv-x="1427" d="M158 0v1417h389l450 -1118h35v1118h242v-1417h-379l-463 1118h-35v-1118h-239zM426 1769l500 191l78 -221l-506 -164z" />
<glyph unicode="&#x144;" horiz-adv-x="1150" d="M152 0v1022h233v-51q160 76 274 76q205 0 281 -119t76 -393v-535h-234v532q0 160 -32 226q-35 70 -136 69q-40 0 -98 -12q-72 -14 -94 -22l-37 -13v-780h-233zM287 1380l499 191l80 -221l-508 -164z" />
<glyph unicode="&#x145;" horiz-adv-x="1427" d="M158 0v1417h389l450 -1118h35v1118h242v-1417h-379l-463 1118h-35v-1118h-239zM553 -618l92 460h227l-108 -460h-211z" />
<glyph unicode="&#x146;" horiz-adv-x="1150" d="M152 0v1022h233v-51q160 76 274 76q205 0 281 -119t76 -393v-535h-234v532q0 160 -32 226q-35 70 -136 69q-40 0 -98 -12q-72 -14 -94 -22l-37 -13v-780h-233zM408 -618l92 460h227l-109 -460h-210z" />
<glyph unicode="&#x147;" horiz-adv-x="1427" d="M158 0v1417h389l450 -1118h35v1118h242v-1417h-379l-463 1118h-35v-1118h-239zM338 1903h268l111 -115l108 115h265l-269 -295h-211z" />
<glyph unicode="&#x148;" horiz-adv-x="1150" d="M152 0v1022h233v-51q160 76 274 76q205 0 281 -119t76 -393v-535h-234v532q0 160 -32 226q-35 70 -136 69q-40 0 -98 -12q-72 -14 -94 -22l-37 -13v-780h-233zM217 1532h254l107 -139l104 139h254l-262 -336h-197z" />
<glyph unicode="&#x14a;" horiz-adv-x="1427" d="M158 0v1417h389l450 -1118h35v1118h242v-1417v-43q0 -225 -94.5 -301t-327.5 -76v225q100 0 139 33q41 35 41 135v27h-137l-463 1118h-35v-1118h-239z" />
<glyph unicode="&#x14b;" horiz-adv-x="1150" d="M150 0v1022h233v-51q170 76 285 76q193 0 270.5 -127t77.5 -385v-529q0 -213 -65.5 -305t-286.5 -201l-105 195q143 80 184 133q39 51 39 170v534q0 143 -34 224q-35 78 -127 78q-43 0 -101 -13q-37 -8 -98 -26l-39 -13v-782h-233z" />
<glyph unicode="&#x14c;" horiz-adv-x="1320" d="M90 698q0 377 127 559.5t444.5 182.5t444.5 -182.5t127 -559.5q0 -375 -127 -548q-127 -172 -444 -173q-319 0 -445 175q-127 175 -127 546zM317 1659v203h687v-203h-687zM338 698.5q0 -264.5 67.5 -377t256 -112.5t256 112.5t67.5 377t-67.5 387t-256 122.5t-256 -122.5 t-67.5 -387z" />
<glyph unicode="&#x14d;" horiz-adv-x="1081" d="M82 516q0 262 106 395q106 135 355 136q244 0 352 -136q106 -133 106 -395t-104 -401q-104 -137 -354 -138q-252 0 -356.5 135.5t-104.5 403.5zM219 1282v203h645v-203h-645zM319 516q0 -176 45.5 -252t178.5 -76q131 0 176 76t45 252q0 164 -49 242q-49 76 -172 76 q-127 0 -176 -74q-48 -72 -48 -244z" />
<glyph unicode="&#x14e;" horiz-adv-x="1320" d="M90 698q0 377 127 559.5t444.5 182.5t444.5 -182.5t127 -559.5q0 -375 -127 -548q-127 -172 -444 -173q-319 0 -445 175q-127 175 -127 546zM301 1903h242q14 -100 119 -101q51 0 83 27q35 29 37 74h242q-12 -132 -104 -215q-90 -82 -258 -82q-166 0 -256 82 q-93 83 -105 215zM338 698.5q0 -264.5 67.5 -377t256 -112.5t256 112.5t67.5 377t-67.5 387t-256 122.5t-256 -122.5t-67.5 -387z" />
<glyph unicode="&#x14f;" horiz-adv-x="1081" d="M82 516q0 262 106 395q106 135 355 136q244 0 352 -136q106 -133 106 -395t-104 -401q-104 -137 -354 -138q-252 0 -356.5 135.5t-104.5 403.5zM168 1522h242q12 -111 133 -111t131 111h241q-12 -147 -106 -232q-98 -88 -266 -88t-267 88q-96 87 -108 232zM319 516 q0 -176 45.5 -252t178.5 -76q131 0 176 76t45 252q0 164 -49 242q-49 76 -172 76q-127 0 -176 -74q-48 -72 -48 -244z" />
<glyph unicode="&#x150;" horiz-adv-x="1320" d="M90 698q0 377 127 559.5t444.5 182.5t444.5 -182.5t127 -559.5q0 -375 -127 -548q-127 -172 -444 -173q-319 0 -445 175q-127 175 -127 546zM289 1622l188 360l213 -86l-207 -350zM338 698.5q0 -264.5 67.5 -377t256 -112.5t256 112.5t67.5 377t-67.5 387t-256 122.5 t-256 -122.5t-67.5 -387zM725 1622l188 358l211 -86l-204 -350z" />
<glyph unicode="&#x151;" horiz-adv-x="1081" d="M82 516q0 262 106 395q106 135 355 136q244 0 352 -136q106 -133 106 -395t-104 -401q-104 -137 -354 -138q-252 0 -356.5 135.5t-104.5 403.5zM131 1284l258 352l186 -118l-272 -353zM319 516q0 -176 45.5 -252t178.5 -76q131 0 176 76t45 252q0 164 -49 242 q-49 76 -172 76q-127 0 -176 -74q-48 -72 -48 -244zM541 1284l258 354l186 -120l-270 -353z" />
<glyph unicode="&#x152;" horiz-adv-x="1931" d="M123 707q0 397 118.5 565t417.5 168q111 0 256 -23h881v-231h-643v-350h520v-230h-520v-375h643v-231h-878q-152 -23 -259 -23q-164 0 -268 43q-100 41 -162 142q-57 94 -81.5 223t-24.5 322zM371 707q0 -285 63 -388q66 -106 264 -106q59 0 217 14v963q-158 14 -223 14 q-186 0 -253.5 -104t-67.5 -393z" />
<glyph unicode="&#x153;" horiz-adv-x="1792" d="M119 516q0 262 106 395q106 135 355 136q240 0 342 -140q109 139 325.5 139.5t325 -114.5t108.5 -352l-16 -168h-627q4 -119 54 -168q53 -53 174 -54q164 0 376 19l5 -182q-233 -49 -416 -50q-217 0 -320 121q-104 -121 -331 -121q-252 0 -356.5 135.5t-104.5 403.5z M358 516q0 -174 48 -252q45 -76 174 -76q131 0 176 76t45 252q0 164 -49 242q-49 76 -172 76q-125 0 -174 -74q-48 -72 -48 -244zM1036 594h414q0 135 -45 188q-45 55 -158 56q-111 0 -160 -58q-51 -61 -51 -186z" />
<glyph unicode="&#x154;" horiz-adv-x="1259" d="M158 0v1417h534q244 0 363 -108q117 -109 116 -348q0 -297 -223 -408l223 -553h-264l-194 483h-316v-483h-239zM340 1769l500 191l78 -221l-506 -164zM397 713h299q227 0 228 243q0 231 -232 232h-295v-475z" />
<glyph unicode="&#x155;" horiz-adv-x="733" d="M86 1380l500 191l80 -221l-508 -164zM152 0v1022h233v-109q131 98 309 134v-250q-186 -37 -309 -107v-690h-233z" />
<glyph unicode="&#x156;" horiz-adv-x="1261" d="M158 0v1417h534q244 0 363 -108q117 -109 116 -348q0 -297 -223 -408l223 -553h-264l-194 483h-316v-483h-239zM397 713h299q227 0 228 243q0 231 -232 232h-295v-475zM465 -618l92 460h227l-108 -460h-211z" />
<glyph unicode="&#x157;" horiz-adv-x="733" d="M55 -618l92 460h228l-109 -460h-211zM152 0v1022h233v-109q131 98 309 134v-250q-186 -37 -309 -107v-690h-233z" />
<glyph unicode="&#x158;" horiz-adv-x="1259" d="M158 0v1417h534q244 0 363 -108q117 -109 116 -348q0 -297 -223 -408l223 -553h-264l-194 483h-316v-483h-239zM254 1905h268l111 -115l108 115h265l-269 -295h-211zM397 713h299q227 0 228 243q0 231 -232 232h-295v-475z" />
<glyph unicode="&#x159;" horiz-adv-x="733" d="M16 1532h254l107 -139l104 139h254l-262 -336h-197zM152 0v1022h233v-109q131 98 309 134v-250q-186 -37 -309 -107v-690h-233z" />
<glyph unicode="&#x15a;" horiz-adv-x="1085" d="M72 1036q0 199 129 303q127 102 362 103q68 0 176 -12q102 -12 176 -25l72 -14l-18 -215q-276 33 -406 32q-252 0 -252 -168q0 -86 60 -127q57 -39 247 -92q225 -66 314 -151q86 -84 86 -262q0 -215 -129 -322q-131 -109 -354 -109q-68 0 -177 13q-72 8 -182 26l-74 15 l25 215q268 -35 405 -35q123 0 185 45q59 43 59 145q0 80 -55 123q-57 45 -215 84q-240 61 -336 152q-98 92 -98 276zM270 1769l500 191l78 -221l-506 -164z" />
<glyph unicode="&#x15b;" horiz-adv-x="1009" d="M102 723q0 164 111 244t276 80q143 0 390 -48l-5 -198q-238 33 -368 33q-94 0 -131 -23q-39 -25 -39 -82q0 -49 41 -67q37 -16 172 -39q207 -35 282 -101q78 -68 78 -217q0 -328 -407 -328q-80 0 -160 11q-129 16 -160 22l-63 13l8 198q242 -33 352.5 -33t153.5 25t43 86 q0 49 -37 70q-33 18 -160 41q-211 35 -293 98q-84 65 -84 215zM217 1380l500 191l80 -221l-508 -164z" />
<glyph unicode="&#x15c;" horiz-adv-x="1085" d="M72 1036q0 199 129 303q127 102 362 103q68 0 176 -12q102 -12 176 -25l72 -14l-18 -215q-276 33 -406 32q-252 0 -252 -168q0 -86 60 -127q57 -39 247 -92q225 -66 314 -151q86 -84 86 -262q0 -215 -129 -322q-131 -109 -354 -109q-68 0 -177 13q-72 8 -182 26l-74 15 l25 215q268 -35 405 -35q123 0 185 45q59 43 59 145q0 80 -55 123q-57 45 -215 84q-240 61 -336 152q-98 92 -98 276zM184 1616l271 295h213l270 -295h-264l-111 108l-108 -108h-271z" />
<glyph unicode="&#x15d;" horiz-adv-x="1009" d="M102 723q0 164 111 244t276 80q143 0 390 -48l-5 -198q-238 33 -368 33q-94 0 -131 -23q-39 -25 -39 -82q0 -49 41 -67q37 -16 172 -39q207 -35 282 -101q78 -68 78 -217q0 -328 -407 -328q-80 0 -160 11q-129 16 -160 22l-63 13l8 198q242 -33 352.5 -33t153.5 25t43 86 q0 49 -37 70q-33 18 -160 41q-211 35 -293 98q-84 65 -84 215zM145 1196l265 336h188l266 -336h-252l-106 141l-109 -141h-252z" />
<glyph unicode="&#x15e;" horiz-adv-x="1085" d="M72 1036q0 199 129 303q127 102 362 103q68 0 176 -12q102 -12 176 -25l72 -14l-18 -215q-276 33 -406 32q-252 0 -252 -168q0 -86 60 -127q57 -39 247 -92q225 -66 314 -151q86 -84 86 -262q0 -195 -106.5 -301.5t-297.5 -124.5v-66q129 -4 187 -39q57 -37 57 -137 q0 -106 -57 -164q-53 -53 -158 -53q-40 0 -86 6q-12 2 -37.5 4t-36.5 4l-26 6l8 140q94 -4 110 -5q82 0 82 62q0 53 -82 53h-61v184q-80 4 -172 15q-72 8 -172 26l-68 13l25 215q268 -35 405 -35q123 0 185 45q59 43 59 145q0 80 -55 123q-57 45 -215 84q-240 61 -336 152 q-98 92 -98 276z" />
<glyph unicode="&#x15f;" horiz-adv-x="1009" d="M102 723q0 164 111 244t276 80q160 0 390 -48l-5 -198q-238 33 -368 33q-94 0 -131 -23q-39 -25 -39 -82q0 -49 41 -67q37 -16 172 -39q207 -35 282 -101q78 -68 78 -217q0 -313 -368 -325v-64q129 -4 186 -39q57 -37 57 -137q0 -106 -57 -164q-53 -53 -158 -53 q-40 0 -86 6q-12 2 -38.5 4t-34.5 4l-27 6l8 140q94 -4 111 -5q82 0 82 62q0 53 -82 53h-62v187q-53 2 -143 16q-23 4 -67 9t-62 9l-49 9l8 198q242 -33 352.5 -33t153.5 25t43 86q0 49 -37 70q-33 18 -160 41q-211 35 -293 98q-84 65 -84 215z" />
<glyph unicode="&#x160;" horiz-adv-x="1085" d="M72 1036q0 199 129 303q127 102 362 103q68 0 176 -12q102 -12 176 -25l72 -14l-18 -215q-276 33 -406 32q-252 0 -252 -168q0 -86 60 -127q57 -39 247 -92q225 -66 314 -151q86 -84 86 -262q0 -215 -129 -322q-131 -109 -354 -109q-68 0 -177 13q-72 8 -182 26l-74 15 l25 215q268 -35 405 -35q123 0 185 45q59 43 59 145q0 80 -55 123q-57 45 -215 84q-240 61 -336 152q-98 92 -98 276zM188 1907h269l110 -115l109 115h264l-268 -295h-211z" />
<glyph unicode="&#x161;" horiz-adv-x="1009" d="M102 723q0 164 111 244t276 80q143 0 390 -48l-5 -198q-238 33 -368 33q-94 0 -131 -23q-39 -25 -39 -82q0 -49 41 -67q37 -16 172 -39q207 -35 282 -101q78 -68 78 -217q0 -328 -407 -328q-80 0 -160 11q-129 16 -160 22l-63 13l8 198q242 -33 352.5 -33t153.5 25t43 86 q0 49 -37 70q-33 18 -160 41q-211 35 -293 98q-84 65 -84 215zM168 1532h254l106 -139l105 139h254l-262 -336h-197z" />
<glyph unicode="&#x162;" horiz-adv-x="989" d="M-16 1186v231h1024v-231h-390v-1186h-241v1186h-393zM336 -618l92 460h227l-108 -460h-211z" />
<glyph unicode="&#x163;" horiz-adv-x="735" d="M39 811v211h129v297h233v-297h277v-211h-277v-418q0 -121 17 -155q18 -39 90 -39l166 6l10 -201q-143 -29 -209 -29q-178 0 -242 82q-66 84 -65 303v451h-129zM201 -618l92 460h227l-108 -460h-211z" />
<glyph unicode="&#x164;" horiz-adv-x="989" d="M-16 1186v231h1024v-231h-390v-1186h-241v1186h-393zM119 1905h268l111 -115l108 115h264l-268 -295h-211z" />
<glyph unicode="&#x165;" horiz-adv-x="1050" d="M39 811v211h129v297h233v-297h277v-211h-277v-418q0 -121 17 -155q18 -39 90 -39l166 6l10 -201q-143 -29 -209 -29q-178 0 -242 82q-66 84 -65 303v451h-129zM774 903v514h225v-514h-225z" />
<glyph unicode="&#x166;" horiz-adv-x="989" d="M-16 1186v231h1024v-231h-390v-432h306v-203h-306v-551h-241v551h-289v203h289v432h-393z" />
<glyph unicode="&#x167;" horiz-adv-x="735" d="M39 811v211h129v297h233v-297h277v-211h-277v-186h-233v186h-129zM61 422v203h107v-203h-107zM168 360v62h233v-29q0 -121 17 -155q18 -39 90 -39l166 6l10 -201q-143 -29 -209 -29q-178 0 -242 82q-65 84 -65 303zM401 422v203h254v-203h-254z" />
<glyph unicode="&#x168;" horiz-adv-x="1318" d="M135 457v960h242v-960q0 -129 72 -185q71 -55 202 -55q133 0 207 55.5t74 184.5v960h242v-960q0 -249 -130 -363q-127 -113 -393 -112q-260 0 -387 112q-129 114 -129 363zM262 1794q8 10 32.5 34.5t78.5 57.5q57 35 102 35q70 0 191 -47q126 -49 147 -49q23 0 64 22 q55 29 69 41l31 23l53 -180q-8 -10 -33 -35q-20 -20 -77.5 -55t-100.5 -35q-55 0 -184 49t-158 49q-25 0 -65 -23q-39 -20 -70 -45l-29 -20z" />
<glyph unicode="&#x169;" horiz-adv-x="1144" d="M137 487v535h234v-533q0 -176 28 -239q27 -61 140 -62q41 0 96 13q68 14 90 22l37 13v786h233v-1022h-233v51q-160 -74 -270 -74q-213 0 -283 113q-72 114 -72 397zM201 1403q8 10 32 35q23 23 76 55.5t101 32.5q68 0 172 -45q111 -47 129 -47q23 0 61 20q55 29 70 41 l28 21l52 -179q-23 -27 -31 -34q-20 -16 -76 -52q-57 -35 -98 -34q-53 0 -166 47t-139.5 47t-65.5 -21q-33 -18 -65 -43l-29 -20z" />
<glyph unicode="&#x16a;" horiz-adv-x="1318" d="M135 457v960h242v-960q0 -129 72 -185q71 -55 202 -55q133 0 207 55.5t74 184.5v960h242v-960q0 -249 -130 -363q-127 -113 -393 -112q-260 0 -387 112q-129 114 -129 363zM317 1659v203h687v-203h-687z" />
<glyph unicode="&#x16b;" horiz-adv-x="1144" d="M137 487v535h234v-533q0 -176 28 -239q27 -61 140 -62q41 0 96 13q68 14 90 22l37 13v786h233v-1022h-233v51q-160 -74 -270 -74q-213 0 -283 113q-72 114 -72 397zM252 1282v203h645v-203h-645z" />
<glyph unicode="&#x16c;" horiz-adv-x="1318" d="M135 457v960h242v-960q0 -129 72 -185q71 -55 202 -55q133 0 207 55.5t74 184.5v960h242v-960q0 -249 -130 -363q-127 -113 -393 -112q-260 0 -387 112q-129 114 -129 363zM299 1903h242q14 -100 120.5 -100.5t120.5 100.5h242q-12 -131 -106 -215q-90 -82 -256 -82 q-168 0 -259 82q-92 83 -104 215z" />
<glyph unicode="&#x16d;" horiz-adv-x="1144" d="M137 487v535h234v-533q0 -176 28 -239q27 -61 140 -62q41 0 96 13q68 14 90 22l37 13v786h233v-1022h-233v51q-160 -74 -270 -74q-213 0 -283 113q-72 114 -72 397zM199 1522h241q12 -111 133 -111q119 0 132 111h241q-12 -145 -108 -232q-98 -88 -265 -88 q-170 0 -268 88q-94 85 -106 232z" />
<glyph unicode="&#x16e;" horiz-adv-x="1318" d="M135 457v960h242v-960q0 -129 72 -185q71 -55 202 -55q133 0 207 55.5t74 184.5v960h242v-960q0 -249 -130 -363q-127 -113 -393 -112q-260 0 -387 112q-129 114 -129 363zM375 1722.5q0 112.5 82 178t204.5 65.5t204.5 -65q80 -65 80 -179q0 -115 -82 -178 q-84 -66 -202 -65q-123 0 -205 65.5t-82 178zM557 1722q0 -39 26.5 -59.5t78.5 -20.5q49 0 75.5 20.5t26.5 59.5q0 37 -27 58q-29 23 -76 22.5t-75.5 -23t-28.5 -57.5z" />
<glyph unicode="&#x16f;" horiz-adv-x="1144" d="M137 487v535h234v-533q0 -176 28 -239q27 -61 140 -62q41 0 96 13q68 14 90 22l37 13v786h233v-1022h-233v51q-160 -74 -270 -74q-213 0 -283 113q-72 114 -72 397zM346 1311q0 94 66 164q63 68 163 67q96 0 164 -67.5t68 -163.5q0 -100 -66 -164q-70 -66 -166 -66 q-98 0 -163.5 66t-65.5 164zM502 1310.5q0 -30.5 22.5 -53t53 -22.5t53.5 22q20 20 20 53t-20 54q-23 23 -53.5 22.5t-53 -23t-22.5 -53z" />
<glyph unicode="&#x170;" horiz-adv-x="1318" d="M135 457v960h242v-960q0 -129 72 -185q71 -55 202 -55q133 0 207 55.5t74 184.5v960h242v-960q0 -249 -130 -363q-127 -113 -393 -112q-260 0 -387 112q-129 114 -129 363zM285 1612l188 358l213 -86l-207 -348zM721 1610l188 358l213 -86l-207 -348z" />
<glyph unicode="&#x171;" horiz-adv-x="1144" d="M137 487v535h234v-533q0 -176 28 -239q27 -61 140 -62q41 0 96 13q68 14 90 22l37 13v786h233v-1022h-233v51q-160 -74 -270 -74q-213 0 -283 113q-72 114 -72 397zM217 1284l260 352l185 -118l-271 -353zM629 1284l258 354l186 -120l-272 -353z" />
<glyph unicode="&#x172;" horiz-adv-x="1318" d="M135 457v960h242v-960q0 -129 72 -185q71 -55 202 -55q133 0 207 55.5t74 184.5v960h242v-960q0 -378 -320 -455h8q-119 -104 -119 -174q0 -27 15 -43q16 -18 39 -18l84 8l22 -189q-117 -23 -192 -22q-94 0 -152 51q-59 53 -59 139q0 119 118 228q-246 10 -362 120 q-121 115 -121 355z" />
<glyph unicode="&#x173;" horiz-adv-x="1144" d="M137 487v535h234v-533q0 -176 28 -239q27 -61 140 -62q41 0 96 13q68 14 90 22l37 13v786h233v-1022h-8l2 2l-196 18l-27 -20h-4v51q-160 -74 -270 -74q-213 0 -283 113q-72 114 -72 397zM627 -246q0 131 139 246h221q-27 -20 -72 -73.5t-45 -98.5q0 -27 15 -43 q16 -18 39 -18l84 8l22 -189q-117 -23 -192 -22q-94 0 -152 51q-59 53 -59 139z" />
<glyph unicode="&#x174;" horiz-adv-x="1896" d="M57 1417h252l230 -1171h41l233 1167h272l238 -1167h39l227 1171h252l-311 -1417h-375l-207 1061l-203 -1061h-374zM571 1616l271 295h213l270 -295h-264l-111 108l-108 -108h-271z" />
<glyph unicode="&#x175;" horiz-adv-x="1538" d="M35 1022h231l152 -811h45l184 793h246l184 -793h45l152 811h231l-209 -1022h-378l-150 684l-150 -684h-374zM412 1196l264 336h188l266 -336h-251l-107 141l-108 -141h-252z" />
<glyph unicode="&#x176;" horiz-adv-x="1155" d="M27 1417h268l285 -543l282 543h268l-428 -813v-604h-241v606zM201 1616l270 295h213l270 -295h-264l-110 108l-109 -108h-270z" />
<glyph unicode="&#x177;" horiz-adv-x="989" d="M27 1022h231l211 -795h53l211 795h232l-381 -1458h-232l113 436h-172zM135 1196l264 336h189l266 -336h-252l-106 141l-109 -141h-252z" />
<glyph unicode="&#x178;" horiz-adv-x="1155" d="M27 1417h268l285 -543l282 543h268l-428 -813v-604h-241v606zM250 1645v241h223v-241h-223zM694 1645v241h224v-241h-224z" />
<glyph unicode="&#x179;" horiz-adv-x="1165" d="M123 0v246l616 905v35h-616v231h921v-246l-616 -907v-33h616v-231h-921zM293 1769l500 191l77 -221l-505 -164z" />
<glyph unicode="&#x17a;" horiz-adv-x="976" d="M109 0v211l479 602h-479v211h759v-211l-477 -602h477v-211h-759zM184 1380l500 191l80 -221l-508 -164z" />
<glyph unicode="&#x17b;" horiz-adv-x="1165" d="M123 0v246l616 905v35h-616v231h921v-246l-616 -907v-33h616v-231h-921zM467 1620v244h233v-244h-233z" />
<glyph unicode="&#x17c;" horiz-adv-x="976" d="M109 0v211l479 602h-479v211h759v-211l-477 -602h477v-211h-759zM371 1176v243h235v-243h-235z" />
<glyph unicode="&#x17d;" horiz-adv-x="1165" d="M123 0v246l616 905v35h-616v231h921v-246l-616 -907v-33h616v-231h-921zM225 1907h269l110 -115l109 115h264l-268 -295h-211z" />
<glyph unicode="&#x17e;" horiz-adv-x="976" d="M109 0v211l479 602h-479v211h759v-211l-477 -602h477v-211h-759zM113 1532h254l106 -139l105 139h253l-262 -336h-196z" />
<glyph unicode="&#x192;" d="M143 -297l35 -2q51 0 82 -2t72 -2q121 0 121 168v899h-117v211h117v67q0 219 59 304q61 86 217 92q43 0 88 -4l150 -17l-2 -192q-127 4 -162 4q-63 0 -90 -39t-27 -133v-82h266v-211h-266v-899q0 -207 -88 -287q-90 -80 -266 -80q-66 0 -189 23v182z" />
<glyph unicode="&#x1fa;" horiz-adv-x="1236" d="M47 0l326 1362v2q-37 52 -37 129q0 113 82 178.5t202.5 65.5t204.5 -66q82 -63 82 -178q0 -71 -37 -129l322 -1364h-242l-78 279h-514l-69 -279h-242zM313 1970l500 191l80 -222l-508 -163zM410 510h415l-157 686h-97zM518 1493q0 -57 64 -76h77q66 16 66 76q0 37 -29 59 q-27 20 -76 20.5t-75.5 -20t-26.5 -59.5z" />
<glyph unicode="&#x1fb;" horiz-adv-x="1075" d="M88 305q0 156 84 227.5t258 83.5l254 21v61q0 59 -35 90q-37 33 -92 33q-68 0 -166 -6q-27 -2 -164 -8l-65 -4l-8 198q258 45 415 46q178 0 262 -82q86 -84 87 -265v-421q4 -53 20 -74q16 -18 63 -29l-8 -199q-109 0 -168 17q-53 14 -106 55q-178 -72 -334 -72 q-143 0 -219 86q-78 88 -78 242zM248 1780l500 190l79 -221l-508 -164zM301 1278q0 98 66 164q68 68 165 67q94 0 162 -67.5t68 -163.5q0 -100 -66 -164q-70 -66 -164 -65q-96 0 -165 65q-66 64 -66 164zM324 311q0 -133 104 -133t256 41v236l-225 -13q-135 -12 -135 -131z M459 1278q0 -33 22 -55q20 -20 53 -20.5t53.5 20t20.5 55.5q0 33 -22 55q-20 20 -51 21q-33 0 -54 -21q-22 -22 -22 -55z" />
<glyph unicode="&#x1fc;" horiz-adv-x="1671" d="M92 0l406 1417h1263v-229h-647v-352h524v-230h-524v-377h647v-229h-884v279h-461l-80 -279h-244zM475 510h402l2 678h-211zM559 1769l500 191l78 -221l-506 -164z" />
<glyph unicode="&#x1fd;" horiz-adv-x="1693" d="M109 305q0 164 88 232q92 70 272 81l236 19v61q0 59 -35 90q-37 33 -92 33q-68 0 -166 -6q-29 -2 -85.5 -4t-78.5 -4l-66 -6l-8 205q270 41 416 41q186 0 268 -101q100 100 289 101q217 0 325.5 -115t108.5 -352l-16 -168h-627q4 -119 53 -168q53 -53 174 -54 q164 0 379 19l4 -182q-237 -49 -418 -50q-209 0 -309 103l-53 -25q-178 -78 -365 -78q-141 0 -219 86q-75 84 -75 242zM344 311q0 -133 105 -133q47 0 114 12q82 14 105 21q41 10 47 12q-12 104 -13 232l-223 -13q-135 -8 -135 -131zM578 1380l499 191l80 -221l-508 -164z M938 594h412q0 131 -47 188q-45 55 -156 55.5t-160 -57.5q-49 -59 -49 -186z" />
<glyph unicode="&#x1fe;" horiz-adv-x="1341" d="M90 698q0 377 127 559.5t445 182.5q115 0 208 -27l115 246l217 -82l-131 -283q162 -174 162 -596q0 -375 -127 -548q-127 -172 -444 -173q-100 0 -195 21l-119 -254l-213 94l125 266q-170 164 -170 594zM338 698q0 -233 45 -331l385 827q-49 14 -106 14q-186 0 -254 -123 q-70 -127 -70 -387zM350 1769l500 191l78 -221l-506 -164zM569 217q33 -8 93 -8q188 0 255.5 112.5t67.5 376.5q0 209 -41 326z" />
<glyph unicode="&#x1ff;" horiz-adv-x="1081" d="M82 516q0 262 106 395q106 135 355 136q68 0 127 -13l82 209l145 -55l-86 -207q190 -117 190 -465q0 -262 -104 -401q-104 -137 -354 -138q-76 0 -137 13l-89 -213l-143 53l90 213q-182 117 -182 473zM252 1380l500 191l79 -221l-507 -164zM319 516q0 -180 46 -250 l223 563q-18 4 -45 5q-127 0 -176 -74q-48 -72 -48 -244zM483 193q25 -4 60 -5q131 0 176 76t45 252q0 172 -51 244z" />
<glyph unicode="&#x218;" horiz-adv-x="1085" d="M72 1036q0 199 129 303q127 102 362 103q68 0 176 -12q102 -12 176 -25l72 -14l-18 -215q-276 33 -406 32q-252 0 -252 -168q0 -86 60 -127q57 -39 247 -92q225 -66 314 -151q86 -84 86 -262q0 -215 -129 -322q-131 -109 -354 -109q-68 0 -177 13q-72 8 -182 26l-74 15 l25 215q268 -35 405 -35q123 0 185 45q59 43 59 145q0 80 -55 123q-57 45 -215 84q-240 61 -336 152q-98 92 -98 276zM352 -618l92 460h228l-109 -460h-211z" />
<glyph unicode="&#x219;" horiz-adv-x="1009" d="M102 723q0 164 111 244t276 80q143 0 390 -48l-5 -198q-238 33 -368 33q-94 0 -131 -23q-39 -25 -39 -82q0 -49 41 -67q37 -16 172 -39q207 -35 282 -101q78 -68 78 -217q0 -328 -407 -328q-80 0 -160 11q-129 16 -160 22l-63 13l8 198q242 -33 352.5 -33t153.5 25t43 86 q0 49 -37 70q-33 18 -160 41q-211 35 -293 98q-84 65 -84 215zM344 -618l92 460h228l-109 -460h-211z" />
<glyph unicode="&#x2c6;" horiz-adv-x="524" d="M-74 1196l264 336h189l266 -336h-252l-106 141l-109 -141h-252z" />
<glyph unicode="&#x2c7;" horiz-adv-x="524" d="M-63 1532h253l107 -139l104 139h254l-262 -336h-196z" />
<glyph unicode="&#x2d8;" horiz-adv-x="524" d="M-88 1522h242q12 -111 133 -111q123 0 131 111h244q-12 -145 -109 -232q-98 -88 -266 -88t-267 88q-96 87 -108 232z" />
<glyph unicode="&#x2d9;" horiz-adv-x="524" d="M147 1176v243h234v-243h-234z" />
<glyph unicode="&#x2da;" horiz-adv-x="524" d="M39 1311q0 96 67.5 163.5t163.5 67.5q94 0 162 -67.5t68 -163.5q0 -100 -66 -164q-70 -66 -164 -66t-164 66q-67 66 -67 164zM197 1311q0 -31 22.5 -53.5t52.5 -22.5q29 0 51.5 22.5t22.5 53t-22.5 53t-51.5 22.5q-33 0 -55 -22q-20 -20 -20 -53z" />
<glyph unicode="&#x2db;" horiz-adv-x="952" d="M428 -246q0 133 150 252q0 2 16 14l197 -18q-119 -104 -119 -174q0 -27 14 -43q14 -18 39 -18l84 8l22 -189q-117 -23 -192 -22q-94 0 -152 51q-59 53 -59 139z" />
<glyph unicode="&#x2dc;" horiz-adv-x="524" d="M-72 1403q8 10 33 35q23 23 76 55.5t100 32.5q68 0 172 -45q111 -47 129 -47q25 0 64 20q49 27 67 41l29 21l51 -179q-16 -20 -31 -34q-12 -12 -75 -52q-57 -35 -99 -34q-53 0 -165.5 47t-139 47t-65.5 -21q-40 -22 -68 -43l-26 -20z" />
<glyph unicode="&#x2dd;" horiz-adv-x="524" d="M-102 1284l258 352l186 -118l-272 -353zM307 1284l258 354l187 -120l-273 -353z" />
<glyph unicode="&#x300;" horiz-adv-x="524" d="M18 1362l74 207l500 -189l-68 -184z" />
<glyph unicode="&#x301;" horiz-adv-x="524" d="M-14 1380l499 191l80 -221l-508 -164z" />
<glyph unicode="&#x302;" horiz-adv-x="524" d="M-55 1196l264 336h188l267 -336h-252l-107 141l-108 -141h-252z" />
<glyph unicode="&#x303;" horiz-adv-x="524" d="M-72 1403q8 10 33 35q23 23 76 55.5t100 32.5q68 0 172 -45q111 -47 129 -47q25 0 64 20q49 27 67 41l29 21l51 -179q-16 -20 -31 -34q-12 -12 -75 -52q-57 -35 -99 -34q-53 0 -165.5 47t-139 47t-65.5 -21q-40 -22 -68 -43l-26 -20z" />
<glyph unicode="&#x304;" horiz-adv-x="524" d="M-49 1282v203h645v-203h-645z" />
<glyph unicode="&#x306;" horiz-adv-x="524" d="M-88 1522h242q12 -111 133 -111q123 0 131 111h244q-12 -145 -109 -232q-98 -88 -266 -88t-267 88q-96 87 -108 232z" />
<glyph unicode="&#x307;" horiz-adv-x="524" d="M147 1176v243h234v-243h-234z" />
<glyph unicode="&#x308;" horiz-adv-x="524" d="M-49 1253v242h223v-242h-223zM383 1253v242h223v-242h-223z" />
<glyph unicode="&#x30a;" horiz-adv-x="524" d="M47 1310.5q0 98.5 66 164.5q68 68 166 67q96 0 163 -67q66 -66 66 -164q0 -100 -66 -164q-70 -66 -164 -66t-163 66q-68 65 -68 163.5zM205 1310.5q0 -30.5 22.5 -53t53 -22.5t53.5 22q20 20 20 54q0 31 -22.5 53t-50.5 22q-31 0 -53.5 -22.5t-22.5 -53z" />
<glyph unicode="&#x30b;" horiz-adv-x="524" d="M-102 1284l258 352l186 -118l-272 -353zM307 1284l258 354l187 -120l-273 -353z" />
<glyph unicode="&#x30c;" horiz-adv-x="524" d="M-80 1532h254l107 -139l104 139h254l-262 -336h-197z" />
<glyph unicode="&#x312;" horiz-adv-x="346" d="M8 1198l111 461h209l-90 -461h-230z" />
<glyph unicode="&#x315;" horiz-adv-x="339" d="M49 903v514h225v-514h-225z" />
<glyph unicode="&#x326;" horiz-adv-x="346" d="M8 -618l92 460h228l-109 -460h-211z" />
<glyph unicode="&#x327;" horiz-adv-x="1523" d="M666 -457l8 140q94 -4 110 -5q82 0 82 62q0 53 -82 53h-61v209h100v-86q129 -4 187 -39q57 -37 57 -137q0 -106 -57 -164q-53 -53 -158 -53q-40 0 -86 6q-12 2 -38 4t-36 4z" />
<glyph unicode="&#x328;" horiz-adv-x="952" d="M428 -246q0 133 150 252q0 2 16 14l197 -18q-119 -104 -119 -174q0 -27 14 -43q14 -18 39 -18l84 8l22 -189q-117 -23 -192 -22q-94 0 -152 51q-59 53 -59 139z" />
<glyph unicode="&#x394;" d="M68 0v197l278 1204h399l277 -1206v-195h-954zM311 217h469l-213 967h-41z" />
<glyph unicode="&#x2206;" d="M68 0v197l278 1204h399l277 -1206v-195h-954zM311 217h469l-213 967h-41z" />
<glyph unicode="&#x3a9;" d="M70 758q0 324 106 471q104 143 367 143q264 0 368.5 -143.5t104.5 -470.5q0 -270 -160 -537l-18 -31h176v-208h-418v188q10 16 49 86q33 59 80 201q49 147 49 264q0 225 -47 330q-45 100 -184 100q-145 0 -188.5 -98.5t-43.5 -331.5q0 -119 45 -254q47 -141 88 -217 l45 -80v-188h-417v208h176q-4 4 -19 29l-43 82q-25 47 -53 125q-27 68 -43 154q-20 102 -20 178z" />
<glyph unicode="&#x2126;" d="M70 758q0 324 106 471q104 143 367 143q264 0 368.5 -143.5t104.5 -470.5q0 -270 -160 -537l-18 -31h176v-208h-418v188q10 16 49 86q33 59 80 201q49 147 49 264q0 225 -47 330q-45 100 -184 100q-145 0 -188.5 -98.5t-43.5 -331.5q0 -119 45 -254q47 -141 88 -217 l45 -80v-188h-417v208h176q-4 4 -19 29l-43 82q-25 47 -53 125q-27 68 -43 154q-20 102 -20 178z" />
<glyph unicode="&#x3c0;" d="M8 791v206q66 12 127 17q29 2 129 8l51 2h443q197 0 295 33v-207q-51 -25 -164 -31v-504q0 -74 31 -102q29 -27 122 -27v-202q-166 0 -254 32q-82 31 -108.5 96.5t-26.5 202.5v502h-221l-55 -817h-236l56 817q-61 -4 -91 -8q-49 -6 -71 -12z" />
<glyph unicode="&#x1e80;" horiz-adv-x="1896" d="M57 1417h252l230 -1171h41l233 1167h272l238 -1167h39l227 1171h252l-311 -1417h-375l-207 1061l-203 -1061h-374zM692 1722l78 220l500 -189l-72 -197z" />
<glyph unicode="&#x1e81;" horiz-adv-x="1538" d="M35 1022h231l152 -811h45l184 793h246l184 -793h45l152 811h231l-209 -1022h-378l-150 684l-150 -684h-374zM485 1362l74 207l500 -189l-68 -184z" />
<glyph unicode="&#x1e82;" horiz-adv-x="1896" d="M57 1417h252l230 -1171h41l233 1167h272l238 -1167h39l227 1171h252l-311 -1417h-375l-207 1061l-203 -1061h-374zM664 1769l499 191l78 -221l-506 -164z" />
<glyph unicode="&#x1e83;" horiz-adv-x="1538" d="M35 1022h231l152 -811h45l184 793h246l184 -793h45l152 811h231l-209 -1022h-378l-150 684l-150 -684h-374zM479 1380l500 191l80 -221l-508 -164z" />
<glyph unicode="&#x1e84;" horiz-adv-x="1896" d="M57 1417h252l230 -1171h41l233 1167h272l238 -1167h39l227 1171h252l-311 -1417h-375l-207 1061l-203 -1061h-374zM614 1645v241h224v-241h-224zM1059 1645v241h223v-241h-223z" />
<glyph unicode="&#x1e85;" horiz-adv-x="1538" d="M35 1022h231l152 -811h45l184 793h246l184 -793h45l152 811h231l-209 -1022h-378l-150 684l-150 -684h-374zM442 1253v242h224v-242h-224zM874 1253v242h224v-242h-224z" />
<glyph unicode="&#x1eab;" d="M88 305q0 156 84 227.5t258 83.5l254 21v61q0 59 -35 90q-37 33 -92 33q-68 0 -166 -6q-27 -2 -164 -8l-65 -4l-8 198q258 45 415 46q178 0 262 -82q86 -84 87 -265v-421q4 -53 20 -74q16 -18 63 -29l-8 -199q-109 0 -168 17q-53 14 -106 55q-178 -72 -334 -72 q-143 0 -219 86q-78 88 -78 242zM129 1706q8 10 33 35q18 18 75.5 53t100.5 35q68 0 172 -45q111 -47 129 -47q25 0 63 20q49 27 68 41l29 21l51 -179q-16 -20 -31 -34q-16 -16 -73.5 -51t-100.5 -35q-53 0 -165.5 47t-139.5 47q-25 0 -64 -21q-40 -22 -67 -43l-29 -20z M141 1135l265 335h188l266 -335h-252l-106 141l-109 -141h-252zM324 311q0 -133 104 -133t256 41v236l-225 -13q-135 -12 -135 -131z" />
<glyph unicode="&#x1eb0;" horiz-adv-x="1236" d="M47 0l338 1417h473l334 -1417h-242l-78 279h-514l-69 -279h-242zM229 2089l74 207l500 -189l-68 -184zM264 1825h242q14 -100 119 -101q113 0 120 101h244q-12 -132 -104 -215q-90 -82 -260 -82q-166 0 -256 82q-93 83 -105 215zM410 510h415l-157 686h-97z" />
<glyph unicode="&#x1ec5;" horiz-adv-x="1036" d="M82 500q0 547 444 547q436 0 437 -467l-17 -168h-629q4 -119 54 -168q53 -53 176 -54q162 0 377 19l4 -182q-233 -49 -416 -50q-229 0 -329.5 125.5t-100.5 397.5zM154 1706q8 10 32 35q18 18 75.5 53t100.5 35q68 0 173 -45q111 -47 129 -47q23 0 61 20q55 29 70 41 l28 21l51 -179q-8 -10 -32 -34q-16 -16 -73.5 -51t-98.5 -35q-53 0 -166 47t-139.5 47t-65.5 -21q-40 -22 -68 -43l-26 -20zM174 1135l264 335h189l266 -335h-252l-106 141l-109 -141h-252zM317 594h414q0 131 -47 188q-45 55 -158 56q-111 0 -159 -58q-50 -59 -50 -186z " />
<glyph unicode="&#x1ed7;" horiz-adv-x="1085" d="M82 516q0 262 106 395q106 135 355 136q244 0 352 -136q106 -133 106 -395t-104 -401q-104 -137 -354 -138q-252 0 -356.5 135.5t-104.5 403.5zM150 1706q8 10 32 35q18 18 75.5 53t100.5 35q68 0 172 -45q111 -47 129 -47q25 0 64 20q49 27 68 41l28 21l51 -179 q-8 -10 -32 -34q-18 -18 -72 -52q-57 -35 -100 -34q-53 0 -166 47t-139.5 47t-65.5 -21q-40 -22 -68 -43l-26 -20zM178 1135l264 335h189l266 -335h-252l-106 141l-109 -141h-252zM319 516q0 -176 45.5 -252t178.5 -76q131 0 176 76t45 252q0 164 -49 242q-49 76 -172 76 q-127 0 -176 -74q-48 -72 -48 -244z" />
<glyph unicode="&#x1ef2;" horiz-adv-x="1155" d="M27 1417h268l285 -543l282 543h268l-428 -813v-604h-241v606zM326 1722l77 220l500 -189l-72 -197z" />
<glyph unicode="&#x1ef3;" horiz-adv-x="989" d="M27 1022h231l211 -795h53l211 795h232l-381 -1458h-232l113 436h-172zM211 1362l74 207l499 -189l-67 -184z" />
<glyph unicode="&#x1ef8;" horiz-adv-x="1155" d="M27 1417h268l285 -543l282 543h268l-428 -813v-604h-241v606zM211 1798q8 10 33 35q18 18 75.5 53t100.5 35q68 0 172 -45q111 -47 129 -47q23 0 61 20q55 31 70 41l29 21l51 -178l-14.5 -14.5t-16.5 -18.5q-18 -22 -74 -55q-53 -33 -100 -33q-53 0 -165.5 47t-139.5 47 t-66 -20q-33 -18 -65 -44l-29 -20z" />
<glyph unicode="&#x1ef9;" horiz-adv-x="989" d="M27 1022h231l211 -795h53l211 795h232l-381 -1458h-232l113 436h-172zM127 1403q8 10 33 35q23 23 76 55.5t100 32.5q68 0 172 -45q111 -47 129 -47q23 0 61 20q55 29 70 41l29 21l51 -179q-16 -20 -31 -34q-16 -16 -73.5 -51t-100.5 -35q-53 0 -165.5 47t-139.5 47 t-66 -21q-33 -18 -65 -43l-29 -20z" />
<glyph unicode="&#x2000;" horiz-adv-x="1146" />
<glyph unicode="&#x2001;" horiz-adv-x="2295" />
<glyph unicode="&#x2002;" horiz-adv-x="1146" />
<glyph unicode="&#x2003;" horiz-adv-x="2295" />
<glyph unicode="&#x2004;" horiz-adv-x="763" />
<glyph unicode="&#x2005;" horiz-adv-x="573" />
<glyph unicode="&#x2006;" horiz-adv-x="380" />
<glyph unicode="&#x2007;" horiz-adv-x="380" />
<glyph unicode="&#x2008;" horiz-adv-x="286" />
<glyph unicode="&#x2009;" horiz-adv-x="458" />
<glyph unicode="&#x200a;" horiz-adv-x="126" />
<glyph unicode="&#x2010;" horiz-adv-x="899" d="M139 461v229h623v-229h-623z" />
<glyph unicode="&#x2011;" horiz-adv-x="899" d="M139 461v229h623v-229h-623z" />
<glyph unicode="&#x2012;" horiz-adv-x="899" d="M139 461v229h623v-229h-623z" />
<glyph unicode="&#x2013;" horiz-adv-x="1024" d="M0 453v213h1024v-213h-1024z" />
<glyph unicode="&#x2014;" horiz-adv-x="2048" d="M0 453v213h2048v-213h-2048z" />
<glyph unicode="&#x2018;" horiz-adv-x="346" d="M-20 1001l114 488h221l-96 -488h-239z" />
<glyph unicode="&#x2019;" horiz-adv-x="346" d="M31 1079l96 488h240l-115 -488h-221z" />
<glyph unicode="&#x201a;" horiz-adv-x="434" d="M14 -248l115 488h221l-96 -488h-240z" />
<glyph unicode="&#x201c;" horiz-adv-x="980" d="M209 1001l115 488h438l-96 -488h-457z" />
<glyph unicode="&#x201d;" horiz-adv-x="985" d="M172 993l96 488h240l-115 -488h-221zM514 993l96 488h240l-115 -488h-221z" />
<glyph unicode="&#x201e;" horiz-adv-x="882" d="M14 -248l115 488h221l-96 -488h-240zM438 -248l115 488h221l-96 -488h-240z" />
<glyph unicode="&#x2020;" d="M113 788v230h315v364h229v-364h316v-230h-316v-938h-229v938h-315z" />
<glyph unicode="&#x2021;" d="M113 215v229h315v344h-315v230h315v364h229v-364h314v-230h-314v-344h316v-229h-316v-365h-229v365h-315z" />
<glyph unicode="&#x2022;" d="M295 209v577h496v-577h-496z" />
<glyph unicode="&#x2026;" horiz-adv-x="1521" d="M133 0v305h252v-305h-252zM653 0v305h254v-305h-254zM1176 0v305h251v-305h-251z" />
<glyph unicode="&#x202f;" horiz-adv-x="458" />
<glyph unicode="&#x2030;" horiz-adv-x="1703" d="M20 1143q0 293 240 293t240 -293q0 -295 -240 -295t-240 295zM197 1143q0 -82 14 -117t49 -35t49.5 35t14.5 117t-13 114q-12 35 -51 35q-37 0 -49 -35q-14 -38 -14 -114zM287 0l391 1466l153 -41l-391 -1464zM614 297q0 291 238 291q240 0 240 -293q0 -145 -62 -219 q-63 -76 -178 -76q-113 0 -176 76q-62 74 -62 221zM788 297q0 -84 14.5 -119t49.5 -35q37 0 51.5 35t14.5 117q0 84 -15 115q-16 35 -51 34q-39 0 -51 -34q-13 -33 -13 -113zM1141 297q0 291 239 291q238 0 238 -293q0 -145 -62 -219q-63 -76 -175.5 -76t-176 76t-63.5 221z M1315 297q0 -84 14 -119t51 -35q35 0 49.5 35t14.5 117q0 76 -14 115q-12 35 -50 34q-35 0 -51 -34q-14 -31 -14 -113z" />
<glyph unicode="&#x2039;" horiz-adv-x="759" d="M158 414v172l432 321v-237l-234 -166l234 -189v-237z" />
<glyph unicode="&#x203a;" horiz-adv-x="759" d="M172 94v238l234 188l-234 166v238l434 -322v-172z" />
<glyph unicode="&#x205f;" horiz-adv-x="573" />
<glyph unicode="&#x2070;" horiz-adv-x="540" d="M16 1296q0 190 64 267q66 78 194.5 77.5t194.5 -77.5q63 -76 63 -267q0 -188 -63 -264t-194.5 -76t-195 76t-63.5 264zM213 1296q0 -106 14 -137q14 -33 47 -33q35 0 48 33q14 39 14 137q0 100 -14 140q-12 35 -47 34.5t-48 -34.5q-14 -40 -14 -140z" />
<glyph unicode="&#x2074;" horiz-adv-x="540" d="M25 1059v158l100 401h209l-121 -389h86l25 184h163v-184h33v-170h-33v-80h-188v80h-274z" />
<glyph unicode="&#x2075;" horiz-adv-x="540" d="M45 991l14 154q113 -18 193 -19q66 0 65.5 53.5t-47.5 53.5q-27 0 -69 -16l-142 18l23 383h410v-162h-261l-8 -82q55 18 99 19q193 0 192 -203q0 -225 -235 -225q-25 0 -103 8q-55 6 -94 12z" />
<glyph unicode="&#x2076;" horiz-adv-x="540" d="M27 1280q0 178 63 270q61 90 209 90q35 0 84 -6q53 -6 84 -12l35 -6l-10 -156q-127 12 -187 13q-86 0 -86 -84l14 4q6 0 15.5 3t21.5 5q16 4 41 4q211 0 211 -215q0 -111 -67.5 -172.5t-169.5 -61.5q-258 0 -258 324zM219 1227q0 -104 57 -105q55 0 56 66q0 61 -53 61 q-15 0 -31 -6q-20 -8 -23 -10z" />
<glyph unicode="&#x2077;" horiz-adv-x="540" d="M47 1432v186h451v-191l-201 -469l-213 35l195 408v31h-232z" />
<glyph unicode="&#x2078;" horiz-adv-x="540" d="M16 1165q0 61 27 101q25 35 51 47q-18 8 -42.5 45t-24.5 102q0 180 245 180q248 0 248 -182q0 -61 -24 -100q-27 -43 -43 -47q16 -4 28.5 -14.5t30.5 -49.5q16 -37 16 -80q0 -115 -65 -163q-61 -47 -191 -48q-131 0 -192 48q-64 48 -64 161zM211 1169q0 -59 61.5 -59 t61.5 61q0 45 -43 66h-37q-43 -22 -43 -68zM213 1436q0 -39 41 -64h37q39 20 39 64q0 51 -58 51q-59 0 -59 -51z" />
<glyph unicode="&#x2079;" horiz-adv-x="540" d="M25 1407q0 111 65 172t172 61q260 0 260 -340q0 -178 -61 -262q-61 -82 -203 -82q-41 0 -94 7q-4 0 -84 16l-33 6l12 154q96 -12 174 -13q88 0 89 80l-15 -2q-14 -4 -33 -6q-29 -4 -41 -4q-208 0 -208 213zM215 1407q0 -31 14 -47q16 -18 39 -19q25 0 62 19 q0 113 -60 113q-55 0 -55 -66z" />
<glyph unicode="&#x2080;" horiz-adv-x="540" d="M16 317q0 190 64 267q66 78 194.5 78t194.5 -78q63 -76 63 -267q0 -188 -63 -264t-194.5 -76t-195 76t-63.5 264zM213 317q0 -106 14 -137q14 -33 47 -33q35 0 48 33q14 39 14 137q0 100 -14 140q-12 35 -47 35t-48 -35q-14 -40 -14 -140z" />
<glyph unicode="&#x2081;" horiz-adv-x="540" d="M43 489l213 150h172v-639h-188v432l-111 -76z" />
<glyph unicode="&#x2082;" horiz-adv-x="540" d="M35 0v162l160 139q96 84 96 133q0 45 -84 45l-160 -14l-8 176q135 20 231 21q121 0 168 -46q51 -47 51 -153q0 -66 -28 -117q-27 -47 -90 -98l-92 -78h215v-170h-459z" />
<glyph unicode="&#x2083;" horiz-adv-x="540" d="M45 -4l10 166q115 -14 197 -15q74 0 74 52q0 47 -68 47h-135v153h133q23 0 39 13q14 12 14 37q0 43 -67 43l-179 -13l-10 162q125 20 217 21q238 0 238 -181q0 -104 -68 -145q80 -33 80 -152q0 -102 -61 -155q-59 -51 -172 -52q-63 0 -105 5q-16 2 -50 5t-48 5z" />
<glyph unicode="&#x2084;" horiz-adv-x="540" d="M25 80v158l100 401h209l-121 -389h86l25 184h163v-184h33v-170h-33v-80h-188v80h-274z" />
<glyph unicode="&#x2085;" horiz-adv-x="540" d="M45 12l14 154q113 -18 193 -19q66 0 65.5 53.5t-47.5 53.5q-27 0 -69 -16l-142 18l23 383h410v-162h-261l-8 -82q55 18 99 19q193 0 192 -203q0 -225 -235 -225q-25 0 -103 8q-55 6 -94 12z" />
<glyph unicode="&#x2086;" horiz-adv-x="540" d="M27 301q0 180 63 272q61 88 209 89q35 0 84 -7q53 -6 84 -12l35 -6l-10 -156q-127 12 -187 13q-86 0 -86 -84l14 4q6 0 15.5 3t21.5 5q16 4 41 4q211 0 211 -215q0 -111 -67.5 -172.5t-169.5 -61.5q-258 0 -258 324zM219 248q0 -104 57 -105q55 0 56 66q0 61 -53 61 q-15 0 -31 -6q-20 -8 -23 -10z" />
<glyph unicode="&#x2087;" horiz-adv-x="540" d="M47 453v186h451v-190l-201 -469l-213 34l195 408v31h-232z" />
<glyph unicode="&#x2088;" horiz-adv-x="540" d="M16 186q0 61 27 101q25 35 51 47q-18 8 -42.5 45t-24.5 102q0 180 245 181q248 0 248 -183q0 -61 -24 -100q-27 -43 -43 -47q16 -4 28 -15q14 -12 31 -47q16 -37 16 -82q0 -115 -65 -163q-61 -47 -191 -48q-131 0 -192 48q-64 48 -64 161zM211 190q0 -59 61.5 -59 t61.5 62q0 45 -43 65h-37q-43 -22 -43 -68zM213 457q0 -39 41 -64h37q39 20 39 64q0 51 -58 51q-59 0 -59 -51z" />
<glyph unicode="&#x2089;" horiz-adv-x="540" d="M25 428q0 111 65 172t172 62q260 0 260 -340q0 -178 -61 -261q-61 -84 -203 -84q-41 0 -94 7q-4 0 -84 16l-33 6l12 154q96 -12 174 -13q88 0 89 80l-15 -2q-14 -4 -33 -6q-29 -4 -41 -4q-208 0 -208 213zM215 428q0 -31 14 -47q16 -18 39 -19q25 0 62 19q0 113 -60 113 q-55 0 -55 -66z" />
<glyph unicode="&#x20ac;" horiz-adv-x="1185" d="M113 412v184h112v152h-112v184h125q27 242 143 344q115 102 356 102q68 0 170 -10q90 -8 144 -18l51 -11l-8 -213q-188 14 -324 15q-137 0 -197 -45q-63 -47 -84 -166h469v-182h-485v-152h485v-184h-466q20 -111 86 -156q61 -43 198 -43l318 16l6 -217q-205 -35 -363 -35 q-252 0 -360 101q-113 102 -139 334h-125z" />
<glyph unicode="&#x2122;" d="M14 1167v142h410v-142h-100v-487h-158v487h-152zM479 678v631h189l102 -357l109 357h188v-631h-147v391l-93 -352h-104l-96 352v-391h-148z" />
<glyph unicode="&#x2211;" horiz-adv-x="1703" />
<glyph unicode="&#x2212;" d="M92 465v213h897v-213h-897z" />
<glyph unicode="&#x221e;" horiz-adv-x="1091" d="M55 596q0 352 271 352q80 0 129 -30.5t90 -106.5q41 74 92 107q49 31 129 30q131 0 203 -90q70 -88 69 -260q0 -350 -276 -350q-76 0 -125 31q-51 31 -90 104q-39 -76 -88 -107q-45 -29 -129 -28q-275 0 -275 348zM270 596q0 -129 74 -129q18 0 27 4q16 8 20 12 q14 16 19 21q12 20 16 26q4 10 16 33l10.5 21.5l6.5 13.5q-4 12 -13 29q-2 6 -7 14t-7 12q-6 16 -10 23q-9 12 -12 18q-2 4 -12.5 14.5t-14.5 12.5q-2 2 -9 3t-9 1q-12 4 -21 4q-74 0 -74 -133zM635 598l20 -43q16 -33 21 -39q2 -2 4 -6t5 -9t7 -9q10 -14 25 -21q8 -4 31 -4 q74 0 73 129q0 133 -73 133q-16 0 -23 -2q-16 -6 -20 -8l-15 -14q-6 -4 -14 -21q-10 -18 -12 -22.5t-6.5 -11.5t-8.5 -19q-12 -29 -14 -33z" />
<glyph unicode="&#x2248;" d="M123 416q6 6 35 30q18 16 88 50q66 31 127 30q53 0 188 -47t180 -47q37 0 86 21q47 18 84 43l35 20l17 -219q-2 -2 -10.5 -11.5t-20.5 -19.5q-23 -20 -82 -49q-57 -29 -119 -29q-55 0 -196.5 47.5t-174.5 47.5q-43 0 -96 -21q-49 -18 -90 -45l-33 -20zM123 846q6 6 35 31 q18 16 88 49q66 31 127 30q53 0 188 -47t180 -47q37 0 86 21q47 18 84 43l35 20l17 -219l-10.5 -11t-20.5 -20q-23 -20 -82 -49q-57 -29 -119 -29q-55 0 -196.5 47.5t-174.5 47.5q-43 0 -96 -21q-49 -18 -90 -45l-33 -20z" />
<glyph unicode="&#x2260;" d="M59 254v213h318l96 217h-414v215h506l135 305l193 -76l-102 -229h221v-215h-316l-94 -217h410v-213h-504l-133 -303l-191 78l99 225h-224z" />
<glyph unicode="&#x2264;" d="M141 27v231h785v-231h-785zM141 567v310l785 235v-244l-555 -143l555 -150v-247z" />
<glyph unicode="&#x2265;" d="M160 27v231h801v-231h-801zM160 328v247l571 150l-571 143v244l801 -235v-310z" />
<glyph unicode="&#xe000;" horiz-adv-x="1020" d="M0 1020h1020v-1020h-1020v1020z" />
<glyph horiz-adv-x="479" />
<glyph horiz-adv-x="1099" d="M207 0v1495h72v-534q174 82 352 81q203 0 276 -116q72 -113 72 -391q0 -299 -96.5 -426t-370.5 -127q-139 0 -305 18zM279 59q160 -12 231 -12q129 0 207 26.5t119 94.5q43 72 55 147q12 83 12 215q0 246 -53 344q-55 102 -219 103q-86 0 -170 -21q-98 -25 -135 -41 l-47 -20v-836z" />
<glyph horiz-adv-x="1282" d="M211 0v1434h491q209 0 311.5 -84t102.5 -265q0 -272 -198 -346q254 -70 253 -338q0 -221 -110 -311q-113 -90 -320 -90h-530zM285 70h456q168 0 263 75q92 74 92 256q0 297 -371 297h-440v-628zM285 766h440q163 0 240 80q76 78 75 239q0 150 -82 213q-84 66 -256 66 h-417v-598z" />
<glyph horiz-adv-x="980" d="M72 1024h75l299 -958h89l301 958h75l-321 -1024h-201z" />
<glyph horiz-adv-x="931" d="M78 0l346 512l-346 512h82l307 -457l307 457h82l-346 -512l346 -512h-84l-305 457l-305 -457h-84z" />
<glyph d="M94 690q0 371 129 526.5t375 155.5q174 0 328 -39l-8 -67q-147 37 -320 37q-209 0 -317 -136q-109 -137 -109 -446q0 4 57 31q68 31 156 59q92 29 178 29q428 0 428 -414q0 -444 -438 -444q-238 0 -348.5 178t-110.5 530zM170 649q2 -295 94 -448q88 -150 289 -150 q197 0 278 92q82 90 82 283q0 168 -79.5 256t-274.5 88q-174 -6 -385 -119z" />
<glyph d="M96 928q0 213 113 327q115 117 334 117q231 0 340 -178q109 -180 108 -530q0 -369 -123 -527q-123 -156 -364 -155q-74 0 -164 12q-106 14 -137 20l-51 11l12 65q164 -39 340 -39q207 0 309 139.5t102 452.5q0 -4 -57 -31q-53 -25 -156 -57q-98 -31 -178 -31 q-219 0 -323 109q-105 108 -105 295zM174 928q0 -152 86 -244q84 -90 268 -90q174 6 385 119l5 2q-10 588 -375 588q-369 0 -369 -375z" />
<glyph horiz-adv-x="1335" d="M211 0v1434h586q119 0 209 -72q86 -70 131 -186q39 -102 59 -224q18 -108 18 -215q0 -53 -8 -159q-4 -63 -32 -189q-27 -115 -66 -192q-41 -78 -125 -140q-78 -57 -186 -57h-586zM285 70h512q92 0 157 57q72 61 103 133q35 82 53 180q20 113 23 170q4 86 4 127 q0 74 -15 160q-18 106 -47 205q-35 115 -106 186q-76 76 -172 76h-512v-1294z" />
<glyph d="M211 0v1434h74v-1364h698v-70h-772z" />
<glyph horiz-adv-x="0" />
<glyph d="M59 1165q0 143 52 207q53 66 165.5 66t163.5 -64q53 -66 54 -211q0 -283 -218 -282q-111 0 -164 69.5t-53 214.5zM131 1165q0 -113 33 -166t112 -53q82 0 113 53q33 55 33 164q0 106 -33 160q-31 49 -113 49q-78 0 -112 -51q-33 -47 -33 -156zM381 12l295 1424l74 -15 l-295 -1423zM635 285q0 143 51 207q53 66 166 65q111 0 164 -65.5t53 -208.5q0 -283 -217 -283q-111 0 -164 68q-53 70 -53 217zM707 284.5q0 -110.5 32 -163.5q35 -55 113 -55q82 0 113 53q33 55 32 164q0 106 -32 159q-31 49 -113 50q-78 0 -113 -50q-32 -47 -32 -157.5z " />
<glyph d="M279 938l225 164l-223 164l41 55l225 -166l86 264l65 -20l-86 -266h277v-70h-281l86 -264l-65 -21l-86 266l-226 -161z" />
<glyph horiz-adv-x="530" d="M10 616q0 172 51 412q47 223 99 369l49 139h72q-27 -72 -54 -158q-29 -92 -86 -346q-55 -246 -55 -416q0 -341 178 -829l17 -43h-72l-55 139q-31 82 -88 320q-56 231 -56 413z" />
<glyph horiz-adv-x="530" d="M-8 -246q39 109 55 158q23 76 84 344q55 246 55 418q0 341 -178 829l-16 43h71l56 -139q31 -82 88 -320q55 -231 55 -413q0 -181 -49 -411.5t-98 -368.5l-52 -140h-71z" />
<glyph horiz-adv-x="581" d="M0 602v66q117 28 166 86q47 55 47 159q0 27 -6 125q-8 131 -8 138q0 182 84 270q80 82 276 92l4 -65q-172 -10 -231 -78q-61 -72 -62 -219q0 -37 6 -125l9 -119q0 -135 -45 -195q-47 -63 -160 -100q115 -37 160 -100.5t45 -190.5l-15 -237q0 -145 62 -218q61 -70 231 -79 l-4 -66q-199 10 -278 92q-82 84 -82 271q0 14 8 137q6 92 6 114q0 100 -47 153.5t-166 88.5z" />
<glyph horiz-adv-x="1931" d="M123 711q0 379 119 559q121 182 430 182q221 0 301 -18h837v-74h-763v-586h641v-74h-641v-626h763v-74h-833v-2q-76 -16 -305 -16q-168 0 -273 45q-106 45 -168 143q-59 96 -84 223q-24 130 -24 318zM201 711q0 -174 18 -287q18 -109 70 -203q49 -90 143 -129 q98 -41 240 -41q218 0 301 19v1288q-80 25 -301 24q-143 0 -237.5 -43t-143.5 -135q-53 -100 -70 -205q-20 -128 -20 -288zM973 1358l2 -680v680h-2z" />
<glyph horiz-adv-x="1703" d="M469 434v66h379v477h-379v65h379v392h72v-392h378v-65h-378v-477h378v-66h-378v-434h-72v434h-379z" />
<glyph horiz-adv-x="788" d="M10 1397q231 55 340 55q201 0 307 -76q102 -72 103 -248q0 -98 -41 -174q-43 -80 -103 -139q-59 -57 -120 -110q-55 -47 -103 -115q-41 -59 -41 -123v-78h-71v84q0 70 43 137.5t102 120.5l119 113q57 57 100 131t43 153q0 139 -84 199q-82 57 -254 57q-100 0 -330 -57z M276 2v164h82v-164h-82z" />
<glyph horiz-adv-x="286" d="M51 0v164h82v-164h-82zM51 705v163h82v-163h-82z" />
<glyph horiz-adv-x="346" d="M-12 -252l84 430h86l-107 -430h-63zM66 705v163h81v-163h-81z" />
<glyph horiz-adv-x="612" d="M98 1534h375v-66h-301v-1654h301v-66h-373z" />
<glyph horiz-adv-x="612" d="M104 -186h302v1654h-302v66h375l-2 -1786h-373v66z" />
<glyph horiz-adv-x="202" d="M-41 1413h244l-10 -471h-230z" />
<glyph horiz-adv-x="724" d="M68 1413h243l-10 -471h-229zM391 1413h244l-10 -471h-230z" />
<glyph horiz-adv-x="1431" d="M78 426q0 180 78 270q76 88 256 142q-70 76 -86 133q-18 61 -19 155q0 133 80 213q82 82 234 82q162 0 237 -80q76 -78 76 -217q0 -145 -78 -229t-260 -143l383 -379q43 131 63 299h72q-27 -219 -80 -353l287 -280l-49 -53l-268 266q-135 -270 -455 -270 q-258 0 -364.5 112.5t-106.5 331.5zM150 428q0 -190 94 -284.5t309 -94.5q281 0 397 254l-485 481q-175 -46 -246 -122q-69 -76 -69 -234zM379 1126q0 -160 92 -252l74 -73q176 61 248 129q70 68 69 196q0 229 -241.5 229t-241.5 -229z" />
<glyph horiz-adv-x="1165" d="M233 0v70h189v696h-141v65h141v195q0 215 67.5 291t212.5 76q77 0 246 -25v-65q-178 25 -246 24q-109 0 -159 -63q-49 -61 -49 -238v-195h372v-65h-372v-696h356l168 32l14 -65l-166 -35z" />
<glyph horiz-adv-x="1212" d="M139 502v69h127q-2 23 -2 107q0 100 2 127h-127v69h131q23 262 131 388q111 125 373 124q184 0 359 -38l-7 -72q-193 41 -352 41q-225 0 -317 -107q-90 -104 -109 -336l637 -2v-67h-641q-2 -27 -2 -127q0 -84 2 -107l641 -2v-67h-639q16 -238 107 -344q92 -106 321 -107 q141 0 352 41l7 -69q-201 -41 -359 -41q-262 0 -373 124q-113 129 -131 396h-131z" />
<glyph horiz-adv-x="1703" d="M504 1407l71 29l617 -1407l-72 -29z" />
<glyph horiz-adv-x="1062" d="M55 -70h877v-69h-877v69z" />
<glyph horiz-adv-x="1257" d="M211 0v1434h522q213 0 320 -103q104 -102 104 -329.5t-96 -352.5q-94 -123 -328 -123h-448v-526h-74zM285 596h448q346 0 346 405q0 188 -86 275q-88 88 -260 88h-448v-768z" />
<glyph d="M6 684v74h688v-74h-688zM309 285v164h82v-164h-82zM309 989v164h82v-164h-82z" />
<glyph horiz-adv-x="837" d="M-100 479v70h475v475h74v-475h479v-70h-479v-479h-74v479h-475z" />
<glyph horiz-adv-x="899" d="M123 541v69h655v-69h-655z" />
<glyph d="M129 602v74l711 469v-80l-645 -422l645 -444v-84q-633 430 -711 487z" />
<glyph d="M2 702v70h1034v-70h-1034zM4 356v70h1034v-70h-1034z" />
<glyph d="M129 115v84l645 444l-645 422v80l711 -469v-74z" />
<glyph d="M94 25l568 1413l67 -29l-567 -1411z" />
<glyph horiz-adv-x="1792" d="M123 535q0 287 94 395q96 113 326 112q301 0 377 -245q88 246 372 245q193 0 291 -116.5t98 -374.5v-68h-727q0 -223 70 -329.5t242 -106.5q143 0 372 19l4 -66q-229 -18 -378 -18q-270 4 -346 219q-37 -115 -125 -166q-90 -53 -250 -53q-248 0 -334 118q-86 122 -86 435 zM199 535q0 -141 12 -226q14 -90 47 -149q37 -63 104.5 -88t180.5 -25q115 0 180 27q68 29 102.5 96.5t42.5 144.5q10 88 11 215q0 243 -80 344q-80 102 -256 103q-197 0 -270.5 -92t-73.5 -350zM954 549h652q0 231 -74 329.5t-240 98.5q-338 0 -338 -428z" />
<glyph horiz-adv-x="1837" d="M72 0l514 1434h1130v-70h-764v-590h641v-69h-641v-635h764v-70h-837v440h-566l-159 -440h-82zM338 510h541v854h-236z" />
<glyph horiz-adv-x="1341" d="M94 711q0 379 119 559q121 182 430 182q170 0 287 -57l106 227l68 -29l-113 -237q109 -84 156 -244q45 -154 45 -401q0 -393 -115 -559q-117 -170 -434 -170q-162 0 -274 47l-119 -256l-68 26l123 264q-117 78 -164 236q-47 160 -47 412zM172 711q0 -230 37 -369 q39 -143 129 -211l559 1196q-98 55 -254 55q-143 0 -237 -43q-96 -43 -146 -135q-49 -94 -67 -205q-21 -128 -21 -288zM399 94q98 -43 244 -43q150 0 242 37q90 37 141 125q51 90 70 203q18 114 18 295q0 430 -156 573z" />
<glyph horiz-adv-x="1693" d="M113 281q0 143 63.5 206.5t218.5 87.5l389 41v107q0 250 -227 250q-152 0 -385 -19l-4 68q213 20 389 20q236 0 285 -196q100 197 352 196q195 0 293 -116q96 -115 96 -375v-68h-727q0 -223 69.5 -329.5t241.5 -106.5q143 0 373 19l4 -66q-229 -18 -379 -18 q-205 4 -293 118l-77 -32q-190 -86 -422 -86q-260 0 -260 299zM188 280.5q0 -112.5 50 -174.5q47 -59 137 -59q84 0 198 25q119 27 175 45q76 27 94 35q-61 119 -62 360v37l-377 -37q-111 -8 -163 -66q-52 -53 -52 -165.5zM856 549h651q0 229 -75 330q-74 98 -238 98 q-338 0 -338 -428z" />
<glyph d="M84 498q0 545 454.5 544.5t454.5 -544.5q0 -283 -121 -400q-119 -117 -333.5 -116.5t-333.5 116.5q-121 117 -121 400zM303 498q0 -178 59 -248q59 -68 177 -68q120 0 178 68q57 66 57 248q0 203 -55 272q-55 72 -180 72q-119 0 -179 -72q-57 -69 -57 -272z" />
<glyph d="M164 780l420 244h186v-1024h-219v770l-303 -166z" />
<glyph d="M158 0v193l291 219q139 102 202 172q55 61 56 127q0 70 -51.5 96.5t-178.5 26.5q-43 0 -110 -9l-136 -14q-59 -6 -59 -10l-14 200q242 41 395 41q389 0 389 -301q0 -123 -59 -200q-53 -70 -197 -179l-215 -161h487v-201h-800z" />
<glyph d="M182 25l27 200q213 -27 387 -26q100 4 139 30q41 29 41 88q0 102 -184 109h-266v192h264q156 2 155 113q0 104 -161 105q-76 0 -168 -7q-55 -4 -146 -14l-51 -6l-20 197q221 39 383 38q186 0 286 -59q96 -57 97 -194q0 -162 -146 -244q176 -68 176 -250 q0 -156 -110.5 -235.5t-288.5 -79.5q-76 0 -180 12q-139 16 -168 20z" />
<glyph d="M127 176v160l279 688h233l-272 -639h303v248h219v-248h92v-209h-92v-190h-219v190h-543z" />
<glyph d="M141 41l27 201q260 -47 403 -47q184 0 185 127q0 129 -189 129q-43 0 -98 -12.5t-92 -24.5l-37 -15l-172 33l41 598h747v-229h-546l-27 -189q104 45 213 45q197 0 299 -81.5t102 -241.5q0 -166 -108 -258q-111 -94 -309 -94q-68 0 -187 16q-133 18 -180 29z" />
<glyph d="M131 520q0 274 125 398q129 125 330 124q180 0 354 -30l-16 -183q-197 20 -338 21q-236 0 -236 -254q0 2 41 18q23 8 103 29q66 16 104 16q399 0 399 -337q0 -164 -125 -252q-127 -90 -319 -90q-213 0 -317.5 128.5t-104.5 411.5zM350 416q6 -244 219 -244q90 0 149.5 37 t59.5 113q0 133 -200 133q-33 0 -99 -11q-55 -8 -94 -18z" />
<glyph d="M170 831v193h735v-240l-416 -802l-188 51l395 753v45h-526z" />
<glyph d="M106 274q0 102 44 160q41 55 124 101q-145 78 -145 225q0 283 401 282q403 0 404 -282q0 -152 -148 -225q59 -29 86 -52q29 -23 58 -77q27 -51 26 -130q0 -154 -116 -225q-119 -72 -309.5 -71.5t-307.5 74t-117 220.5zM326 295q0 -125 204 -125q207 0 207 127 q0 59 -32 90q-35 31 -107 53h-139q-70 -20 -101 -55q-32 -37 -32 -90zM348 741q0 -57 27 -84q29 -29 84 -49h139q117 37 117 135q0 109 -185 109q-182 0 -182 -111z" />
<glyph d="M117 700q0 164 110 254q113 90 293 90q422 0 422 -530q0 -281 -121 -408q-119 -125 -325 -124q-190 0 -338 43l20 180q154 -27 318 -27q109 0 166 63.5t57 188.5l-29 -10q-29 -12 -84 -25q-57 -12 -117 -12q-372 0 -372 317zM336 702q0 -59 45 -94t127 -35q72 4 104 13 q45 12 72 22l25 10q-3 233 -197 234q-176 0 -176 -150z" />
<glyph d="M496 -121v1555h71v-1555h-71z" />
<glyph horiz-adv-x="892" d="M25 506q0 399 356 434v270h72v-266l237 -22l-4 -72q-141 16 -233 20v-712l237 16l4 -72q-162 -18 -241 -18v-260h-72v260q-188 10 -272 100.5t-84 321.5zM106 506q0 -195 60 -266q58 -71 215 -80v706q-139 -16 -207 -100q-68 -86 -68 -260z" />
<glyph d="M125 696v70h506l147 334l72 -29l-135 -305h280v-70h-311l-135 -309h448v-70h-479l-147 -337l-72 28l135 309h-307v70h338l135 309h-475z" />
<glyph horiz-adv-x="1103" d="M51 1352h84l420 -633l414 633h86l-391 -604h344v-70h-390l-26 -41v-195h418v-69h-418v-373h-74v373h-420v69h420v195l-26 41h-396v70h350z" />
<glyph d="M184 -512v1536h72v-528q0 -270 49 -359q49 -90 215 -90q174 0 332 100l4 3v874h72v-1024h-72v82l-17.5 -9t-31.5 -18q-27 -16 -121 -45q-92 -29 -166 -28q-194 0 -264 104v-598h-72z" />
<glyph d="M143 -496l4 68q126 -6 185 -6q94 0 141 69.5t47 229.5v856h-141v65h141v228q0 365 260 364l191 -6l-4 -65q-168 4 -187 4q-188 0 -188 -299v-226h332v-65h-332v-856q0 -201 -64 -283q-66 -84 -196 -84z" />
<glyph horiz-adv-x="346" d="M-12 -252l86 430h82l-105 -430h-63z" />
<glyph horiz-adv-x="505" d="M201 0v164h82v-164h-82z" />
<glyph horiz-adv-x="346" d="M8 1079l82 410h78l-98 -410h-62z" />
<glyph horiz-adv-x="1703" d="M240 1073q0 160 110 260q109 100 271 101h712v-68h-198v-1366h-74v1366h-352v-1366h-74v717h-14q-160 0 -270.5 98t-110.5 258z" />
<glyph horiz-adv-x="581" d="M-2 -197q172 10 231 78q61 70 62 219q0 6 -8 125q-6 90 -7 119q0 135 46 195q47 63 159 100q-115 37 -160 100.5t-45 190.5l15 237q0 147 -61.5 217t-231.5 80l4 66q197 -10 277 -92q84 -88 83 -271q0 -14 -8 -137q-6 -92 -6 -115q0 -100 47 -153t166 -88v-66 q-117 -28 -166 -86q-47 -55 -47 -160q0 -27 6 -124q8 -131 8 -138q0 -182 -83 -270q-80 -82 -277 -92z" />
<glyph horiz-adv-x="346" d="M-45 1079l98 410h62l-82 -410h-78z" />
<glyph horiz-adv-x="0" d="M178 344q0 51 10 102q8 41 23 74q12 27 41 60q37 41 43 47q8 8 53 43l53 43l-41 32l-41 33l-32 29q-25 20 -31 35l-20 35q-18 29 -20.5 45t-8.5 51q-6 27 -6 63q0 340 481 340q489 0 489 -342q0 -29 -4 -69q-4 -37 -16 -60q-12 -20 -21 -43q-4 -10 -34 -41l-22 -22 l-11 -13q-18 -18 -45 -38q-41 -33 -47 -35l61 -47q57 -43 66 -54l45 -57q31 -41 39 -82q10 -51 10 -106q0 -213 -133 -304q-131 -88 -377 -88q-504 0 -504 369zM481 418q0 -152 201 -152q207 0 207 152q0 104 -113 155h-180q-66 -31 -90.5 -67.5t-24.5 -87.5zM504 963 q0 -6 1 -14.5t1 -10.5q0 -12 6 -20q2 -4 4 -9.5t2 -7.5l6 -6q6 -4 8 -6q12 -12 16.5 -14.5t22.5 -14.5l25 -16h180q12 8 23 14q6 4 11 9t7 5q2 2 8 6.5t9 6.5q12 8 14 12t8 10t6 15q0 6 4 18q2 6 2 23q0 68 -39 94q-41 29 -143 28q-104 0 -143 -30.5t-39 -91.5z" />
<glyph horiz-adv-x="731" d="M43 774v248h121v266l274 21v-287h252v-248h-252v-387q0 -72 2 -88q2 -23 23 -43q18 -18 61 -18l156 4l12 -236q-138 -31 -209 -31q-184 0 -252 82q-68 83 -67 308v409h-121z" />
<glyph horiz-adv-x="899" d="M123 461v229h655v-229h-655z" />
<glyph horiz-adv-x="505" d="M92 0v291h270v-291h-270z" />
<glyph d="M2 217v270h1036v-270h-1036zM2 641v270h1034v-270h-1034z" />
<glyph horiz-adv-x="1062" d="M55 31h877v-271h-877v271z" />
<glyph horiz-adv-x="692" d="M49 545v188q213 53 213 185q0 27 -6 124q-8 131 -8 138q0 184 90 268q86 80 311 90v-229q-96 -10 -119 -37q-27 -33 -26 -113q0 -8 8 -115q6 -80 6 -108q0 -135 -45 -194.5t-160 -100.5q117 -40 160 -98q45 -61 45 -193q0 -31 -6 -106q-8 -102 -8 -111q0 -84 26 -117 q27 -31 119 -41v-229q-223 8 -311 94q-90 86 -90 273q0 14 8 137q6 92 6 115q0 121 -213 180z" />
<glyph horiz-adv-x="581" d="M-219 -33q96 10 119 37q27 33 26 113q0 8 -8 114q-6 80 -6 109q0 135 45 194.5t160 100.5q-117 40 -160 98q-45 61 -45 193q0 29 6 106q8 102 8 111q0 84 -26 117q-27 31 -119 40v230q223 -8 311 -94q90 -86 90 -273q0 -14 -8 -137q-6 -92 -6 -115q0 -121 213 -180v-188 q-213 -53 -213 -185q0 -27 6 -125q8 -131 8 -137q0 -184 -90 -268q-86 -80 -311 -90v229z" />
<glyph horiz-adv-x="837" d="M-100 389v250h387v385h250v-385h391v-250h-391v-389h-250v389h-387z" />
<glyph horiz-adv-x="540" d="M16 113q0 190 64 266q66 78 194.5 78t194.5 -78q63 -76 63 -266q0 -188 -63 -264t-194.5 -76t-195 76t-63.5 264zM213 113q0 -106 14 -138q14 -33 47 -32q35 0 48 32q14 39 14 138q0 100 -14 139q-12 35 -47 35t-48 -35q-14 -39 -14 -139z" />
<glyph horiz-adv-x="540" d="M43 285l213 149h172v-639h-188v432l-111 -75z" />
<glyph horiz-adv-x="540" d="M35 -43l160 139q96 84 96 133q0 45 -84 45l-160 -14l-8 176q135 20 231 21q121 0 168 -45q51 -47 51 -154q0 -66 -28 -117q-27 -47 -90 -98l-92 -78h215v-170h-459v162z" />
<glyph horiz-adv-x="540" d="M45 -209l10 166q115 -14 197 -14q74 0 74 51q0 47 -68 47h-135v154h133q20 0 39 14q14 12 14 35q0 43 -67 43l-179 -13l-10 162q125 20 217 21q238 0 238 -181q0 -104 -68 -145q80 -33 80 -151q0 -101 -61 -154q-63 -53 -172 -53q-43 0 -105 6l-98 8z" />
<glyph horiz-adv-x="540" d="M25 33l100 401h209l-121 -389h86l25 184h163v-184h33v-170h-33v-80h-188v80h-274v158z" />
<glyph horiz-adv-x="540" d="M45 -193l14 154q113 -18 193 -18q66 0 65.5 53t-47.5 53q-27 0 -69 -16l-142 18l23 383h410v-162h-261l-8 -82q55 18 99 19q193 0 192 -203q0 -225 -235 -225q-45 0 -103 6q-23 2 -94 14z" />
<glyph horiz-adv-x="540" d="M27 96q0 178 63 271q61 90 209 90q33 0 84 -6q52 -6 86 -13l33 -6l-10 -156q-127 12 -187 13q-86 0 -86 -84l14 4l37 6q25 6 41 6q211 0 211 -215q0 -111 -67.5 -172t-169.5 -61q-258 -1 -258 323zM219 43q0 -104 57 -104q55 0 56 65q0 61 -53 62q-15 0 -31 -7 q-16 -6 -23 -12z" />
<glyph horiz-adv-x="540" d="M47 248v186h451v-190l-201 -469l-213 35l195 407v31h-232z" />
<glyph horiz-adv-x="540" d="M16 -18q0 61 27 100q25 35 51 47q-18 8 -42.5 45t-24.5 102q0 180 245 181q248 0 248 -183q0 -61 -24 -100q-27 -43 -43 -47q12 -2 28 -16q14 -12 31 -48q16 -37 16 -79q0 -113 -65 -162t-191 -49q-129 0 -192.5 49t-63.5 160zM211 -14q0 -59 61.5 -59.5t61.5 61.5 q0 45 -43 65h-37q-43 -20 -43 -67zM213 252q0 -39 41 -64h37q39 20 39 64q0 51 -58 51q-59 0 -59 -51z" />
<glyph horiz-adv-x="540" d="M25 223q0 111 65 172t172 62q260 0 260 -340q0 -178 -61 -260q-61 -84 -203 -84q-25 0 -94 8q-55 6 -84 12l-33 8l12 154q96 -12 174 -12q88 0 89 80l-15 -3q-14 -4 -33 -6q-29 -4 -41 -4q-208 0 -208 213zM215 223q0 -31 14 -47q16 -18 39 -18q25 0 62 18q0 113 -60 113 q-55 0 -55 -66z" />
<glyph horiz-adv-x="1521" d="M133 0v305h252v-305h-252zM653 0v305h254v-305h-254zM1176 0v305h251v-305h-251z" />
<glyph horiz-adv-x="788" d="M12 -49q0 98 37 182q35 78 94 131q74 66 111 92q43 31 90 82q39 43 39 84v78h252v-84q0 -76 -37 -137.5t-92 -104.5l-109 -81q-63 -47 -92 -93q-37 -55 -37 -120q0 -92 41 -134q39 -39 164 -39q98 0 309 41l29 -229q-231 -57 -348 -57q-238 0 -344.5 88t-106.5 301z M383 717v305h252v-305h-252z" />
<glyph horiz-adv-x="788" d="M16 365q0 98 37 182q37 82 94 133q70 63 109 90q49 37 92 82q39 43 39 84v78h252v-84q0 -72 -39 -137q-39 -63 -90 -105q-29 -25 -58.5 -45t-50.5 -37q-59 -45 -92 -94q-37 -55 -37 -119q0 -92 41 -133q39 -39 164 -39q98 0 309 41l29 -229q-231 -57 -348 -58 q-238 0 -344.5 88.5t-106.5 301.5zM387 1130v306h252v-306h-252z" />
<glyph horiz-adv-x="788" d="M16 365q0 98 37 182q37 82 94 133q70 63 109 90q49 37 92 82q39 43 39 84v78h252v-84q0 -72 -39 -137q-39 -63 -90 -105q-29 -25 -58.5 -45t-50.5 -37q-59 -45 -92 -94q-37 -55 -37 -119q0 -92 41 -133q39 -39 164 -39q98 0 309 41l29 -229q-231 -57 -348 -58 q-238 0 -344.5 88.5t-106.5 301.5zM387 1130v306h252v-306h-252z" />
<glyph horiz-adv-x="1024" d="M0 514v213h1024v-213h-1024z" />
<glyph horiz-adv-x="2048" d="M0 514v213h2048v-213h-2048z" />
<glyph horiz-adv-x="505" d="M115 528v306h252v-306h-252z" />
<glyph d="M428 -330l8 920h240l8 -920h-256zM430 799v305h252v-305h-252z" />
<glyph horiz-adv-x="530" d="M31 678q0 181 49 411.5t98 368.5l51 139h254q-35 -96 -55 -159q-31 -98 -86 -344q-53 -238 -53 -416q0 -341 178 -830l16 -43h-254l-55 140q-31 82 -88 319q-55 232 -55 414z" />
<glyph horiz-adv-x="530" d="M16 -184q23 59 54 159q31 98 86 344t55 416q0 341 -178 830q-16 43 -17 43h254l56 -140q31 -82 88 -319q55 -231 55 -414q0 -181 -49 -411q-47 -215 -101 -369l-49 -139h-254z" />
<glyph horiz-adv-x="612" d="M66 1595h489v-229h-248v-1327h248v-229h-487z" />
<glyph horiz-adv-x="612" d="M57 39h248v1327h-248v229h490l-2 -1785h-488v229z" />
<glyph horiz-adv-x="669" d="M39 602v197q109 27 156 73q41 41 41 123q0 27 -7 125q-8 131 -8 137q0 190 98 271q96 78 328 88l2 -230q-111 -10 -143 -38q-33 -31 -33 -107q0 -35 6 -133q2 -25 4 -55.5t3 -47t1 -24.5q0 -125 -45 -182q-47 -59 -159 -97q113 -37 159 -102q45 -63 45 -188q0 -2 -8 -117 q-6 -86 -6 -121q0 -78 35 -113q31 -31 141 -41l-2 -229q-227 10 -325 90q-100 82 -101 264q0 10 8 134q6 92 7 114q0 80 -43 129t-154 80z" />
<glyph horiz-adv-x="669" d="M18 12q113 10 144 37q33 31 33 109q0 35 -7 133q-2 25 -4 55.5t-3 47t-1 24.5q0 125 45 182q47 59 160 96q-113 37 -160 103q-45 63 -45 188q0 2 8 117q6 86 7 121q0 78 -35 112q-31 31 -142 41l2 230q225 -10 324 -90q102 -84 102 -265q0 -12 -8 -135q-6 -92 -6 -112 q0 -80 43 -129.5t154 -79.5v-197q-109 -27 -156 -74q-41 -41 -41 -123q0 -27 6 -124q8 -131 8 -138q0 -188 -100 -270q-96 -78 -326 -88z" />
<glyph horiz-adv-x="524" d="M14 1722l78 220l500 -189l-72 -197z" />
<glyph horiz-adv-x="524" d="M14 1722l78 220l500 -189l-72 -197z" />
<glyph horiz-adv-x="524" d="M0 1769l500 191l78 -221l-506 -164z" />
<glyph horiz-adv-x="524" d="M6 1769l500 191l78 -221l-506 -164z" />
<glyph horiz-adv-x="976" d="M70 1618l270 295h213l270 -295h-264l-110 108l-109 -108h-270z" />
<glyph horiz-adv-x="524" d="M-70 1618l271 295h213l270 -295h-264l-111 108l-108 -108h-271z" />
<glyph horiz-adv-x="524" d="M-86 1907h268l111 -115l108 115h265l-269 -295h-211z" />
<glyph horiz-adv-x="524" d="M-90 1907h268l111 -115l108 115h265l-269 -295h-211z" />
<glyph horiz-adv-x="524" d="M-80 1798q8 10 32.5 35t78.5 57q57 35 102 35q70 0 191 -47q126 -49 147 -49q23 0 64 22q49 27 69 41l31 23l51 -178q-8 -10 -33 -35q-29 -29 -75 -57q-57 -35 -101 -35q-55 0 -184 49t-158 49q-25 0 -65 -22q-39 -20 -70 -46l-29 -20z" />
<glyph horiz-adv-x="524" d="M-80 1798q8 10 32.5 35t78.5 57q57 35 102 35q70 0 191 -47q126 -49 147 -49q23 0 64 22q49 27 69 41l31 23l51 -178q-8 -10 -33 -35q-29 -29 -75 -57q-57 -35 -101 -35q-55 0 -184 49t-158 49q-25 0 -65 -22q-39 -20 -70 -46l-29 -20z" />
<glyph horiz-adv-x="524" d="M-57 1645v241h223v-241h-223zM387 1645v241h223v-241h-223z" />
<glyph horiz-adv-x="524" d="M-57 1645v241h223v-241h-223zM387 1645v241h223v-241h-223z" />
<glyph horiz-adv-x="524" d="M-49 1638v203h686v-203h-686z" />
<glyph horiz-adv-x="524" d="M-49 1638v203h686v-203h-686z" />
<glyph horiz-adv-x="524" d="M-55 1903h241q14 -100 119 -101q113 0 121 101h244q-12 -132 -105 -215q-90 -82 -260 -82q-166 0 -256 82q-92 83 -104 215z" />
<glyph horiz-adv-x="524" d="M-55 1903h241q14 -100 119 -101q113 0 121 101h244q-12 -132 -105 -215q-90 -82 -260 -82q-166 0 -256 82q-92 83 -104 215z" />
<glyph horiz-adv-x="524" d="M8 1518q0 117 80 180q78 63 205 63q123 0 205 -63.5t82 -179.5q0 -115 -82 -179q-84 -66 -205 -65q-123 0 -205 65q-80 65 -80 179zM190 1517.5q0 -36.5 27 -57.5q29 -23 76 -22.5t75.5 23t28.5 57t-28.5 57t-75.5 22.5t-76 -22q-27 -21 -27 -57.5z" />
<glyph horiz-adv-x="524" d="M-10 1518q0 115 82 180q78 63 202 63q123 0 205 -63.5t82 -179.5q0 -115 -82 -179q-84 -66 -204.5 -65.5t-202.5 66t-82 178.5zM172 1517.5q0 -36.5 27 -57.5q29 -23 76 -22.5t75.5 23t28.5 57t-28.5 57t-76 22.5t-75.5 -22q-27 -21 -27 -57.5z" />
<glyph horiz-adv-x="524" d="M-76 1612l189 358l213 -86l-207 -348zM360 1610l189 358l211 -86l-205 -348z" />
<glyph horiz-adv-x="524" d="M-76 1612l189 358l213 -86l-207 -348zM360 1610l189 358l211 -86l-205 -348z" />
<glyph horiz-adv-x="524" d="M147 1593v244h234v-244h-234z" />
<glyph horiz-adv-x="524" d="M147 1593v244h234v-244h-234z" />
<glyph horiz-adv-x="540" d="M16 1092q0 190 64 266q66 78 194.5 78t194.5 -78q63 -76 63 -266q0 -188 -63 -264t-194.5 -76t-195 76t-63.5 264zM213 1092q0 -106 14 -138q14 -33 47 -32q35 0 48 32q14 39 14 138q0 100 -14 139q-12 35 -47 35t-48 -35q-14 -39 -14 -139z" />
<glyph horiz-adv-x="540" d="M27 1264l213 149h172v-639h-189v432l-110 -76z" />
<glyph horiz-adv-x="540" d="M35 774v162l160 139q96 84 96 133q0 45 -84 45l-160 -14l-8 176q135 20 231 21q117 0 168 -47.5t51 -151.5q0 -66 -28 -117q-27 -47 -90 -98l-92 -78h215v-170h-459z" />
<glyph horiz-adv-x="540" d="M45 770l10 166q115 -14 197 -14q74 0 74 51q0 47 -68 47h-135v154h133q20 0 39 14q14 12 14 35q0 43 -67 43l-179 -13l-10 162q125 20 217 21q238 0 238 -181q0 -104 -68 -145q80 -33 80 -152q0 -101 -61 -153q-63 -53 -172 -53q-43 0 -105 6l-98 8z" />
<glyph horiz-adv-x="540" d="M25 854v158l100 401h209l-121 -389h86l25 184h163v-184h33v-170h-33v-80h-188v80h-274z" />
<glyph horiz-adv-x="540" d="M45 786l14 154q113 -18 193 -18q66 0 65.5 53t-47.5 53q-27 0 -69 -16l-142 18l23 383h410v-162h-261l-8 -82q55 18 99 19q193 0 192 -203q0 -225 -235 -225q-25 0 -103 8q-55 6 -94 12z" />
<glyph horiz-adv-x="540" d="M27 1075q0 178 63 271q61 90 209 90q35 0 84 -6q53 -6 84 -13l35 -6l-10 -156q-127 12 -187 13q-86 0 -86 -84l14 4l37 6q25 6 41 6q211 0 211 -215q0 -111 -67.5 -172t-169.5 -61q-258 -1 -258 323zM219 1022q0 -104 57 -104q55 0 56 65q0 61 -53 61q-15 0 -31 -6 t-23 -12z" />
<glyph horiz-adv-x="540" d="M47 1227v186h451v-190l-201 -469l-213 34l195 408v31h-232z" />
<glyph horiz-adv-x="540" d="M16 961q0 61 27 100q25 35 51 47q-18 8 -42.5 45t-24.5 102q0 180 245 181q248 0 248 -183q0 -61 -24 -100q-27 -43 -43 -47q12 -2 28 -16q16 -12 31 -46q16 -37 16 -81q0 -113 -65 -162t-191 -49q-129 0 -192.5 49t-63.5 160zM211 965q0 -59 61.5 -59.5t61.5 61.5 q0 45 -43 65h-37q-43 -20 -43 -67zM213 1231q0 -39 41 -64h37q39 20 39 64q0 51 -58 51q-59 0 -59 -51z" />
<glyph horiz-adv-x="540" d="M25 1202q0 111 65 172t172 62q260 0 260 -340q0 -178 -61 -260q-61 -84 -203 -84q-25 0 -94 8q-55 6 -84 12l-33 8l12 154q96 -12 174 -12q88 0 89 79l-15 -2q-14 -4 -33 -6q-29 -4 -41 -4q-208 0 -208 213zM215 1202q0 -31 14 -47q16 -18 39 -18q25 0 62 18 q0 113 -60 113q-55 0 -55 -66z" />
</font>
</defs>
</svg>
