<svg width="1024" height="1024" viewBox="0 0 1024 1024"><g><path d="M1024 512v64h-234.506c27.504 38.51 42.506 82.692 42.506 128 0 70.878-36.66 139.026-100.58 186.964-59.358 44.518-137.284 69.036-219.42 69.036-82.138 0-160.062-24.518-219.42-69.036-63.92-47.938-100.58-116.086-100.58-186.964h128c0 69.382 87.926 128 192 128s192-58.618 192-128c0-69.382-87.926-128-192-128h-512v-64h299.518c-2.338-1.654-4.656-3.324-6.938-5.036-63.92-47.94-100.58-116.086-100.58-186.964s36.66-139.024 100.58-186.964c59.358-44.518 137.282-69.036 219.42-69.036 82.136 0 160.062 24.518 219.42 69.036 63.92 47.94 100.58 116.086 100.58 186.964h-128c0-69.382-87.926-128-192-128s-192 58.618-192 128c0 69.382 87.926 128 192 128 78.978 0 154.054 22.678 212.482 64h299.518z"></path></g></svg>