<?xml version="1.0" encoding="utf-8"?>
<!-- Generator: Adobe Illustrator 20.0.0, SVG Export Plug-In . SVG Version: 6.00 Build 0)  -->
<svg version="1.1" id="Layer_1" xmlns="http://www.w3.org/2000/svg" xmlns:xlink="http://www.w3.org/1999/xlink" x="0px" y="0px"
	 viewBox="0 0 2048 2048" style="enable-background:new 0 0 2048 2048;" xml:space="preserve">
<path d="M1613.5,840.7V267.9c0-6-4.9-10.9-11.1-10.9h-1157c-6.1,0-11.1,4.9-11.1,10.9v572.8H256.7V1789h1534.6V840.7H1613.5z
	 M670.3,501.1c0-6,4.9-10.9,11.1-10.9h685.3c6.1,0,11.1,4.9,11.1,10.9v339.6H670.3V501.1z M1101.2,1304.4v259.1
	c0,4.3-3.2,7.7-7.2,7.7H954.1c-4,0-7.2-3.4-7.2-7.7v-259.1c-35.7-24.3-59.2-65-59.2-111.2c0-74.5,61.1-134.8,136.4-134.8
	s136.4,60.4,136.4,134.8C1160.4,1239.4,1136.9,1280.1,1101.2,1304.4z"/>
</svg>
