<?xml version="1.0" encoding="utf-8"?>
<!-- Generator: Adobe Illustrator 20.0.0, SVG Export Plug-In . SVG Version: 6.00 Build 0)  -->
<svg version="1.1" id="Layer_1" xmlns="http://www.w3.org/2000/svg" xmlns:xlink="http://www.w3.org/1999/xlink" x="0px" y="0px"
	 viewBox="0 0 2048 2048" style="enable-background:new 0 0 2048 2048;" xml:space="preserve">
<style type="text/css">
	.st0{fill:#4E4E4E;}
</style>
<g>
	<rect x="2266.8" y="1858.7" class="st0" width="7.1" height="7.1"/>
	<rect x="2276.7" y="1858.7" class="st0" width="7.1" height="1.9"/>
	<rect x="2266.8" y="1868.6" class="st0" width="7.1" height="7.1"/>
	<rect x="2276.7" y="1862.2" class="st0" width="7.1" height="1.9"/>
	<rect x="2276.7" y="1868.6" class="st0" width="7.1" height="1.9"/>
	<rect x="2276.7" y="1872.2" class="st0" width="7.1" height="1.9"/>
</g>
<path d="M1024,256.5L359.3,640.3v38.4v55.9v673.2l664.7,383.7l664.7-383.7V734.5v-55.9v-38.4L1024,256.5z M1500.3,686.1l-476.3,275
	l-476.3-275l476.3-275L1500.3,686.1z M1553.6,1328.5L1024,1634.3l-529.6-305.8v-516l529.6,305.8l529.6-305.8V1328.5z"/>
</svg>
