<?xml version="1.0" encoding="utf-8"?>
<!-- Generator: Adobe Illustrator 20.0.0, SVG Export Plug-In . SVG Version: 6.00 Build 0)  -->
<svg version="1.1" id="Layer_1" xmlns="http://www.w3.org/2000/svg" xmlns:xlink="http://www.w3.org/1999/xlink" x="0px" y="0px"
	 viewBox="0 0 2048 2048" style="enable-background:new 0 0 2048 2048;" xml:space="preserve">
<g>
	<path d="M397,1323.9c77.3,0,140-62.8,140-140.4c0-7.3-1.1-14.4-2.1-21.4l222.6-196.3c12.4,3.6,25.1,6.1,38.6,6.1
		c33.6,0,64-12.3,88.1-32.1l202.2,66.7c15.4,60.7,69.9,105.8,135.2,105.8c77.3,0,140-62.9,140-140.4c0-14.4-2.8-28-6.8-41.1
		L1615.4,623c6.2,0.8,12.3,1.9,18.7,1.9c77.3,0,140-62.8,140-140.4c0-77.5-62.7-140.4-140-140.4c-77.3,0-140,62.8-140,140.4
		c0,14.4,2.8,28,6.8,41.1l-260.5,307.8c-6.2-0.8-12.3-1.9-18.7-1.9c-33.6,0-64,12.3-88.1,32.1l-202.2-66.7
		c-15.4-60.7-69.9-105.8-135.2-105.8c-77.3,0-140,62.9-140,140.4c0,7.3,1.1,14.4,2.1,21.4l-222.6,196.3c-12.3-3.6-25.1-6.1-38.6-6.1
		c-77.3,0-140,62.8-140,140.4C257,1261.1,319.7,1323.9,397,1323.9z"/>
	<rect x="271.1" y="1514.8" width="1517.2" height="189.1"/>
</g>
</svg>
