<?xml version="1.0" encoding="utf-8"?>
<!-- Generator: Adobe Illustrator 20.0.0, SVG Export Plug-In . SVG Version: 6.00 Build 0)  -->
<svg version="1.1" id="Layer_1" xmlns="http://www.w3.org/2000/svg" xmlns:xlink="http://www.w3.org/1999/xlink" x="0px" y="0px"
	 viewBox="0 0 2048 2048" style="enable-background:new 0 0 2048 2048;" xml:space="preserve">
<g>
	<path d="M1729.9,727.6c-38.6-91.2-93.8-173.2-164.2-243.5c-70.3-70.3-152.3-125.6-243.5-164.2c-94.5-40-194.8-60.2-298.2-60.2
		S820.3,280,725.8,320c-91.2,38.6-173.2,93.8-243.5,164.2c-70.3,70.3-125.6,152.3-164.2,243.5c-40,94.5-60.2,194.8-60.2,298.2
		c0,103.4,20.3,203.7,60.2,298.2c38.6,91.2,93.8,173.2,164.2,243.5c70.3,70.3,152.3,125.6,243.5,164.2
		c94.5,40,194.8,60.2,298.2,60.2s203.7-20.3,298.2-60.2c91.2-38.6,173.2-93.8,243.5-164.2c70.3-70.3,125.6-152.3,164.2-243.5
		c40-94.5,60.2-194.8,60.2-298.2C1790.1,922.5,1769.9,822.1,1729.9,727.6z M1609.5,1273.2c-32,75.7-77.8,143.6-136.2,202
		c-58.4,58.4-126.3,104.2-202,136.2c-78.3,33.1-161.5,49.9-247.3,49.9c-85.8,0-169-16.8-247.3-49.9c-75.7-32-143.6-77.8-202-136.2
		c-58.4-58.4-104.2-126.3-136.2-202c-33.1-78.3-49.9-161.5-49.9-247.3s16.8-169,49.9-247.3c32-75.7,77.8-143.6,136.2-202
		c58.4-58.4,126.3-104.2,202-136.2c78.3-33.1,161.5-49.9,247.3-49.9c85.8,0,169,16.8,247.3,49.9c75.7,32,143.6,77.8,202,136.2
		c58.4,58.4,104.2,126.3,136.2,202c33.1,78.3,49.9,161.5,49.9,247.3S1642.6,1194.9,1609.5,1273.2z"/>
	<polygon points="1132.1,872.9 1024,522.5 911.2,875.5 537.5,876 841.8,1089.1 723.3,1448 1021.9,1214.3 1324.7,1448 1185,1091.5 
		1510.5,876 	"/>
</g>
</svg>
