<?xml version="1.0" encoding="utf-8"?>
<!-- Generator: Adobe Illustrator 26.5.0, SVG Export Plug-In . SVG Version: 6.00 Build 0)  -->
<svg version="1.1" id="Calque_1" xmlns="http://www.w3.org/2000/svg" xmlns:xlink="http://www.w3.org/1999/xlink" x="0px" y="0px"
	 width="24px" height="24px" viewBox="0 0 24 24" style="enable-background:new 0 0 24 24;" xml:space="preserve">
<style type="text/css">
	.st0{fill:none;}
</style>
<path class="st0" d="M0,0h24v24H0V0z"/>
<path d="M16,1.1H4c-1.1,0-2,0.9-2,2v14h2V2.9h12V1.1z M18.9,5.1H8c-1.1,0-2,0.9-2,2v14c0,1.1,0.9,2,2,2h10.9c1.1,0,2-0.9,2-2V6.9
	C21.1,5.9,20.1,5.1,18.9,5.1z M18.9,21.1H8V6.9h10.9V21.1z"/>
<g>
	<path d="M10.8,10.1h2.7c0.5,0,0.9,0.1,1.3,0.3c0.4,0.1,0.7,0.5,0.9,0.8c0.3,0.4,0.4,0.8,0.4,1.2c0,0.5-0.1,0.9-0.4,1.2
		s-0.5,0.7-0.9,0.8c-0.4,0.1-0.8,0.3-1.3,0.3h-1.2v2.8h-1.5V10.1z M13.6,13.6c0.4,0,0.7-0.1,0.8-0.3c0.3-0.3,0.3-0.4,0.3-0.8
		s0-0.5-0.3-0.7c-0.3-0.3-0.5-0.3-0.8-0.3h-1.3v2.1h1.3V13.6z"/>
</g>
</svg>
