<?xml version="1.0" encoding="utf-8"?>
<!-- Generator: Adobe Illustrator 26.5.0, SVG Export Plug-In . SVG Version: 6.00 Build 0)  -->
<svg version="1.1" id="Calque_1" xmlns="http://www.w3.org/2000/svg" xmlns:xlink="http://www.w3.org/1999/xlink" x="0px" y="0px"
	 width="24px" height="24px" viewBox="0 0 24 24" style="enable-background:new 0 0 24 24;" xml:space="preserve">
<style type="text/css">
	.st0{fill:none;}
</style>
<path class="st0" d="M-0.1,0h24v24h-24V0z"/>
<path d="M15.9,1.1h-12c-1.1,0-2,0.9-2,2v14h2V2.9h12V1.1z M18.9,5.1H7.9c-1.1,0-2,0.9-2,2v14c0,1.1,0.9,2,2,2h10.9c1.1,0,2-0.9,2-2
	V6.9C21,5.9,20.1,5.1,18.9,5.1z M18.9,21.1H7.9V6.9h10.9V21.1z"/>
<g>
	<path d="M9.5,10.1h1.9l2,5.3h0.1l2-5.3h1.9v7.6h-1.5V14l0.1-1.3h-0.1l-2,5.1h-1.1l-2-4.9l0,0l0.1,1.3v3.7H9.5V10.1z"/>
</g>
</svg>
