<svg xmlns="http://www.w3.org/2000/svg" viewBox="0 0 81 31.95"><title>DNN Logo</title><path d="M45,19.5H42.63V14.74H45a2.38,2.38,0,0,1,0,4.76m0-8.85H38.42V23.59H45a6.47,6.47,0,0,0,0-12.94" fill="#472a2b"/><path d="M66.1,17.06a6.48,6.48,0,0,0-6.48-6.41H53.15V23.59h4.21V14.86h2.26a2.26,2.26,0,0,1,2.27,2.26v6.47H66.1V17.06Z" fill="#472a2b"/><path d="M81,17.06a6.47,6.47,0,0,0-6.47-6.41H68.05V23.59h4.21V14.86h2.27a2.26,2.26,0,0,1,2.26,2.26v6.47H81V17.06Z" fill="#472a2b"/><path d="M21.3,10.65V.91A16,16,0,0,0,16,0H0V21.3H10.65V10.65Z" fill="#ef3e42"/><path d="M21.3.91v9.74H31A16,16,0,0,0,21.3.91M0,32H10.65V21.3H0Z" fill="#472a2b"/><path d="M31,10.65H21.3V16A5.33,5.33,0,0,1,16,21.3H10.65V32H16A16,16,0,0,0,31,10.65" fill="#00a4e4"/></svg>