<?xml version="1.0" encoding="utf-8"?>
<!-- Generator: Adobe Illustrator 20.0.0, SVG Export Plug-In . SVG Version: 6.00 Build 0)  -->
<svg version="1.1" id="Layer_1" xmlns="http://www.w3.org/2000/svg" xmlns:xlink="http://www.w3.org/1999/xlink" x="0px" y="0px"
	 viewBox="0 0 35 52" style="enable-background:new 0 0 35 52;" xml:space="preserve">
<style type="text/css">
	.st0{clip-path:url(#SVGID_2_);}
	.st1{clip-path:url(#SVGID_4_);fill:#FEFEFE;}
	.st2{clip-path:url(#SVGID_6_);}
	.st3{clip-path:url(#SVGID_8_);fill:#FEFEFE;}
	.st4{clip-path:url(#SVGID_10_);}
	.st5{clip-path:url(#SVGID_12_);fill:#FEFEFE;}
	.st6{clip-path:url(#SVGID_14_);}
	.st7{clip-path:url(#SVGID_16_);enable-background:new    ;}
	.st8{clip-path:url(#SVGID_18_);}
	.st9{clip-path:url(#SVGID_20_);}
	.st10{clip-path:url(#SVGID_22_);fill:#EE3D42;}
	.st11{clip-path:url(#SVGID_24_);}
	.st12{clip-path:url(#SVGID_26_);fill:#47292A;}
	.st13{clip-path:url(#SVGID_28_);}
	.st14{clip-path:url(#SVGID_30_);enable-background:new    ;}
	.st15{clip-path:url(#SVGID_32_);}
	.st16{clip-path:url(#SVGID_34_);}
	.st17{clip-path:url(#SVGID_36_);fill:#FEFEFE;}
	.st18{clip-path:url(#SVGID_38_);}
	.st19{clip-path:url(#SVGID_40_);fill:#00A3E3;}
</style>
<g>
	<g>
		<defs>
			<path id="SVGID_1_" d="M23.8,44.6c0-2.6-2.2-4.7-4.8-4.7h-4.8v9.6h3.1V43H19c0.9,0,1.7,0.8,1.7,1.7v4.8h3.1L23.8,44.6L23.8,44.6z
				"/>
		</defs>
		<clipPath id="SVGID_2_">
			<use xlink:href="#SVGID_1_"  style="overflow:visible;"/>
		</clipPath>
		<g class="st0">
			<defs>
				<rect id="SVGID_3_" x="-21.6" y="-22.1" width="1280" height="850"/>
			</defs>
			<clipPath id="SVGID_4_">
				<use xlink:href="#SVGID_3_"  style="overflow:visible;"/>
			</clipPath>
			<rect x="9.2" y="34.9" class="st1" width="19.6" height="19.6"/>
		</g>
	</g>
	<g>
		<defs>
			<path id="SVGID_5_" d="M34.8,44.6c0-2.6-2.2-4.7-4.8-4.7h-4.8v9.6h3.1V43H30c0.9,0,1.7,0.8,1.7,1.7v4.8h3.1L34.8,44.6L34.8,44.6z
				"/>
		</defs>
		<clipPath id="SVGID_6_">
			<use xlink:href="#SVGID_5_"  style="overflow:visible;"/>
		</clipPath>
		<g class="st2">
			<defs>
				<rect id="SVGID_7_" x="-21.6" y="-22.1" width="1280" height="850"/>
			</defs>
			<clipPath id="SVGID_8_">
				<use xlink:href="#SVGID_7_"  style="overflow:visible;"/>
			</clipPath>
			<rect x="20.2" y="34.9" class="st3" width="19.6" height="19.6"/>
		</g>
	</g>
	<g>
		<defs>
			<path id="SVGID_9_" d="M8.2,46.5H6.5v-3.5h1.8c1,0,1.8,0.8,1.8,1.8S9.2,46.5,8.2,46.5 M8.2,39.9H3.4v9.6h4.9
				c2.6,0,4.8-2.1,4.8-4.8S10.9,39.9,8.2,39.9"/>
		</defs>
		<clipPath id="SVGID_10_">
			<use xlink:href="#SVGID_9_"  style="overflow:visible;"/>
		</clipPath>
		<g class="st4">
			<defs>
				<rect id="SVGID_11_" x="-21.6" y="-22.1" width="1280" height="850"/>
			</defs>
			<clipPath id="SVGID_12_">
				<use xlink:href="#SVGID_11_"  style="overflow:visible;"/>
			</clipPath>
			<rect x="-1.6" y="34.9" class="st5" width="19.6" height="19.6"/>
		</g>
	</g>
</g>
<g>
	<defs>
		<rect id="SVGID_13_" x="3.4" y="3.4" width="19.3" height="19.6"/>
	</defs>
	<clipPath id="SVGID_14_">
		<use xlink:href="#SVGID_13_"  style="overflow:visible;"/>
	</clipPath>
	<g class="st6">
		<defs>
			<rect id="SVGID_15_" x="-21.6" y="-22.1" width="1280" height="850"/>
		</defs>
		<clipPath id="SVGID_16_">
			<use xlink:href="#SVGID_15_"  style="overflow:visible;"/>
		</clipPath>
		<g class="st7">
			<g>
				<defs>
					<rect id="SVGID_17_" x="3.4" y="2.9" width="20" height="21"/>
				</defs>
				<clipPath id="SVGID_18_">
					<use xlink:href="#SVGID_17_"  style="overflow:visible;"/>
				</clipPath>
				<g class="st8">
					<defs>
						<path id="SVGID_19_" d="M22.6,13.2v-9c-1.5-0.5-3.1-0.8-4.8-0.8H3.4V23H13v-9.8H22.6z"/>
					</defs>
					<clipPath id="SVGID_20_">
						<use xlink:href="#SVGID_19_"  style="overflow:visible;"/>
					</clipPath>
					<g class="st9">
						<defs>
							<rect id="SVGID_21_" x="3.4" y="2.9" width="20" height="21"/>
						</defs>
						<clipPath id="SVGID_22_">
							<use xlink:href="#SVGID_21_"  style="overflow:visible;"/>
						</clipPath>
						<rect x="-1.6" y="-1.6" class="st10" width="29.3" height="29.6"/>
					</g>
				</g>
			</g>
		</g>
	</g>
</g>
<g>
	<defs>
		<path id="SVGID_23_" d="M22.6,13.2H13V23h4.8c2.7,0,4.8-2.2,4.8-4.9V13.2z"/>
	</defs>
	<clipPath id="SVGID_24_">
		<use xlink:href="#SVGID_23_"  style="overflow:visible;"/>
	</clipPath>
	<g class="st11">
		<defs>
			<rect id="SVGID_25_" x="-21.6" y="-22.1" width="1280" height="850"/>
		</defs>
		<clipPath id="SVGID_26_">
			<use xlink:href="#SVGID_25_"  style="overflow:visible;"/>
		</clipPath>
		<rect x="8" y="8.2" class="st12" width="19.6" height="19.8"/>
	</g>
</g>
<g>
	<defs>
		<rect id="SVGID_27_" x="3.4" y="3.4" width="28.9" height="29.4"/>
	</defs>
	<clipPath id="SVGID_28_">
		<use xlink:href="#SVGID_27_"  style="overflow:visible;"/>
	</clipPath>
	<g class="st13">
		<defs>
			<rect id="SVGID_29_" x="-21.6" y="-22.1" width="1280" height="850"/>
		</defs>
		<clipPath id="SVGID_30_">
			<use xlink:href="#SVGID_29_"  style="overflow:visible;"/>
		</clipPath>
		<g class="st14">
			<g>
				<defs>
					<rect id="SVGID_31_" x="3.4" y="3.9" width="29" height="29"/>
				</defs>
				<clipPath id="SVGID_32_">
					<use xlink:href="#SVGID_31_"  style="overflow:visible;"/>
				</clipPath>
				<g class="st15">
					<defs>
						<path id="SVGID_33_" d="M22.6,4.3v9h8.8C30,9,26.7,5.7,22.6,4.3z M3.4,32.8H13V23H3.4V32.8z"/>
					</defs>
					<clipPath id="SVGID_34_">
						<use xlink:href="#SVGID_33_"  style="overflow:visible;"/>
					</clipPath>
					<g class="st16">
						<defs>
							<rect id="SVGID_35_" x="3.4" y="2.9" width="29" height="30"/>
						</defs>
						<clipPath id="SVGID_36_">
							<use xlink:href="#SVGID_35_"  style="overflow:visible;"/>
						</clipPath>
						<rect x="-1.6" y="-0.7" class="st17" width="38.1" height="38.5"/>
					</g>
				</g>
				<g class="st15">
					<defs>
						<path id="SVGID_37_" d="M31.4,13.2h-8.8v4.9c0,2.7-2.2,4.9-4.8,4.9H13v9.8h4.8c8,0,14.4-6.6,14.4-14.7
							C32.3,16.4,32,14.7,31.4,13.2"/>
					</defs>
					<clipPath id="SVGID_38_">
						<use xlink:href="#SVGID_37_"  style="overflow:visible;"/>
					</clipPath>
					<g class="st18">
						<defs>
							<rect id="SVGID_39_" x="3.4" y="2.9" width="29" height="30"/>
						</defs>
						<clipPath id="SVGID_40_">
							<use xlink:href="#SVGID_39_"  style="overflow:visible;"/>
						</clipPath>
						<rect x="8" y="8.2" class="st19" width="29.3" height="29.6"/>
					</g>
				</g>
			</g>
		</g>
	</g>
</g>
</svg>
