<?xml version="1.0" encoding="utf-8"?>
<!-- Generator: Adobe Illustrator 20.0.0, SVG Export Plug-In . SVG Version: 6.00 Build 0)  -->
<svg version="1.1" id="Layer_1" xmlns="http://www.w3.org/2000/svg" xmlns:xlink="http://www.w3.org/1999/xlink" x="0px" y="0px"
	 viewBox="0 0 2048 2048" style="enable-background:new 0 0 2048 2048;" xml:space="preserve">
<g>
	<path d="M874.9,453.3c-52.3,13.7-101.8,34.6-147.4,61.4L565.8,395.6L397.9,564.1l118.7,162.3
		c-26.7,45.7-47.5,95.4-61.2,147.9l-198.1,30.5V1143l198.3,30.5c13.7,52.5,34.3,102.2,61,147.9l-118.7,162.3l167.9,168.4L727.5,1533
		c45.4,26.7,94.7,47.5,146.8,61.3l31,199h237.4l31-199c51.9-13.7,101-34.4,146.3-60.9l162.2,118.8l167.9-168.4l-118.4-162.8
		c26.5-45.4,47.1-94.7,60.8-146.8l198.3-31.1V904.7l-198.5-31.1c-13.7-52.1-34.1-101.4-60.5-146.8l118.4-162.8l-167.9-168.4
		L1320,514.4c-45.4-26.6-94.7-47.4-146.9-61.1l-30.4-198.8H905.3L874.9,453.3z M1337.1,1023.9c0,173.5-140.2,314.1-313.1,314.1
		c-172.9,0-313.1-140.6-313.1-314.1c0-173.5,140.2-314.1,313.1-314.1C1196.9,709.7,1337.1,850.4,1337.1,1023.9z"/>
</g>
</svg>
