<?xml version="1.0" encoding="utf-8"?>
<!-- Generator: Adobe Illustrator 20.0.0, SVG Export Plug-In . SVG Version: 6.00 Build 0)  -->
<svg version="1.1" id="Layer_1" xmlns="http://www.w3.org/2000/svg" xmlns:xlink="http://www.w3.org/1999/xlink" x="0px" y="0px"
	 viewBox="0 0 2048 2048" style="enable-background:new 0 0 2048 2048;" xml:space="preserve">
<g>
	<circle cx="1112.9" cy="648.5" r="120.3"/>
	<path d="M1170.1,1456.4l-111.3-57.5l0,0c-16.7-10.1-33.1-26.3-25.4-58.6l55.3-186.4h-0.4l69.5-234.3c0,0,10.4-32.6,10.4-43.6
		c0-32.2-26.1-58.2-58.2-58.2v-1.4H1079H823.6c-10.2,0-18.5,8.3-18.5,18.5c0,6.9,3.9,13.3,10,16.5l111.3,57.5l0,0
		c16.7,10.1,33.1,26.3,25.4,58.6l-55.3,186.4h0.4l-69.5,234.3c0,0-10.4,32.6-10.4,43.6c0,32.2,26.1,58.2,58.2,58.2v1.4h31.1h255.4
		c10.2,0,18.5-8.3,18.5-18.5C1180.2,1465.9,1176.3,1459.6,1170.1,1456.4z"/>
	<path d="M1729.9,727.6c-38.6-91.2-93.8-173.2-164.2-243.5c-70.3-70.3-152.3-125.6-243.5-164.2c-94.5-40-194.8-60.2-298.2-60.2
		S820.3,280,725.8,320c-91.2,38.6-173.2,93.8-243.5,164.2c-70.3,70.3-125.6,152.3-164.2,243.5c-40,94.5-60.2,194.8-60.2,298.2
		c0,103.4,20.3,203.7,60.2,298.2c38.6,91.2,93.8,173.2,164.2,243.5c70.3,70.3,152.3,125.6,243.5,164.2
		c94.5,40,194.8,60.2,298.2,60.2s203.7-20.3,298.2-60.2c91.2-38.6,173.2-93.8,243.5-164.2c70.3-70.3,125.6-152.3,164.2-243.5
		c40-94.5,60.2-194.8,60.2-298.2C1790.1,922.5,1769.9,822.1,1729.9,727.6z M1609.5,1273.2c-32,75.7-77.8,143.6-136.2,202
		c-58.4,58.4-126.3,104.2-202,136.2c-78.3,33.1-161.5,49.9-247.3,49.9c-85.8,0-169-16.8-247.3-49.9c-75.7-32-143.6-77.8-202-136.2
		c-58.4-58.4-104.2-126.3-136.2-202c-33.1-78.3-49.9-161.5-49.9-247.3s16.8-169,49.9-247.3c32-75.7,77.8-143.6,136.2-202
		c58.4-58.4,126.3-104.2,202-136.2c78.3-33.1,161.5-49.9,247.3-49.9c85.8,0,169,16.8,247.3,49.9c75.7,32,143.6,77.8,202,136.2
		c58.4,58.4,104.2,126.3,136.2,202c33.1,78.3,49.9,161.5,49.9,247.3S1642.6,1194.9,1609.5,1273.2z"/>
</g>
</svg>
