<?xml version="1.0" encoding="utf-8"?>
<!-- Generator: Adobe Illustrator 20.0.0, SVG Export Plug-In . SVG Version: 6.00 Build 0)  -->
<svg version="1.1" id="Layer_1" xmlns="http://www.w3.org/2000/svg" xmlns:xlink="http://www.w3.org/1999/xlink" x="0px" y="0px"
	 viewBox="0 0 2048 2048" style="enable-background:new 0 0 2048 2048;" xml:space="preserve">
<g>
	<path d="M695.2,690.8c67.9-0.2,123.6-56.2,123.5-124.1c-0.1-69.5-56-124.4-126.3-124.1c-67.4,0.2-122.3,56.3-122.1,124.5
		C570.6,635.9,626.2,691,695.2,690.8z M694.6,457.3c60.9,0.2,109.3,49.3,109,110.7c-0.3,59.6-49.4,108.1-109.3,107.8
		c-60.8-0.3-109.5-49.2-109.2-109.9C585.4,506,634.8,457.1,694.6,457.3z"/>
	<path d="M585.1,686.8v124.7l109.2-26.9l109.3,26.9V686.9c32.8-29.8,53.6-72.8,53.5-120.2c-0.1-90.9-73.2-162.8-165.2-162.4
		c-88.1,0.3-160.1,73.7-159.8,163C532.2,614.8,552.6,657.3,585.1,686.8z M694.6,423.5c79.7,0.2,143,64.5,142.6,144.8
		c-0.4,78-64.7,141.4-143,141.1C614.7,709,551,645,551.4,565.6C551.7,487.3,616.3,423.3,694.6,423.5z"/>
	<path d="M373.6,258.6v1530.9h1300.8V258.6H373.6z M1626.1,1741.2H421.9V306.8h1204.3V1741.2z"/>
	<rect x="957.2" y="457.3" width="527.1" height="43.8"/>
	<rect x="957.2" y="586" width="527.1" height="43.8"/>
	<rect x="957.2" y="725.2" width="527.1" height="43.8"/>
	<rect x="551.4" y="920.5" width="933" height="43.8"/>
	<rect x="551.4" y="1068.2" width="933" height="43.8"/>
	<rect x="557.5" y="1224.7" width="933" height="43.8"/>
	<rect x="557.5" y="1374.3" width="933" height="43.8"/>
	<rect x="557.5" y="1530.6" width="933" height="43.8"/>
</g>
</svg>
