<?xml version="1.0" encoding="utf-8"?>
<!-- Generator: Adobe Illustrator 20.0.0, SVG Export Plug-In . SVG Version: 6.00 Build 0)  -->
<svg version="1.1" id="Layer_1" xmlns="http://www.w3.org/2000/svg" xmlns:xlink="http://www.w3.org/1999/xlink" x="0px" y="0px"
	 viewBox="0 0 2048 2048" style="enable-background:new 0 0 2048 2048;" xml:space="preserve">
<g>
	<path d="M1024,254.9c-424.8,0-769.1,344.4-769.1,769.1s344.4,769.1,769.1,769.1s769.1-344.4,769.1-769.1S1448.8,254.9,1024,254.9z
		 M1024,1667.6c-355.5,0-643.6-288.2-643.6-643.6S668.5,380.4,1024,380.4s643.6,288.2,643.6,643.6S1379.5,1667.6,1024,1667.6z"/>
	<polygon points="1150,640 898,640 898,898 640,898 640,1150 898,1150 898,1408 1150,1408 1150,1150 1408,1150 1408,898 1150,898 	
		"/>
</g>
</svg>
