<svg xmlns="http://www.w3.org/2000/svg" viewBox="0 0 526.08 398.98"><defs><style>.a{fill:#ccc;}.b,.c{fill:#b3b3b3;}.c{stroke:#b3b3b3;stroke-miterlimit:10;}</style></defs><title>revised no data states</title><path class="a" d="M307,273.35l-10.9,2.28c-1.56.48-3.2.92-4.9,1.28-1.92.41-3.78.7-5.57.91h0a19.32,19.32,0,0,1-10.71,2.94c-5.52,0-10.31-1.9-12.73-4.69-2.42,2.79-7.21,4.69-12.73,4.69-6.74,0-12.38-2.83-13.95-6.65-1.83,3.58-7.29,6.17-13.74,6.17s-11.82-2.55-13.69-6.08c-17.83,1.3-29.1,3.21-29.1,5.33,0,3.92,38.36,7.1,85.68,7.1s85.68-3.18,85.68-7.1C350.29,276.87,332.84,274.57,307,273.35Z"/><path class="b" d="M239.28,240.75c.46,3.49,6.6,5.51,13.72,4.5s12.51-4.65,12.05-8.14-6.6-5.51-13.72-4.5S238.82,237.26,239.28,240.75Z"/><path class="b" d="M217.34,209c5.69.69,10.41,3,12.59,5.72.06-4.65-5.64-9-13.21-9.94-8-1-15,2.23-15.66,7.14l1.77.22C205.5,209.57,211.12,208.23,217.34,209Z"/><path class="b" d="M235,265c13.61,1.53,29-3.89,34.45-12.1,2.65-4,2.4-8-.15-11.12a8.21,8.21,0,0,1-1,3.87c-4.32,8.13-20.68,14.47-36.54,14.16-4.5-.09-15.44,1-18.73,0"/><path class="b" d="M189.39,243.74c1.43.46,8.73-2.65,8.73-2.65l-2.13-28c-3.37.26-3.75-3.73-10.48-3.77s-12.15,4.59-12.15,4.59l3.61,8.89,3.61,8.89,3.41,7.21"/><path class="b" d="M223.78,230.58c-4.61,1.29-9,.8-11.2-1a3,3,0,0,0-.38,2.4c.74,2.36,4.86,3.28,9.21,2.07,3.59-1,6.2-3.16,6.59-5.21A18.8,18.8,0,0,1,223.78,230.58Z"/><path class="b" d="M236.89,228.26c-2.36.66-4.62.41-5.74-.52A1.53,1.53,0,0,0,231,229c.38,1.21,2.49,1.68,4.72,1.06,1.84-.52,3.18-1.62,3.38-2.67A9.63,9.63,0,0,1,236.89,228.26Z"/><path class="b" d="M238.31,206.67c-6.73,0-7.11,4-10.48,3.77l-.19,2.52a29.8,29.8,0,0,1,5.16,2.75,26.48,26.48,0,0,1,10.53,13.13l3.52-8.68,3.61-8.89S245,206.63,238.31,206.67Z"/><path class="b" d="M206,267.91a9.29,9.29,0,0,1,2.41-2.62l.48,4.62a4.86,4.86,0,0,0,.26,2.46v.09h0c.85,2.2,3.21,4.17,6.59,5.2,5.57,1.69,11.81.15,13.94-3.43s-.67-7.84-6.24-9.53a16.14,16.14,0,0,0-4.38-.68l-.19-1.82a22.44,22.44,0,0,1,6.47.94c7.75,2.34,11.63,8.27,8.68,13.25s-11.63,7.11-19.38,4.76S203.07,272.88,206,267.91Z"/><path class="b" d="M205.6,255c-7.79-10.21-8.45-15.37-6.65-7.18-1.79,3.08.12,8.14,4.5,11.61,4.6,3.65,12,3.53,14.27.51l-.57-.44C213.86,260.64,208.62,259,205.6,255Z"/><path class="b" d="M261.43,267.91a9.29,9.29,0,0,0-2.41-2.62l-.48,4.62a4.86,4.86,0,0,1-.26,2.46v.09h0c-.85,2.2-3.21,4.17-6.59,5.2-5.57,1.69-11.81.15-13.94-3.43s.67-7.84,6.24-9.53a16.14,16.14,0,0,1,4.38-.68l.19-1.82a22.44,22.44,0,0,0-6.47.94c-7.75,2.34-11.63,8.27-8.68,13.25s11.63,7.11,19.38,4.76S264.39,272.88,261.43,267.91Z"/><path class="b" d="M207.08,267.13c-1.33-.14-6.33-2.7-6.58-5-.2-1.92-4.43-10.68-3.55-2.29.26,3,2.92,6.88,6.16,9a5.05,5.05,0,0,0,5,.65C207.78,268.67,207.42,267.89,207.08,267.13Z"/><path class="b" d="M289.84,225.28c13.48,1.72,25,4.87,30.58,8.08-.69-4.75-14.83-10.22-32.76-12.51-18.85-2.4-34.74-.37-35.49,4.54l4.19.53C262.14,223.78,275.09,223.41,289.84,225.28Z"/><path class="b" d="M266.82,277.41c-1.83-2.2,2.25-5.76,9.13-8a30.78,30.78,0,0,1,11.54-1.57,11.48,11.48,0,0,1,5.23-6.31c-5.8-3.61-9-8.48-7.92-13.31s6.45-8.75,13.77-10.52l5.62-.92a47.21,47.21,0,0,1,16.16,1.42,30,30,0,0,0-3.69-1.78,42.7,42.7,0,0,0-7.81-1.67A38.89,38.89,0,0,0,287.4,238c-3.51,2.17-6,5.11-6.72,8.57-.8,3.63.4,7.23,3,10.34a13.15,13.15,0,0,0-2.95,5.81,12.29,12.29,0,0,0-.28,3,28.64,28.64,0,0,0-13,1.62c-7.66,2.81-11.25,7.89-8,11.35s19.15,3,26.81.15c2.66-1,19.44-4.8,21-6.16-.94.41-18.07,3.48-19.16,3.83C281.3,278.7,268.65,279.61,266.82,277.41Z"/><path class="b" d="M322.81,234.58l-1-1.21c-.89,1.53-.37,3.5.41,5.35a81.5,81.5,0,0,0,1.62,9.41c-.18,3.43-.59,7.69-1.63,10-1.94,4.34-11.29,14.19-14.9,14.52,4.82,1.87,12.35-5.88,16-10.52a28,28,0,0,0,3-5.89,2.9,2.9,0,0,0,.78,1.18c3,3.06,1.92,6.31-5.2,12.49a41.13,41.13,0,0,1-13,7.67,4.69,4.69,0,0,0,1.36,1c5,2.37,19.38-2,23.48-8.27C343,256,322.75,234.46,322.81,234.58Z"/><path class="b" d="M286.38,222.91l-13.56-1.53-10.4,2.1c.12.21.24.42.38.62,2.11,3.1,6.91,5.88,12.81,7,8.52,1.68,16.11-.63,17-5.17a4.57,4.57,0,0,0,.06-1.07Z"/><path class="c" d="M238.44,170.34a20.36,20.36,0,0,1,5.19,3.09c.09-.81-2.23-2.52-5.38-3.94-3.32-1.49-6.3-2.08-6.66-1.33l.74.33A18.55,18.55,0,0,1,238.44,170.34Z"/><path class="c" d="M235.19,179a20.38,20.38,0,0,1,4.67,2.47c0-.63-2.09-2-4.9-3.13s-5.55-1.69-5.81-1.11l.66.27A18.52,18.52,0,0,1,235.19,179Z"/><path class="c" d="M235.83,175.87c-5.77,1.51-4.92.68-6,1.13.18-.36,3-1.3,6.47-2.15,3.68-.9,6.74-1.37,6.84-1l-.82.2A49.39,49.39,0,0,1,235.83,175.87Z"/><path class="c" d="M266,167.76a23.37,23.37,0,0,1,6,3.55c.11-.93-2.56-2.9-6.18-4.52-3.81-1.71-7.23-2.39-7.65-1.53l.85.38A21.3,21.3,0,0,1,266,167.76Z"/><path class="c" d="M262.29,177.71a23.41,23.41,0,0,1,5.36,2.83c0-.72-2.4-2.28-5.62-3.59-3.39-1.37-6.38-1.94-6.67-1.27l.75.31A21.27,21.27,0,0,1,262.29,177.71Z"/><path class="c" d="M263,174.11c-6.62,1.74-5.65.78-6.94,1.29.2-.42,3.41-1.49,7.43-2.47,4.22-1,7.74-1.57,7.85-1.2l-.94.23A56.71,56.71,0,0,1,263,174.11Z"/><path class="c" d="M294.86,165.62a26.81,26.81,0,0,1,6.83,4.07c.12-1.07-2.93-3.32-7.09-5.19-4.37-2-8.3-2.74-8.78-1.75l1,.44C288.31,163.18,291.44,164.09,294.86,165.62Z"/><path class="c" d="M290.57,177a26.85,26.85,0,0,1,6.15,3.25c0-.83-2.75-2.62-6.45-4.12-3.89-1.57-7.31-2.23-7.65-1.46l.86.35A24.4,24.4,0,0,1,290.57,177Z"/><path class="c" d="M291.42,172.91c-7.59,2-6.48.9-8,1.48.24-.48,3.91-1.71,8.52-2.83,4.84-1.18,8.88-1.8,9-1.38l-1.08.26A65.06,65.06,0,0,1,291.42,172.91Z"/></svg>