<?xml version="1.0" encoding="utf-8"?>
<!-- Generator: Adobe Illustrator 20.0.0, SVG Export Plug-In . SVG Version: 6.00 Build 0)  -->
<svg version="1.1" id="Layer_1" xmlns="http://www.w3.org/2000/svg" xmlns:xlink="http://www.w3.org/1999/xlink" x="0px" y="0px"
	 viewBox="0 0 2048 2048" fill="currentColor" style="enable-background:new 0 0 2048 2048;" xml:space="preserve">
<path d="M1794.9,709.7l-448.7-448.7l-1,1v-0.6H267.8v1530.4h1530.4V709.7H1794.9z M1458.2,1442.6c-68,0-123.1-55.1-123.1-123.1
	c0-56.3,37.7-103.7,89.2-118.4v-123.3H628.1v121.1c56.1,11.5,98.2,61.1,98.2,120.6c0,68-55.1,123.1-123.1,123.1
	S480,1387.5,480,1319.4c0-55.2,36.3-101.8,86.2-117.5v-186h13.4h48.4h371.7v-131c-52-14.4-90.2-62.1-90.2-118.7
	c0-68,55.1-123.1,123.1-123.1s123.1,55.1,123.1,123.1c0,58.1-40.2,106.7-94.2,119.7v130h362.7h61.8v61.8v121.8
	c54.6,12.6,95.2,61.5,95.2,120C1581.3,1387.5,1526.2,1442.6,1458.2,1442.6z M1345.1,709.7V359.4l350.3,350.3H1345.1z"/>
</svg>
