<?xml version="1.0" encoding="utf-8"?>
<!-- Generator: Adobe Illustrator 20.0.0, SVG Export Plug-In . SVG Version: 6.00 Build 0)  -->
<svg version="1.1" id="Layer_1" xmlns="http://www.w3.org/2000/svg" xmlns:xlink="http://www.w3.org/1999/xlink" x="0px" y="0px"
	 viewBox="0 0 2048 2048" fill="currentColor" style="enable-background:new 0 0 2048 2048;" xml:space="preserve">
<path d="M1788.9,709.7l-448.7-448.7l-1,1v-0.6H261.8v1530.4h1530.4V709.7H1788.9z M1458.2,1174.5c-57,0-104.9-38.7-119-91.2h-190.3
	c-14.9,51.2-62.2,88.7-118.2,88.7c-56,0-103.3-37.4-118.2-88.7H722.3c-13.8,52.8-61.9,91.8-119.1,91.8c-68,0-123.1-55.1-123.1-123.1
	s55.1-123.1,123.1-123.1c57.5,0,105.8,39.4,119.3,92.7h188.1c12.4-54.9,61.5-95.8,120.1-95.8c58.6,0,107.7,41,120.1,95.8h187.9
	c13.4-53.6,61.8-93.2,119.5-93.2c68,0,123.1,55.1,123.1,123.1S1526.2,1174.5,1458.2,1174.5z M1339.1,709.7V359.4l350.3,350.3H1339.1
	z"/>
</svg>
