<?xml version="1.0" encoding="utf-8"?>
<!-- Generator: Adobe Illustrator 20.0.0, SVG Export Plug-In . SVG Version: 6.00 Build 0)  -->
<svg version="1.1" id="Layer_1" xmlns="http://www.w3.org/2000/svg" xmlns:xlink="http://www.w3.org/1999/xlink" x="0px" y="0px"
	 viewBox="0 0 2048 2048" style="enable-background:new 0 0 2048 2048;" xml:space="preserve">
<g>
	<g>
		<path d="M1709.7,748.2l-271.3,272.4h187c-0.1,333.8-269.6,604.3-602,604.3c-227.3,0-425.1-126.5-527.6-313.2l-120.3,120.8
			c136.3,216.6,376.8,360.5,650.9,360.5c424.9,0,769.3-345.8,769.3-772.4H1981L1709.7,748.2z"/>
		<path d="M424.6,1021.4c0.1-333.8,269.6-604.3,602-604.3c227.3,0,425.1,126.5,527.6,313.2l120.3-120.8
			C1538.1,392.9,1297.6,249,1023.6,249c-424.9,0-769.3,345.8-769.3,772.4H69l271.3,272.4l271.3-272.4H424.6z"/>
	</g>
</g>
</svg>
