<?xml version="1.0" encoding="utf-8"?>
<!-- Generator: Adobe Illustrator 20.0.0, SVG Export Plug-In . SVG Version: 6.00 Build 0)  -->
<svg version="1.1" id="Layer_1" xmlns="http://www.w3.org/2000/svg" xmlns:xlink="http://www.w3.org/1999/xlink" x="0px" y="0px"
	 viewBox="0 0 2048 2048" style="enable-background:new 0 0 2048 2048;" xml:space="preserve">
<style type="text/css">
	.st0{fill-rule:evenodd;clip-rule:evenodd;}
</style>
<g style="fill: #B7B7B7;">
	<path class="st0" d="M1024,423c-357.1,0-677.7,232.5-896.8,601c219.1,368.5,539.7,601,896.8,601s677.7-232.5,896.8-601
		C1701.7,655.5,1381.1,423,1024,423z M1024,1432.3c-225.2,0-407.7-183.1-407.7-409c0-225.9,182.5-409,407.7-409
		c225.1,0,407.7,183.1,407.7,409C1431.7,1249.2,1249.2,1432.3,1024,1432.3z"/>
	<path class="st0" d="M1024,793.7c-126.4,0-228.9,102.8-228.9,229.6c0,126.8,102.5,229.6,228.9,229.6
		c126.4,0,228.9-102.8,228.9-229.6C1252.9,896.5,1150.4,793.7,1024,793.7z"/>
</g>
</svg>
