<svg xmlns="http://www.w3.org/2000/svg" width="20.25" height="16.25" viewBox="0 0 20.25 16.25">
  <g id="bb3e41a7-29ca-4efd-add9-ee083fce497d" data-name="folder">
    <path id="b1598c4e-3ddf-4c05-a9e5-06f912d75971" data-name="folderPath" d="M8.125.125h-6a1.99733,1.99733,0,0,0-1.99,2l-.01,12a2.00588,2.00588,0,0,0,2,2h16a2.00588,2.00588,0,0,0,2-2v-10a2.00588,2.00588,0,0,0-2-2h-8Z" style="fill: #333;stroke: #fff;stroke-miterlimit: 10;stroke-width: 0.25px"/>
  </g>
  <g id="bee5c853-a371-4769-9e63-aa489a0e32a8" data-name="secure">
    <path d="M12.52993,7.71336h-.40082V6.91171a2.00411,2.00411,0,0,0-4.00822,0v.80165H7.72007a.804.804,0,0,0-.80164.80164v4.00821a.804.804,0,0,0,.80164.80164h4.80986a.804.804,0,0,0,.80164-.80164V8.515A.804.804,0,0,0,12.52993,7.71336ZM10.125,11.32075a.80165.80165,0,1,1,.80164-.80165A.804.804,0,0,1,10.125,11.32075Zm1.24255-3.60739H8.88245V6.91171a1.24255,1.24255,0,0,1,2.4851,0Z" style="fill: #fff"/>
  </g>
</svg>
