<svg xmlns="http://www.w3.org/2000/svg" width="20.25" height="16.25" viewBox="0 0 20.25 16.25">
  <g id="fc0ae2dd-f323-4556-b87f-480ca13666a1" data-name="folder">
    <path id="fa5aebd3-4aa0-4898-9d74-816f4c68257e" data-name="folderPath" d="M8.125.125h-6a1.99733,1.99733,0,0,0-1.99,2l-.01,12a2.00588,2.00588,0,0,0,2,2h16a2.00588,2.00588,0,0,0,2-2v-10a2.00588,2.00588,0,0,0-2-2h-8Z" style="fill: #333;stroke: #fff;stroke-miterlimit: 10;stroke-width: 0.25px"/>
  </g>
  <g id="a1d9a2f9-d3d8-431b-aca9-f06f83799834" data-name="database">
    <path d="M9.84239,4.90572c-2.04516,0-3.587.75144-3.587,1.74747s1.54182,1.74748,3.587,1.74748,3.587-.75143,3.587-1.74748S11.88755,4.90572,9.84239,4.90572Z" style="fill: #c0c028"/>
    <path d="M9.84239,8.95251a5.36912,5.36912,0,0,1-3.587-1.04346v.49161c0,.94362,1.54182,1.65551,3.587,1.65551s3.587-.71189,3.587-1.65551v-.4916A5.36894,5.36894,0,0,1,9.84239,8.95251Z" style="fill: #c0c028"/>
    <path d="M9.84239,10.608a5.36907,5.36907,0,0,1-3.587-1.04346v.49161c0,.94363,1.54182,1.65552,3.587,1.65552s3.587-.71189,3.587-1.65552V9.56458A5.369,5.369,0,0,1,9.84239,10.608Z" style="fill: #c0c028"/>
    <path d="M9.84239,12.26356a5.36912,5.36912,0,0,1-3.587-1.04346v.49161c0,.94364,1.5418,1.65553,3.587,1.65553s3.587-.71189,3.587-1.65552v-.49161A5.369,5.369,0,0,1,9.84239,12.26356Z" style="fill: #c0c028"/>
  </g>
</svg>
