<svg xmlns="http://www.w3.org/2000/svg" width="20.25" height="16.25" viewBox="0 0 20.25 16.25">
  <g id="ba0bef54-de3f-446c-adde-d800a96dc1d4" data-name="folder">
    <path id="ac9147d8-cb6a-42ba-b0f7-17d404e21429" data-name="folderPath" d="M8.125.125h-6a1.99733,1.99733,0,0,0-1.99,2l-.01,12a2.00588,2.00588,0,0,0,2,2h16a2.00588,2.00588,0,0,0,2-2v-10a2.00588,2.00588,0,0,0-2-2h-8Z" style="fill: #333;stroke: #fff;stroke-miterlimit: 10;stroke-width: 0.25px"/>
  </g>
  <g id="bbd40cd6-713a-4d6d-84a9-96715f893075" data-name="azure">
    <g id="aad5101e-13ee-4dd2-8103-fb74bee000d5" data-name="provider-logo">
      <g id="b5695ebb-ddc7-4e64-a360-8625a99502c1" data-name="layer1-1">
        <path id="a0fe8bcb-60ce-4144-afd6-76ef5b151760" data-name="path21" d="M9.72178,12.81766c1.38607-.24485,2.53089-.44747,2.544-.45026l.02391-.00507-1.30859-1.55652c-.71972-.85609-1.30859-1.55984-1.30859-1.5639,0-.00768,1.35123-3.72867,1.35883-3.74191.00254-.00443.92209,1.58315,2.229,3.8484,1.2236,2.12076,2.2324,3.86934,2.24178,3.88573l.017.02979-4.1588-.00054-4.1588-.00053Zm-4.991-.47467c0-.00219.6166-1.07256,1.37022-2.3786L7.4712,7.58978,9.068,6.24971c.87826-.737,1.5992-1.341,1.60209-1.34207a.28065.28065,0,0,1-.02567.06462c-.017.03664-.79728,1.71024-1.73394,3.71911l-1.703,3.6525-1.23837.00155C5.288,12.34628,4.73075,12.34518,4.73075,12.343Z" style="fill: #0089d6"/>
      </g>
    </g>
  </g>
</svg>
