<?xml version="1.0" encoding="utf-8"?>
<!-- Generator: Adobe Illustrator 20.0.0, SVG Export Plug-In . SVG Version: 6.00 Build 0)  -->
<svg version="1.1" id="Layer_1" xmlns="http://www.w3.org/2000/svg" xmlns:xlink="http://www.w3.org/1999/xlink" x="0px" y="0px"
	 viewBox="0 0 2048 2048" style="enable-background:new 0 0 2048 2048;" xml:space="preserve">
<style type="text/css">
	.st0{fill:#C8C7C6;}
</style>
<g>
	<polygon class="st0" points="1401.7,784.9 1282.4,665.6 1043.8,904.1 802.3,662.7 680.9,784 922.5,1025.5 682.9,1265.1 
		802.2,1384.4 1041.8,1144.8 1282.4,1385.3 1403.7,1264 1163.2,1023.5 	"/>
	<path class="st0" d="M1024,256.1c-423.4,0-767.9,344.5-767.9,767.9s344.5,767.9,767.9,767.9s767.9-344.5,767.9-767.9
		S1447.4,256.1,1024,256.1z M1024,1699.8c-372.6,0-675.8-303.2-675.8-675.8S651.4,348.2,1024,348.2s675.8,303.2,675.8,675.8
		S1396.6,1699.8,1024,1699.8z"/>
</g>
</svg>
