<?xml version="1.0" encoding="utf-8"?>
<!-- Generator: Adobe Illustrator 20.0.0, SVG Export Plug-In . SVG Version: 6.00 Build 0)  -->
<svg version="1.1" id="Layer_1" xmlns="http://www.w3.org/2000/svg" xmlns:xlink="http://www.w3.org/1999/xlink" x="0px" y="0px"
	 viewBox="0 0 2048 2048" style="enable-background:new 0 0 2048 2048;" xml:space="preserve">
<path style="fill: #fff;" d="M1773.2,1567.6l-266.3-266.2c67.5-105.3,107.1-230.1,107.1-364.5c0-373.7-302.9-676.6-676.6-676.6S260.8,563.2,260.8,936.9
	s302.9,676.6,676.6,676.6c134.3,0,259.2-39.7,364.4-107.1l266.2,266.3c18.8,18.8,49.6,18.8,68.3,0l136.8-136.7
	C1791.9,1617.2,1791.9,1586.4,1773.2,1567.6z M937.4,1420.2c-266.5,0-483.3-216.8-483.3-483.3s216.8-483.3,483.3-483.3
	s483.3,216.8,483.3,483.3S1203.9,1420.2,937.4,1420.2z"/>
</svg>
