<?xml version="1.0" encoding="utf-8"?>
<!-- Generator: Adobe Illustrator 20.0.0, SVG Export Plug-In . SVG Version: 6.00 Build 0)  -->
<svg version="1.1" fill="#6F7273" xmlns="http://www.w3.org/2000/svg" xmlns:xlink="http://www.w3.org/1999/xlink" x="0px" y="0px"
	 viewBox="0 0 2431 2048" style="enable-background:new 0 0 2431 2048;" xml:space="preserve">
<g>
	<polygon points="1067.9,1582.6 658.6,1582.6 644,1582.6 644,805.2 870.2,1031.4 1004.8,896.8 552.6,444.6 101.1,896.2 
		235.2,1030.3 451.1,814.3 451.1,1789 452.2,1789 644,1789 1773.2,1789 1566.8,1582.6 	"/>
	<polygon points="2195.8,1015.7 1979.9,1231.7 1979.9,257 1978.8,257 1787,257 657.8,257 864.2,463.4 1363.1,463.4 1772.4,463.4 
		1787,463.4 1787,1240.8 1560.8,1014.6 1426.2,1149.2 1878.4,1601.4 2329.9,1149.8 	"/>
</g>
</svg>
