<?xml version="1.0" encoding="utf-8"?>
<!-- Generator: Adobe Illustrator 20.0.0, SVG Export Plug-In . SVG Version: 6.00 Build 0)  -->
<svg version="1.1" id="Layer_1" xmlns="http://www.w3.org/2000/svg" xmlns:xlink="http://www.w3.org/1999/xlink" x="0px" y="0px"
	 viewBox="0 0 2048 2048" style="enable-background:new 0 0 2048 2048;" xml:space="preserve">
<path style="fill: #B7B7B7;" d="M1490.1,408.5c-133-100.8-288.1-151.9-443.2-156.5c-1.5-0.1-3.1-0.1-4.6-0.2c-3.6-0.1-7.3-0.2-10.9-0.3c-0.7,0-1.4,0-2,0
	c-3.5-0.1-7-0.1-10.5-0.1c-0.7,0-1.3,0-2,0c-3.5,0-7.1,0-10.6,0c-0.1,0-0.2,0-0.3,0c-3.6,0-7.2,0.1-10.8,0.2c-0.7,0-1.4,0-2.1,0
	c-3.5,0.1-6.9,0.2-10.4,0.3c-0.7,0-1.3,0.1-2,0.1c-3.4,0.1-6.9,0.3-10.3,0.5c-0.2,0-0.3,0-0.5,0c-3.5,0.2-7,0.4-10.6,0.7
	c-0.7,0-1.4,0.1-2.1,0.1c-3.4,0.2-6.8,0.5-10.2,0.8c-0.7,0.1-1.3,0.1-2,0.2c-3.3,0.3-6.7,0.6-10,0.9c-0.3,0-0.5,0-0.8,0.1
	c-3.5,0.4-6.9,0.7-10.3,1.1c-0.7,0.1-1.5,0.2-2.2,0.3c-3.3,0.4-6.7,0.8-10,1.3c-0.7,0.1-1.3,0.2-2,0.3c-3.2,0.4-6.4,0.9-9.6,1.4
	c-0.3,0-0.7,0.1-1,0.1c-3.4,0.5-6.7,1-10.1,1.6c-0.8,0.1-1.5,0.2-2.3,0.4c-3.3,0.5-6.6,1.1-9.8,1.7c-0.7,0.1-1.3,0.2-2,0.4
	c-3.1,0.6-6.2,1.1-9.3,1.7c-0.4,0.1-0.8,0.2-1.2,0.2c-3.3,0.6-6.6,1.3-9.8,2c-0.8,0.2-1.6,0.3-2.3,0.5c-3.2,0.7-6.4,1.4-9.6,2.1
	c-0.7,0.2-1.3,0.3-2,0.5c-3,0.7-5.9,1.4-8.9,2.1c-0.5,0.1-1,0.2-1.4,0.3c-3.2,0.8-6.4,1.6-9.6,2.4c-0.8,0.2-1.6,0.4-2.4,0.6
	c-3.1,0.8-6.3,1.7-9.4,2.5c-0.7,0.2-1.3,0.4-2,0.6c-2.9,0.8-5.7,1.6-8.6,2.4c-0.5,0.2-1.1,0.3-1.6,0.5c-3.1,0.9-6.2,1.8-9.3,2.8
	c-0.8,0.2-1.6,0.5-2.4,0.8c-3.1,0.9-6.1,1.9-9.2,2.9c-0.7,0.2-1.3,0.4-2,0.7c-2.8,0.9-5.5,1.8-8.3,2.7c-0.6,0.2-1.2,0.4-1.8,0.6
	c-3,1-6,2.1-9.1,3.2c-0.8,0.3-1.7,0.6-2.5,0.9c-3,1.1-6,2.2-8.9,3.3c-0.7,0.2-1.3,0.5-2,0.8c-2.7,1-5.3,2-8,3.1
	c-0.6,0.2-1.3,0.5-1.9,0.7c-2.9,1.2-5.9,2.3-8.8,3.5c-0.8,0.3-1.6,0.7-2.5,1c-2.9,1.2-5.8,2.4-8.7,3.7c-0.6,0.3-1.3,0.5-1.9,0.8
	c-2.6,1.1-5.2,2.2-7.8,3.4c-0.6,0.3-1.3,0.6-1.9,0.9c-2.9,1.3-5.7,2.6-8.6,3.9c-0.8,0.4-1.6,0.8-2.4,1.1c-2.9,1.3-5.7,2.7-8.5,4
	c-0.6,0.3-1.2,0.6-1.8,0.9c-2.5,1.2-5.1,2.5-7.6,3.7c-0.7,0.3-1.3,0.6-2,1c-2.8,1.4-5.6,2.8-8.4,4.3c-0.8,0.4-1.6,0.8-2.4,1.2
	c-2.8,1.5-5.6,2.9-8.4,4.4c-0.6,0.3-1.1,0.6-1.7,0.9c-2.5,1.3-5,2.7-7.5,4.1c-0.6,0.4-1.3,0.7-1.9,1.1c-2.7,1.5-5.5,3.1-8.2,4.6
	c-0.8,0.4-1.5,0.9-2.3,1.3c-2.7,1.6-5.5,3.2-8.2,4.8c-0.5,0.3-1,0.6-1.5,0.9c-1.4,0.8-2.7,1.6-4.1,2.5l0,0
	C532.2,412,459.8,476.6,401.2,552.7L259.9,445.6l51.7,381l380.7-53.3l-147-111.4c44.5-59.5,99.6-110.4,162.5-150
	c1.1-0.7,2.2-1.4,3.3-2.1c1.1-0.7,2.1-1.3,3.2-2c1.7-1,3.3-2,5-3c1.1-0.6,2.2-1.3,3.3-1.9c1.1-0.7,2.3-1.3,3.4-2c1.7-1,3.4-2,5.2-3
	c1.1-0.6,2.3-1.3,3.4-1.9c1.1-0.6,2.1-1.2,3.2-1.8c1.6-0.9,3.2-1.8,4.9-2.7c1.2-0.7,2.5-1.3,3.7-2c1.2-0.6,2.3-1.2,3.5-1.8
	c1.3-0.7,2.7-1.4,4-2.1c1.6-0.8,3.1-1.6,4.7-2.4c1.1-0.6,2.3-1.1,3.4-1.7c1.1-0.6,2.2-1.1,3.4-1.7c1.8-0.9,3.7-1.8,5.5-2.6
	c1.1-0.5,2.3-1.1,3.4-1.6c1.3-0.6,2.6-1.2,3.9-1.8c1.6-0.7,3.2-1.4,4.7-2.1c1.3-0.6,2.6-1.2,3.9-1.7c1.1-0.5,2.2-1,3.3-1.5
	c1.9-0.8,3.9-1.7,5.8-2.5c1.1-0.5,2.2-0.9,3.3-1.4c1.4-0.6,2.8-1.1,4.1-1.7c1.4-0.6,2.8-1.1,4.3-1.7c1.6-0.6,3.1-1.2,4.7-1.8
	c1.1-0.4,2.1-0.8,3.2-1.2c2-0.8,4.1-1.5,6.1-2.3c1-0.4,2-0.7,3-1.1c1.5-0.5,3-1.1,4.5-1.6c1-0.3,1.9-0.7,2.9-1
	c2.1-0.7,4.2-1.4,6.3-2.1c1-0.3,2-0.7,3-1c2-0.6,3.9-1.3,5.9-1.9c1-0.3,2-0.6,3.1-1c1.7-0.5,3.4-1,5.1-1.6c0.9-0.3,1.8-0.6,2.8-0.8
	c2.2-0.7,4.4-1.3,6.7-1.9c0.9-0.3,1.8-0.5,2.8-0.8c1.9-0.5,3.9-1.1,5.8-1.6c0.9-0.2,1.8-0.5,2.8-0.7c2-0.5,4-1,6.1-1.5
	c0.9-0.2,1.7-0.4,2.6-0.7c2.3-0.6,4.7-1.1,7-1.7c0.8-0.2,1.6-0.4,2.4-0.5c2-0.5,4-0.9,6-1.3c0.6-0.1,1.3-0.3,1.9-0.4
	c2.4-0.5,4.9-1,7.3-1.5c0.8-0.2,1.6-0.3,2.4-0.5c2.5-0.5,4.9-1,7.4-1.4c0.6-0.1,1.2-0.2,1.9-0.3c2.2-0.4,4.3-0.8,6.5-1.1
	c0.7-0.1,1.3-0.2,2-0.3c2.5-0.4,5-0.8,7.6-1.2c0.7-0.1,1.5-0.2,2.2-0.3c2.6-0.4,5.2-0.8,7.8-1.1c0.4,0,0.7-0.1,1.1-0.1
	c2.4-0.3,4.8-0.6,7.2-0.9c0.7-0.1,1.3-0.2,2-0.2c2.6-0.3,5.2-0.6,7.8-0.9c0.6-0.1,1.3-0.1,1.9-0.2c2.5-0.3,5-0.5,7.5-0.7
	c0.3,0,0.6-0.1,0.9-0.1c2.7-0.2,5.4-0.5,8.1-0.7c0.6,0,1.3-0.1,1.9-0.1c2.7-0.2,5.4-0.4,8.1-0.5c0.5,0,1-0.1,1.5-0.1
	c2.5-0.1,5-0.3,7.6-0.4c0.4,0,0.9,0,1.3-0.1c2.7-0.1,5.5-0.2,8.2-0.3c0.6,0,1.2,0,1.9,0c2.8-0.1,5.6-0.1,8.3-0.1c0.3,0,0.6,0,0.9,0
	c2.6,0,5.3,0,7.9,0c0.5,0,1,0,1.5,0c2.8,0,5.6,0.1,8.3,0.1c0.6,0,1.1,0,1.7,0c2.9,0.1,5.8,0.1,8.6,0.3c1.9,0.1,3.8,0.2,5.7,0.2
	c116.3,6.3,232,46.2,331.7,121.8c266.1,201.6,318.4,580.6,116.8,846.7c-87.9,116-209.6,191.4-340.9,222.8
	c-50.7,11.7-103.8,16.9-158.2,14.9c-3-0.1-6.1-0.3-9.1-0.4c-1.1-0.1-2.1-0.1-3.2-0.2c-2-0.1-3.9-0.2-5.9-0.4
	c-1.3-0.1-2.5-0.2-3.8-0.3c-1.8-0.1-3.6-0.3-5.4-0.4c-1.2-0.1-2.5-0.2-3.7-0.3c-202-17.8-374-134.4-469.5-299.8l-155.3,96.5
	c127.3,212,353.8,358.8,617.8,374.1l0,0c0.4,0,0.8,0,1.2,0.1c1.5,0.1,3,0.2,4.5,0.2c3.5,0.2,6.9,0.3,10.4,0.5c0,0,0.1,0,0.1,0
	c246.3,12.1,494.2-93.6,654.4-305.1C1897,1150.6,1830.1,666.1,1490.1,408.5z"/>
</svg>
