<?xml version="1.0" encoding="utf-8"?>
<!-- Generator: Adobe Illustrator 20.0.0, SVG Export Plug-In . SVG Version: 6.00 Build 0)  -->
<svg version="1.1" id="Layer_1" xmlns="http://www.w3.org/2000/svg" xmlns:xlink="http://www.w3.org/1999/xlink" x="0px" y="0px"
	 viewBox="0 0 2048 2048" style="enable-background:new 0 0 2048 2048;" xml:space="preserve">
<style type="text/css">
	.st0{fill:#3F2B2F;}
	.st1{fill:#00A8E1;}
	.st2{fill:#EB0029;}
</style>
<path class="st0" d="M860.4,1145.3H758.9L621.1,791h109.8l78.4,220.9h1.3L889.1,791h109.8L860.4,1145.3z"/>
<path class="st0" d="M1792,1263.4h-106v-154.5h-1.3c-12.1,16.6-39.6,47.9-107.2,47.9c-100.2,0-171-80.4-171-181.9
	c0-122.5,81-196,178.1-196c68.9,0,97,38.3,104.7,51h1.3V791H1792V1263.4z M1603.3,1061.1c53.7,0,87.8-49,87.8-92.6
	c0-48.1-34.5-93.9-88.3-93.9c-57.1,0-90.8,47.6-90.8,95.8C1512,1008.8,1542.5,1061.1,1603.3,1061.1z"/>
<path class="st0" d="M514.6,1037.9c-17.6,19.1-42.3,31.2-69.7,31.2c-42.7,0-78.8-28.8-91.8-68.7h277.6c1.9-10.5,3-21.3,3-32.3
	c0-104.3-84.6-188.9-188.9-188.9c-104.4,0-188.9,84.6-188.9,188.9c0,104.3,84.5,188.9,188.9,188.9c79.6,0,147.6-49.4,175.5-119.2
	H514.6z M444.9,867.2c40.1,0,74.6,25.4,89.3,61.6H355.6C370.3,892.7,404.7,867.2,444.9,867.2z"/>
<path class="st0" d="M1194.7,779L1194.7,779L1194.7,779c40.2,19,70.6,55.5,81.3,99.6c43.3,10.7,79.2,40.3,98.4,79.5
	C1369.4,861.2,1291.6,783.7,1194.7,779z M1095.3,1058.8c-44-10.8-80.3-41.1-99.3-81.3c4.7,96.6,81.8,174.2,178.2,179.7
	C1135.2,1138,1105.9,1102.1,1095.3,1058.8z M996.1,977.6L996.1,977.6L996.1,977.6L996.1,977.6z M1374.5,958L1374.5,958L1374.5,958z"
	/>
<path class="st1" d="M1374.7,968.2c0-3.4-0.1-6.8-0.2-10.2c-19.1-39.2-55-68.8-98.4-79.5c2.8,11.3,4.2,23.2,4.2,35.4
	c0,82.4-66.8,149.3-149.2,149.3c-12.3,0-24.3-1.5-35.8-4.4c10.5,43.3,39.9,79.2,78.9,98.5c3.7,0.2,7.4,0.3,11,0.3
	C1289.9,1157.6,1374.7,1072.8,1374.7,968.2z"/>
<path class="st2" d="M1240.3,874.2c12.3,0,24.4,1.5,35.8,4.3c-10.7-44.1-41.1-80.6-81.3-99.6c-3.1-0.2-6.2-0.3-9.5-0.3
	c-104.6,0-189.4,84.8-189.4,189.5c0,3.2,0.1,6.3,0.2,9.4c19,40.1,55.3,70.5,99.3,81.3c-2.8-11.3-4.3-23.2-4.3-35.4
	C1091.1,941,1157.9,874.2,1240.3,874.2z"/>
</svg>
