<?xml version="1.0" encoding="utf-8"?>
<!-- Generator: Adobe Illustrator 20.0.0, SVG Export Plug-In . SVG Version: 6.00 Build 0)  -->
<svg version="1.1" id="Layer_1" xmlns="http://www.w3.org/2000/svg" xmlns:xlink="http://www.w3.org/1999/xlink" x="0px" y="0px"
	 viewBox="0 0 2048 2048" style="enable-background:new 0 0 2048 2048;" xml:space="preserve">
<g>
	<g>
		<path d="M1270.6,257H380.7v1532h1286.6V632.6L1270.6,257z M1327.4,442.6l117.2,117.2h-117.2V442.6z M1538.9,1662.9H519.6V370.4
			h703.6v293.7h315.7V1662.9z"/>
	</g>
	<path d="M1245.6,941H1122l-58.1,181.4c-28.8-10.2-55.2-26.8-77.5-49.1c-39.4-39.4-61.1-91.7-61.1-147.4v-24.4h193.1v-78.5H925.3
		V692.1h-89.5v130.8H639.3v78.5h196.4v24.4c0,55.7-21.7,108-61.1,147.4c-35.7,35.7-82.2,56.9-132,60.5v86.5
		c34.4-1.8,67.7-9.4,99.4-22.8c35.1-14.8,66.6-36.1,93.7-63.1c17.4-17.4,32.4-36.6,44.8-57.4c12.4,20.8,27.4,40.1,44.8,57.4
		c27.1,27.1,58.6,48.3,93.7,63.1c6.1,2.6,12.3,5,18.5,7.1l-85.6,267.2h100l45.7-150.4h168.5l48,150.4h103.9L1245.6,941z
		 M1113.3,1248.1l40.9-130.7c9.4-31.5,17.3-68.5,25.2-99.2h1.6c7.9,30.7,16.5,66.9,26.8,99.2l41.7,130.7H1113.3z"/>
</g>
</svg>
