<svg xmlns="http://www.w3.org/2000/svg" viewBox="0 0 526.08 398.98"><defs><style>.a{fill:#ccc;}.b{fill:#b3b3b3;}.c{fill:#9f9fa0;}.d{fill:#e6e6e6;}</style></defs><title>revised no data states</title><ellipse class="a" cx="355.3" cy="273.41" rx="48.71" ry="4.4"/><path class="a" d="M261.57,271.47a30.26,30.26,0,0,1-5.87,3.58s-11.88-1.18-13.41,0-15.08-3.12-15.08-3.12l-7.77-.79-6.36,1.69h-9.87s-11.08-3-13.31-3.16a4.29,4.29,0,0,1-.61-.11c-25.86.79-44.48,3-44.48,5.61,0,3.27,29.35,5.92,65.56,5.92s65.56-2.65,65.56-5.92C275.95,273.77,270.56,272.48,261.57,271.47Z"/><path class="b" d="M172.87,252.9c-.43,4.75,9.8,16.42,14.45,19.15,7.51,4.41,25.07,3.9,30.48-1.17-5,1.45-26.25.06-31.34-4.83s-11.09-20-11.21-19.83c-.45-3.41-3-6.9-6.82-9.92-2.18,6.08-12.3,9-24.4,6.62a42.38,42.38,0,0,1-17.49-7.64,7.41,7.41,0,0,0-.45,2.39c-.12,7.67,10.8,16.08,24.4,18.78C160.33,258.41,168.85,256.82,172.87,252.9Z"/><path class="b" d="M245.37,252.4a8.59,8.59,0,0,1,1.38-3l1.7,4.16a5,5,0,0,0,.9,2.21l0,.08h0c1.35,1.82,3.94,3.08,7.18,3.19,5.32.19,10.34-2.76,11.2-6.59s-2.75-7.1-8.07-7.29a13.87,13.87,0,0,0-4,.45L255,244a19.27,19.27,0,0,1,5.9-.72c7.4.27,12.42,4.8,11.22,10.13s-8.17,9.43-15.57,9.16S244.17,257.73,245.37,252.4Z"/><path class="b" d="M125.26,235.68l-.17,0,.09.17Z"/><path class="b" d="M224.92,131.24c-2.07-2.64-4.6-4.06-5.65-3.19s-.23,3.72,1.84,6.36,4.6,4.06,5.65,3.19S227,133.88,224.92,131.24Z"/><path class="b" d="M236.68,138.47c.5,3.37,6.47,5.22,13.33,4.14s12-4.68,11.53-8-6.47-5.22-13.33-4.14S236.18,135.1,236.68,138.47Z"/><path class="b" d="M206.09,125.53c5.23-1.84,10.28-1.9,13.37-.45-1.95-4.06-8.75-5.39-15.71-2.94-7.31,2.58-12,8.36-10.49,12.91l1.63-.57C196.08,131.12,200.37,127.54,206.09,125.53Z"/><path class="b" d="M261.88,133.79a5.75,5.75,0,0,1,.86,2.88c.39,7.25-7.75,20.05-18.19,28.59-3,2.42-9.65,9.08-12.19,10.28,3,.71,11.33-5.46,16.35-8.95,9.45-6.56,17.35-18.29,17.64-26.2C266.49,136.51,264.77,134.29,261.88,133.79Z"/><path class="b" d="M172.59,233.55c2.92-2.53,3.46-5,5.56-8.14a25,25,0,0,1,2.87-3.57,19.63,19.63,0,0,0,2.54-1.68,8.11,8.11,0,0,0,4.93-1.19c1.43-1,4.65-2.54,7.5-5.51a9.47,9.47,0,0,0,12-1.91,10.18,10.18,0,0,0-.63-14.08,9.48,9.48,0,0,0-7-2.59l4.85-15.72-3.43-3.22s-6.9,15.18-7.69,18.22c-.49,1.88-6.17,6.25-10.43,9.3a20.6,20.6,0,0,0-3.08,2.16l-1.61,1.09-.48.89c-.22.23-.43.45-.64.69-3,3.39-4.83,7.14-5.16,10l-.24.44-2.57,14.11c-.38.89-.76,2-.39,2.36C172.5,237.89,172.29,233.81,172.59,233.55Z"/><path class="b" d="M184,161l6.05,4.78s5.33,2.11,6.77,1.89,6.42-6,6.42-6l-13.88-23.36c-2.81,1.67-4.85-1.62-10.7,1.24s-8.55,9.19-8.55,9.19L177,154.8Z"/><path class="b" d="M255.87,259a23.63,23.63,0,0,0-13.08-.24,18.9,18.9,0,0,0-.88-3.63,18.52,18.52,0,0,0-4.08-6.68,16.86,16.86,0,0,0,.89-13,17.77,17.77,0,0,0-8.36-9.53,32.5,32.5,0,0,0-21.75-1,34.62,34.62,0,0,0-7.35,3.09,26.7,26.7,0,0,0-3.27,2.66,37.65,37.65,0,0,1,5.28-2.14,37.23,37.23,0,0,1,10.34-1.77l5.72.37c7.56,1.16,13.6,5,15.69,11,2,5.74-.12,12.1-5.08,17.28a14.41,14.41,0,0,1,6.43,7,25.41,25.41,0,0,1,11.68.36c7.21,1.76,12,5.55,10.6,8.47s-14,3.51-21.2,1.75c-1.15-.28-18.63-1.72-19.64-2.09,1.81,1.45,19.1,3.84,21.92,4.67,8.11,2.39,23.88.86,26.35-3.79S264,261.41,255.87,259Z"/><path class="b" d="M238.9,218.94c-6.82-30.18-5-40.71-6.7-22.91-4.65,3.13-4.43,15.27.68,28,5.37,13.41,17.41,23.84,22.82,21.54L255,244C249.07,241.27,241.54,230.63,238.9,218.94Z"/><path class="c" d="M232,178.72c.93,6.35-3.47,10.88-10.53,10.35-6.28-.47-12.7-4.79-16-10.31l-1.83-2.89-3.87-.34c3.11,9.09,13.11,16.87,22.83,17.6,9.42.71,15.24-5.45,13.73-14Z"/><polygon class="d" points="388.31 264.84 382.1 246.92 331.3 246.18 325.37 264.84 321.56 264.84 321.56 271.75 391.37 271.75 391.37 264.84 388.31 264.84"/><path class="c" d="M336.83,254.06c1.33,0,2,.79,2,2.18v.27h-1.29v-.36c0-.62-.25-.86-.68-.86s-.68.24-.68.86.27,1.1,1.17,1.89a3.37,3.37,0,0,1,1.5,2.72c0,1.39-.7,2.18-2,2.18s-2-.79-2-2.18v-.53h1.29v.62c0,.62.27.84.71.84s.71-.22.71-.84-.27-1.1-1.17-1.89a3.37,3.37,0,0,1-1.5-2.72C334.82,254.85,335.5,254.06,336.83,254.06Z"/><path class="c" d="M339.64,254.16H341v8.68h-1.36Z"/><path class="c" d="M341.6,254.16h4.22v1.24h-1.43v7.44H343V255.4H341.6Z"/><path class="c" d="M347.77,257.82h1.87v1.24h-1.87v2.54h2.36v1.24h-3.72v-8.68h3.72v1.24h-2.36Z"/><path class="c" d="M354.94,258h1.91v2.75c0,1.39-.69,2.18-2,2.18s-2-.79-2-2.18v-4.52c0-1.39.69-2.18,2-2.18s2,.79,2,2.18v.84h-1.29v-.93c0-.62-.27-.86-.71-.86s-.71.24-.71.86v4.69c0,.62.27.84.71.84s.71-.22.71-.84v-1.6h-.62Z"/><path class="c" d="M360.59,262.84a2.67,2.67,0,0,1-.12-1.07v-1.37c0-.81-.27-1.1-.89-1.1h-.47v3.54h-1.36v-8.68h2.06c1.41,0,2,.66,2,2v.68a1.71,1.71,0,0,1-.89,1.75v0c.68.29.91.93.91,1.84v1.34a2.55,2.55,0,0,0,.15,1.05Zm-1.49-7.44v2.67h.53c.51,0,.82-.22.82-.92v-.86c0-.62-.21-.89-.69-.89Z"/><path class="c" d="M362.61,256.24a2.07,2.07,0,1,1,4.14,0v4.52a2.07,2.07,0,1,1-4.14,0Zm1.36,4.6c0,.62.27.86.71.86s.71-.24.71-.86v-4.69c0-.62-.27-.86-.71-.86s-.71.24-.71.86Z"/><path class="c" d="M368.93,254.16v6.7c0,.62.27.84.71.84s.71-.22.71-.84v-6.7h1.29v6.61c0,1.39-.69,2.18-2,2.18s-2-.79-2-2.18v-6.61Z"/><path class="c" d="M376.61,256.3v1.13c0,1.39-.67,2.15-2,2.15h-.65v3.26h-1.36v-8.68h2C375.94,254.16,376.61,254.91,376.61,256.3Zm-2.68-.91v2.94h.65c.43,0,.67-.2.67-.82v-1.3c0-.62-.24-.82-.67-.82Z"/><path class="c" d="M379.08,254.06c1.33,0,2,.79,2,2.18v.27H379.8v-.36c0-.62-.25-.86-.68-.86s-.68.24-.68.86.27,1.1,1.17,1.89a3.37,3.37,0,0,1,1.5,2.72c0,1.39-.7,2.18-2,2.18s-2-.79-2-2.18v-.53h1.29v.62c0,.62.27.84.71.84s.71-.22.71-.84-.27-1.1-1.17-1.89a3.37,3.37,0,0,1-1.5-2.72C377.07,254.85,377.75,254.06,379.08,254.06Z"/></svg>