<?xml version="1.0" encoding="utf-8"?>
<!-- Generator: Adobe Illustrator 20.0.0, SVG Export Plug-In . SVG Version: 6.00 Build 0)  -->
<svg version="1.1" id="Layer_1" xmlns="http://www.w3.org/2000/svg" xmlns:xlink="http://www.w3.org/1999/xlink" x="0px" y="0px"
	 viewBox="0 0 2048 2048" style="enable-background:new 0 0 2048 2048;" xml:space="preserve">
<g>
	<polygon points="933.9,652.7 933.9,652.7 665.8,921.9 756.4,1012.6 956.7,811.2 956.7,1477 1095.5,1477 1095.5,814.2 
		1297.1,1012.6 1387.7,921.9 1024.5,562.1 	"/>
	<path d="M1024,253c-424.2,0-768,343.8-768,768s343.8,768,768,768s768-343.8,768-768S1448.2,253,1024,253z
		 M1024.8,1658.8c-352.3,0-637.8-285.6-637.8-637.8s285.6-637.8,637.8-637.8s637.8,285.6,637.8,637.8S1377,1658.8,1024.8,1658.8z"/>
</g>
</svg>
