<svg xmlns="http://www.w3.org/2000/svg" viewBox="0 0 526.08 398.98"><defs><style>.a{fill:#ccc;}.b{fill:#e6e6e6;}.c{fill:#b3b3b3;}.d{fill:#9f9fa0;}</style></defs><title>revised no data states</title><ellipse class="a" cx="330.81" cy="309.79" rx="94.54" ry="5.32"/><polygon class="b" points="326.94 249.77 334.37 250.44 351.94 59.79 344.51 59.12 326.94 249.77"/><path class="c" d="M351.92,60,334.37,250.44c6.74-11.63,14.34-49.29,18.49-94.33S356.42,72.67,351.92,60Z"/><path class="c" d="M402.31,290.89,365.52,162.31c-2-6.9-9.55-10.87-16.85-8.84l-1.5.42.65,2.27a12.57,12.57,0,0,1,14.5,8.87l35.23,123.14a12.37,12.37,0,0,1-7.65,15.06h-63v4.33h64.2l1.5-.42C399.93,305.1,404.28,297.79,402.31,290.89Z"/><polygon class="c" points="324.16 298.83 239.48 306.63 239.11 302.73 323.8 294.93 324.16 298.83"/><polygon class="c" points="315.77 309.67 305.55 309.67 305.55 299.28 315.77 296.1 315.77 309.67"/><path class="a" d="M239.56,307.51a31.91,31.91,0,0,1-6.12,3.58s-12.41-1.18-14,0S203.69,308,203.69,308l-8.11-.79-6.65,1.69h-10.3s-11.57-3-13.9-3.16a4.66,4.66,0,0,1-.64-.11c-27,.79-46.44,3-46.44,5.61,0,3.27,30.65,5.92,68.46,5.92s68.46-2.65,68.46-5.92C254.57,309.81,248.95,308.52,239.56,307.51Z"/><path class="c" d="M150.71,289.22c-.43,4.75,9.8,16.42,14.45,19.15,7.51,4.41,25.07,3.9,30.48-1.17-5,1.45-26.25.06-31.34-4.83s-11.09-20-11.21-19.83c-.45-3.41-3-6.9-6.82-9.92-2.18,6.08-12.3,9-24.4,6.62a42.38,42.38,0,0,1-17.49-7.64,7.41,7.41,0,0,0-.45,2.39c-.12,7.67,10.8,16.08,24.4,18.78C138.17,294.73,146.69,293.15,150.71,289.22Z"/><path class="c" d="M223.2,288.73a8.59,8.59,0,0,1,1.38-3l1.7,4.16a5,5,0,0,0,.9,2.21l0,.08h0c1.35,1.82,3.94,3.08,7.18,3.19,5.32.19,10.34-2.76,11.2-6.59s-2.75-7.1-8.07-7.29a13.87,13.87,0,0,0-4,.45l-.67-1.64a19.27,19.27,0,0,1,5.9-.72c7.4.27,12.42,4.8,11.22,10.13s-8.17,9.43-15.57,9.16S222,294.05,223.2,288.73Z"/><path class="c" d="M103.09,272l-.17,0,.09.17Z"/><path class="c" d="M202.75,167.56c-2.07-2.64-4.6-4.06-5.65-3.19s-.23,3.72,1.84,6.36,4.6,4.06,5.65,3.19S204.82,170.2,202.75,167.56Z"/><path class="c" d="M214.52,174.79c.5,3.37,6.47,5.22,13.33,4.14s12-4.68,11.53-8-6.47-5.22-13.33-4.14S214,171.42,214.52,174.79Z"/><path class="c" d="M183.92,161.85c5.23-1.84,10.28-1.9,13.37-.45-1.95-4.06-8.75-5.39-15.71-2.94-7.31,2.58-12,8.36-10.49,12.91l1.63-.57C173.91,167.44,178.2,163.86,183.92,161.85Z"/><path class="c" d="M239.71,170.11a5.75,5.75,0,0,1,.86,2.88c.39,7.25-7.75,20.05-18.19,28.59-3,2.42-9.65,9.08-12.19,10.28,3,.71,11.33-5.46,16.35-8.95,9.45-6.56,17.35-18.29,17.64-26.2C244.33,172.83,242.61,170.61,239.71,170.11Z"/><path class="c" d="M150.43,269.88c2.92-2.53,3.46-5,5.56-8.14a25,25,0,0,1,2.87-3.57,19.63,19.63,0,0,0,2.54-1.68,8.11,8.11,0,0,0,4.93-1.19c1.43-1,4.65-2.54,7.5-5.51a9.47,9.47,0,0,0,12-1.91,10.18,10.18,0,0,0-.63-14.08,9.48,9.48,0,0,0-7-2.59L183,215.46l-3.43-3.22s-6.9,15.18-7.69,18.22c-.49,1.88-6.17,6.25-10.43,9.3a20.6,20.6,0,0,0-3.08,2.16L156.77,243l-.48.89c-.22.23-.43.45-.64.69-3,3.39-4.83,7.14-5.16,10l-.24.44-2.57,14.11c-.38.89-.76,2-.39,2.36C150.33,274.21,150.13,270.14,150.43,269.88Z"/><path class="c" d="M161.81,197.27l6.05,4.78s5.33,2.11,6.77,1.89,6.42-6,6.42-6l-13.88-23.36c-2.81,1.67-4.85-1.62-10.7,1.24s-8.55,9.19-8.55,9.19l6.94,6.15Z"/><path class="c" d="M233.71,295.35a23.63,23.63,0,0,0-13.08-.24,18.9,18.9,0,0,0-.88-3.63,18.52,18.52,0,0,0-4.08-6.68,16.86,16.86,0,0,0,.89-13,17.77,17.77,0,0,0-8.36-9.53,32.5,32.5,0,0,0-21.75-1,34.62,34.62,0,0,0-7.35,3.09,26.7,26.7,0,0,0-3.27,2.66,37.65,37.65,0,0,1,5.28-2.14,37.23,37.23,0,0,1,10.34-1.77l5.72.37c7.56,1.16,13.6,5,15.69,11,2,5.74-.12,12.1-5.08,17.28a14.41,14.41,0,0,1,6.43,7,25.41,25.41,0,0,1,11.68.36c7.21,1.76,12,5.55,10.6,8.47s-14,3.51-21.2,1.75c-1.15-.28-18.63-1.72-19.64-2.09,1.81,1.45,19.1,3.84,21.92,4.67,8.11,2.39,23.88.86,26.35-3.79S241.82,297.74,233.71,295.35Z"/><path class="c" d="M216.74,255.26c-6.82-30.18-5-40.71-6.7-22.91-4.65,3.13-4.43,15.27.68,28,5.37,13.41,17.41,23.84,22.82,21.54l-.67-1.64C226.91,277.59,219.38,267,216.74,255.26Z"/><path class="d" d="M209.81,215c.93,6.35-3.47,10.88-10.53,10.35-6.28-.47-12.7-4.79-16-10.31l-1.83-2.89-3.87-.34c3.11,9.09,13.11,16.87,22.83,17.6,9.42.71,15.24-5.45,13.73-14Z"/></svg>